<svg width="816" height="813" viewBox="0 0 816 813" fill="none" xmlns="http://www.w3.org/2000/svg">
<path d="M175.636 626.7C181.129 624.869 190.87 615.916 190.87 615.897C190.87 615.879 183.033 611.338 182.502 611.118C176.332 608.518 162.874 607.127 157.985 612.821C157.212 613.79 156.65 614.91 156.334 616.109C156.019 617.308 155.958 618.559 156.154 619.783C156.351 621.007 156.801 622.176 157.476 623.216C158.15 624.256 159.035 625.143 160.073 625.821C164.394 628.897 170.875 628.238 175.636 626.7Z" fill="#9C9C9C"/>
<path d="M277.092 540.388C277.22 540.388 273.064 532.277 272.734 531.782C269.072 526.289 258.563 517.629 251.348 519.68C250.159 520.054 249.062 520.674 248.127 521.499C247.193 522.325 246.442 523.338 245.924 524.472C245.407 525.606 245.133 526.836 245.121 528.083C245.109 529.33 245.359 530.565 245.855 531.709C247.815 536.616 253.582 539.656 258.416 540.992C264.092 542.567 277.074 540.406 277.092 540.388Z" fill="#9C9C9C"/>
<path d="M204.365 652.169C209.089 649.075 215.607 638.73 216.12 637.906C222.03 641.646 228.184 644.986 234.54 647.903C238.202 649.624 242.01 651.254 245.819 652.828C243.988 652.352 242.322 651.968 242.157 651.931C235.51 651.052 222.162 653.268 218.958 660.043C218.456 661.187 218.201 662.425 218.21 663.674C218.219 664.924 218.491 666.158 219.01 667.295C219.528 668.432 220.281 669.447 221.219 670.274C222.156 671.1 223.258 671.719 224.451 672.09C229.431 673.921 235.437 671.523 239.703 668.776C243.97 666.03 249.682 657.259 251.165 654.934L255.56 656.765C262.609 659.566 269.64 662.258 276.47 665.261C278.868 666.286 281.194 667.403 283.537 668.483C281.889 668.081 280.516 667.751 280.296 667.733C273.65 666.854 260.32 669.069 257.098 675.844C256.596 676.987 256.341 678.224 256.35 679.472C256.359 680.721 256.632 681.953 257.15 683.089C257.669 684.225 258.422 685.238 259.359 686.063C260.297 686.887 261.398 687.504 262.591 687.874C267.589 689.705 273.668 687.306 277.843 684.56C282.018 681.813 287.254 673.903 289.049 671.157C291.392 672.347 293.754 673.537 295.988 674.819C297.49 675.716 299.009 676.467 300.474 677.455L304.832 680.257C307.523 682.088 310.325 684.065 312.925 685.969C314.756 687.288 316.44 688.569 318.161 689.851C315.781 688.807 311.076 686.83 310.654 686.72C304.228 684.889 290.697 685.017 286.504 691.224C285.832 692.275 285.389 693.455 285.205 694.689C285.02 695.922 285.099 697.18 285.434 698.381C285.769 699.583 286.354 700.699 287.15 701.659C287.947 702.618 288.937 703.399 290.056 703.95C294.706 706.458 301.042 705.067 305.637 702.979C310.636 700.691 318.454 691.847 319.333 690.73C322.171 692.872 324.918 694.978 327.463 697.01C334.897 702.888 341.086 708.179 345.773 712.317L349.435 708.985C344.528 704.847 337.973 699.464 330.081 693.495C327.207 691.316 324.094 689.027 320.926 686.72C322.616 683.337 324.108 679.858 325.394 676.302C331.015 676.869 341.598 673.958 342.971 673.574C344.162 676.924 345.279 680.202 346.286 683.296C349.179 692.14 351.394 699.775 353.024 705.836L357.125 702.174C355.422 696.516 353.225 689.613 350.497 681.831C349.307 678.426 347.97 674.819 346.542 671.12C347.805 670.406 357.986 664.474 361.19 660.006C364.101 655.941 366.683 649.954 365.108 644.882C364.776 643.682 364.196 642.566 363.405 641.604C362.614 640.643 361.63 639.858 360.517 639.301C359.404 638.744 358.187 638.426 356.943 638.369C355.7 638.311 354.458 638.515 353.298 638.968C346.395 641.916 343.649 655.154 344.253 661.819C344.253 662.221 345.169 666.451 345.755 669.143C345.169 667.623 344.619 666.158 343.924 664.62C342.715 661.544 341.415 658.523 340.042 655.264C339.309 653.707 338.595 652.151 337.845 650.576C337.094 649.002 336.215 647.409 335.391 645.797C333.432 642.135 331.253 638.473 328.964 634.811C331.656 633.749 341.122 629.831 344.638 626.242C348.153 622.654 351.595 617.087 350.79 611.906C350.648 610.668 350.248 609.475 349.614 608.403C348.98 607.331 348.128 606.404 347.112 605.684C346.096 604.963 344.94 604.465 343.718 604.222C342.497 603.978 341.238 603.995 340.024 604.27C332.7 606.101 328.031 618.809 327.628 625.492C327.628 625.894 327.847 630.728 328.031 633.383C326.639 631.223 325.266 629.062 323.801 626.92C319.553 620.749 315.049 614.634 310.599 608.518C309.226 606.687 307.89 604.765 306.553 602.879C307.505 602.513 318.857 598.1 322.794 594.09C326.291 590.428 329.752 584.935 328.964 579.735C328.82 578.497 328.418 577.303 327.782 576.231C327.146 575.159 326.292 574.233 325.275 573.513C324.257 572.792 323.1 572.294 321.878 572.051C320.655 571.808 319.395 571.824 318.18 572.1C310.856 573.931 306.187 586.638 305.784 593.321C305.784 593.834 306.114 600.773 306.297 602.476C303.33 598.32 300.419 594.163 297.709 589.952C294.015 584.288 290.699 578.385 287.785 572.283C288.225 572.118 300.09 567.559 304.118 563.439C307.615 559.777 311.076 554.284 310.288 549.103C310.147 547.865 309.746 546.672 309.112 545.6C308.478 544.528 307.626 543.601 306.61 542.881C305.594 542.16 304.438 541.662 303.217 541.419C301.995 541.175 300.736 541.192 299.522 541.467C292.198 543.298 287.529 556.005 287.126 562.688C287.126 563.128 287.364 568.419 287.547 570.928L287.144 571.038C284.359 564.824 282.14 558.371 280.516 551.757C279.582 548.095 278.887 544.598 278.282 541.174C280.571 540.552 291.099 537.604 295.091 534.29C299.083 530.976 303.001 525.995 302.799 520.704C302.789 519.458 302.517 518.228 302.002 517.094C301.486 515.96 300.738 514.946 299.806 514.12C298.874 513.293 297.779 512.671 296.591 512.295C295.404 511.918 294.15 511.795 292.912 511.933C285.497 512.977 279.399 525.061 278.264 531.671C278.264 532.019 277.971 535.736 277.843 538.446C277.605 536.89 277.312 535.297 277.111 533.795C276.323 528.174 275.939 522.992 275.627 518.397C275.481 515.778 275.408 513.398 275.353 511.183C277.275 509.352 285.002 502.028 287.016 497.395C289.03 492.763 290.22 486.409 287.602 481.795C287.022 480.691 286.216 479.721 285.237 478.949C284.257 478.177 283.126 477.62 281.917 477.314C280.708 477.009 279.448 476.961 278.219 477.175C276.99 477.388 275.82 477.858 274.785 478.554C268.67 482.912 268.834 496.443 270.867 502.833C271.05 503.383 274.767 511.695 274.877 511.604L274.987 511.494C274.987 513.618 274.987 515.907 275.133 518.415C275.334 523.029 275.591 528.247 276.268 533.905C276.929 540.001 277.944 546.054 279.308 552.032C280.802 558.743 282.898 565.307 285.57 571.642L285.68 571.862C284.251 570.196 280.095 565.673 279.729 565.362C274.675 560.967 262.316 555.456 255.926 559.338C254.877 560.01 253.981 560.897 253.298 561.939C252.614 562.981 252.158 564.155 251.96 565.386C251.761 566.616 251.824 567.874 252.145 569.078C252.465 570.283 253.036 571.406 253.82 572.374C257.006 576.604 263.36 578.014 268.377 578.032C274.016 578.032 285.149 572.997 286.046 572.539C288.913 578.922 292.204 585.107 295.897 591.051C298.021 594.511 300.273 597.953 302.58 601.359C301.298 599.968 300.144 598.722 299.961 598.558C294.908 594.182 282.549 588.652 276.158 592.534C275.109 593.206 274.214 594.093 273.53 595.135C272.847 596.177 272.391 597.351 272.192 598.581C271.994 599.812 272.057 601.07 272.377 602.274C272.698 603.479 273.269 604.602 274.053 605.57C277.22 609.818 283.592 611.21 288.609 611.228C293.626 611.246 303.257 607.127 305.784 606.01C306.681 607.31 307.615 608.628 308.476 609.928C312.797 616.135 317.136 622.342 321.292 628.531C322.739 630.728 324.076 632.925 325.412 635.123C324.277 633.878 323.307 632.852 323.142 632.706C318.088 628.311 305.729 622.8 299.339 626.682C298.291 627.356 297.397 628.243 296.716 629.286C296.034 630.329 295.58 631.504 295.383 632.734C295.186 633.964 295.25 635.222 295.572 636.425C295.894 637.629 296.467 638.751 297.252 639.718C300.419 643.948 306.791 645.358 311.79 645.376C316.788 645.395 325.522 641.714 328.525 640.359C329.843 642.648 331.162 644.937 332.315 647.226C333.084 648.8 333.926 650.265 334.586 651.895C335.245 653.524 335.995 655.081 336.673 656.637C337.9 659.713 339.163 662.862 340.335 665.883C341.122 667.971 341.836 669.985 342.55 671.999C341.159 669.802 338.302 665.572 338.028 665.243C334.038 660.887 328.993 657.634 323.38 655.795C322.963 655.286 322.497 654.82 321.988 654.403C321.051 653.583 319.952 652.97 318.762 652.602C317.573 652.235 316.319 652.122 315.083 652.27C313.846 652.419 312.655 652.825 311.586 653.464C310.517 654.103 309.595 654.959 308.878 655.978C304.74 662.24 309.757 674.8 313.95 680.037C314.188 680.348 317.246 683.388 319.205 685.274L315.067 682.582C312.376 680.751 309.574 678.92 306.681 676.924L302.268 674.214C300.804 673.281 299.156 672.475 297.581 671.596C293.919 669.619 290.092 667.788 286.211 666.103C287.859 663.741 293.535 655.264 294.542 650.32C295.549 645.376 295.311 638.895 291.777 634.958C290.974 634.005 289.98 633.233 288.859 632.689C287.738 632.146 286.515 631.845 285.27 631.805C284.025 631.766 282.785 631.988 281.632 632.459C280.479 632.929 279.437 633.637 278.575 634.537C273.54 640.03 276.598 653.268 279.93 659.072C280.15 659.438 283.006 663.32 284.636 665.426C282.292 664.4 279.949 663.357 277.55 662.386C270.592 659.585 263.47 656.893 256.384 654.312C254.205 653.506 252.044 652.664 249.884 651.84C250.488 651.016 257.519 641.073 258.581 635.544C259.533 630.637 259.368 624.118 255.816 620.182C255.013 619.229 254.019 618.456 252.898 617.913C251.777 617.37 250.554 617.069 249.309 617.029C248.064 616.99 246.825 617.212 245.671 617.683C244.518 618.153 243.476 618.861 242.615 619.761C237.579 625.254 240.637 638.492 243.988 644.296C244.226 644.735 248.364 650.32 249.481 651.62C244.72 649.789 239.996 647.958 235.4 645.926C229.197 643.239 223.178 640.144 217.383 636.661C217.658 636.276 225.055 625.931 226.136 620.273C227.069 615.366 226.905 608.848 223.371 604.911C222.568 603.959 221.574 603.186 220.453 602.643C219.332 602.1 218.109 601.798 216.864 601.759C215.619 601.719 214.379 601.942 213.226 602.412C212.073 602.883 211.031 603.591 210.169 604.49C205.134 609.983 208.192 623.221 211.524 629.025C211.744 629.41 214.893 633.676 216.45 635.672L216.157 635.983C210.413 632.329 205.009 628.169 200.007 623.551C197.206 621.042 194.679 618.497 192.281 615.952C193.855 614.121 200.959 605.937 202.516 600.938C204.072 595.939 204.53 589.659 201.454 585.375C200.756 584.342 199.848 583.468 198.791 582.809C197.734 582.149 196.549 581.72 195.315 581.547C194.081 581.374 192.824 581.463 191.627 581.807C190.429 582.151 189.317 582.742 188.362 583.544C182.759 588.524 184.352 601.963 187.026 608.097C187.172 608.427 189.04 611.649 190.431 613.975C189.369 612.821 188.252 611.649 187.245 610.514C183.583 606.266 180.306 602.146 177.523 598.466C175.948 596.36 174.575 594.438 173.293 592.625C173.934 590.062 176.351 579.717 175.435 574.682C174.52 569.646 172.03 563.696 167.306 561.352C166.215 560.752 165.011 560.389 163.771 560.286C162.531 560.183 161.283 560.342 160.108 560.753C158.933 561.164 157.859 561.818 156.954 562.672C156.049 563.526 155.333 564.561 154.855 565.71C152.163 572.704 159.762 583.891 164.962 588.103C165.42 588.469 173.11 593.339 173.147 593.211C173.15 593.156 173.15 593.101 173.147 593.046C174.337 594.877 175.637 596.708 177.083 598.759C179.793 602.421 182.906 606.706 186.586 611.045C190.506 615.768 194.693 620.261 199.128 624.503C204.082 629.238 209.443 633.527 215.15 637.32L215.369 637.448C213.264 636.844 207.295 635.361 206.819 635.306C200.172 634.427 186.842 636.642 183.62 643.417C183.118 644.562 182.863 645.799 182.871 647.049C182.88 648.299 183.153 649.533 183.671 650.67C184.19 651.807 184.943 652.822 185.88 653.648C186.818 654.475 187.92 655.094 189.113 655.465C194.112 657.259 200.19 654.934 204.365 652.169Z" fill="#9C9C9C"/>
<path d="M546.925 187.682C550.844 194.237 564.961 203.849 564.979 203.849C564.997 203.849 568.494 192.625 568.641 191.875C570.142 183.324 568.018 165.893 559.486 161.352C558.036 160.637 556.452 160.235 554.836 160.172C553.221 160.11 551.61 160.388 550.109 160.989C548.608 161.59 547.251 162.5 546.125 163.661C544.999 164.821 544.13 166.206 543.575 167.724C540.92 174.096 543.593 182.116 546.925 187.682Z" fill="#9C9C9C"/>
<path d="M685.368 291.206C685.368 291.371 694.523 283.772 695.017 283.223C701.004 276.906 708.841 261.251 704.172 252.664C703.357 251.267 702.257 250.057 700.944 249.114C699.63 248.17 698.133 247.514 696.549 247.187C694.965 246.861 693.33 246.872 691.751 247.219C690.171 247.566 688.682 248.242 687.382 249.203C681.724 253.103 679.545 261.269 679.234 267.751C678.886 275.368 685.368 291.188 685.368 291.206Z" fill="#9C9C9C"/>
<path d="M522.958 231.388C528.25 236.46 543.228 241.733 544.418 242.136C541.396 250.697 538.95 259.45 537.094 268.337C535.977 273.501 535.006 278.756 534.109 284.029C534.109 281.557 534.109 279.342 534.109 279.03C533.304 270.388 526.657 254.129 517.154 252.023C515.566 251.714 513.931 251.743 512.354 252.108C510.778 252.473 509.297 253.166 508.006 254.143C506.716 255.119 505.645 256.356 504.865 257.773C504.085 259.19 503.611 260.756 503.477 262.368C502.671 269.198 507.395 276.229 512.082 280.678C516.77 285.128 529.513 289.998 532.882 291.207C532.553 293.221 532.205 295.253 531.894 297.267C530.374 306.99 528.909 316.694 527.17 326.179C526.566 329.511 525.833 332.788 525.119 336.066C525.119 333.869 525.119 332.019 525.119 331.745C524.313 323.084 517.667 306.843 508.164 304.719C506.576 304.413 504.941 304.445 503.366 304.812C501.79 305.18 500.31 305.875 499.022 306.853C497.733 307.83 496.665 309.069 495.887 310.487C495.108 311.905 494.638 313.471 494.505 315.083C493.699 321.894 498.405 328.925 503.092 333.393C507.78 337.86 519.296 342.218 523.233 343.683C522.409 347.015 521.585 350.348 520.633 353.534C519.919 355.694 519.406 357.818 518.582 359.96L516.275 366.277C514.682 370.232 513.053 374.334 511.387 378.179C510.251 380.834 509.116 383.361 507.981 385.906C508.622 382.592 509.812 376.073 509.812 375.524C510.325 366.845 506.15 349.78 497.141 346.228C495.618 345.682 493.996 345.463 492.382 345.586C490.767 345.709 489.197 346.171 487.774 346.941C486.35 347.712 485.105 348.774 484.119 350.058C483.134 351.342 482.43 352.82 482.054 354.394C480.223 361.004 483.885 368.676 487.767 373.821C492.125 379.497 505.546 386.748 507.23 387.645C505.399 391.838 503.458 395.921 501.627 399.73C496.317 410.844 491.41 420.182 487.529 427.341L492.82 431.113C496.665 423.789 501.572 413.883 506.846 402.165C508.787 397.899 510.782 393.303 512.778 388.561C517.542 389.737 522.372 390.624 527.243 391.216C528.158 398.539 534.878 411.064 535.757 412.675C531.857 415.147 528.049 417.509 524.405 419.669C514.06 425.895 504.96 430.912 497.837 434.702L503.605 438.821C510.288 435.05 518.381 430.289 527.408 424.595C531.381 422.104 535.574 419.358 539.84 416.502C541.104 417.893 551.54 429.062 558.15 431.845C564.138 434.354 572.45 435.91 578.401 432.45C579.829 431.689 581.08 430.636 582.072 429.36C583.065 428.083 583.778 426.611 584.163 425.04C584.548 423.47 584.598 421.835 584.309 420.244C584.019 418.653 583.398 417.14 582.484 415.806C576.771 407.914 559.231 408.262 550.954 410.954C550.478 411.118 545.37 413.425 542.184 414.945C543.923 413.773 545.626 412.638 547.402 411.411C550.936 408.994 554.397 406.486 558.114 403.813L563.424 399.693C565.254 398.338 566.957 396.709 568.752 395.207C572.835 391.655 576.808 387.883 580.708 383.928C582.832 387.004 590.522 397.862 596.07 401.268C601.618 404.673 609.601 407.456 615.991 404.93C617.518 404.394 618.914 403.542 620.09 402.431C621.265 401.319 622.193 399.972 622.813 398.478C623.433 396.984 623.732 395.375 623.689 393.758C623.646 392.141 623.263 390.551 622.565 389.092C618.115 380.431 600.703 378.106 592.134 379.515C591.603 379.607 585.56 381.346 582.264 382.299C584.59 379.937 586.933 377.575 589.204 375.084C595.795 367.944 602.241 360.436 608.686 353.112C610.663 350.842 612.677 348.608 614.655 346.374C615.405 347.473 624.249 360.565 630.475 364.391C635.968 367.779 644.006 370.58 650.414 368.053C651.939 367.516 653.333 366.663 654.507 365.55C655.68 364.438 656.606 363.091 657.225 361.597C657.843 360.103 658.14 358.495 658.096 356.879C658.052 355.262 657.668 353.673 656.969 352.215C652.52 343.555 635.107 341.229 626.538 342.639C625.897 342.731 617.2 345.203 615.021 345.935C619.415 340.991 623.828 336.103 628.387 331.452C634.499 325.153 641.013 319.257 647.887 313.801C648.235 314.314 657.409 328.028 663.78 331.946C669.273 335.334 677.311 338.117 683.72 335.608C685.245 335.07 686.639 334.217 687.813 333.105C688.986 331.992 689.912 330.645 690.53 329.151C691.149 327.657 691.446 326.05 691.402 324.434C691.358 322.817 690.974 321.228 690.275 319.77C685.826 311.109 668.413 308.784 659.844 310.212C659.276 310.212 652.666 312.171 649.535 313.124L649.279 312.629C656.352 307.326 663.882 302.663 671.782 298.695C676.103 296.461 680.351 294.576 684.599 292.818C686.045 295.546 692.802 307.942 698.148 312.098C703.495 316.255 710.965 319.733 717.557 317.939C719.131 317.572 720.61 316.878 721.898 315.902C723.186 314.926 724.254 313.689 725.033 312.273C725.812 310.857 726.284 309.293 726.419 307.682C726.553 306.072 726.348 304.451 725.815 302.925C722.336 293.77 705.307 289.595 696.628 290.108C696.152 290.108 691.373 290.932 687.913 291.536C689.744 290.785 691.758 289.961 693.589 289.266C700.474 286.647 706.919 284.67 712.668 282.967C715.927 282.015 718.912 281.136 721.695 280.514C724.515 282.454 735.958 290.126 742.513 291.316C749.068 292.507 757.363 292.214 762.416 287.563C763.645 286.511 764.638 285.213 765.332 283.752C766.025 282.291 766.403 280.7 766.441 279.084C766.479 277.467 766.176 275.86 765.552 274.368C764.928 272.877 763.997 271.533 762.819 270.425C755.495 263.961 738.485 268.063 730.996 272.457C730.337 272.842 720.907 279.964 721.054 280.074L721.219 280.184C718.527 280.806 715.634 281.521 712.485 282.345C706.717 283.937 700.181 285.787 693.223 288.259C685.692 290.882 678.319 293.939 671.141 297.414C663.085 301.244 655.384 305.778 648.125 310.963L647.887 311.164C649.572 308.876 654.113 302.321 654.406 301.771C658.507 294.1 661.931 276.888 655.175 269.875C654.017 268.747 652.635 267.874 651.118 267.313C649.602 266.752 647.984 266.516 646.371 266.619C644.757 266.723 643.183 267.164 641.751 267.914C640.318 268.664 639.059 269.707 638.055 270.974C633.624 276.229 633.679 284.688 635.107 291.023C636.718 298.164 646.294 310.816 647.063 311.824C639.815 317.292 632.94 323.237 626.483 329.621C622.693 333.283 619.013 337.165 615.351 341.065C616.76 339.032 617.987 337.201 618.134 336.926C622.235 329.273 625.659 312.043 618.903 305.049C617.749 303.915 616.369 303.038 614.854 302.474C613.338 301.91 611.72 301.672 610.106 301.776C608.492 301.879 606.919 302.322 605.487 303.076C604.056 303.829 602.8 304.876 601.801 306.147C597.352 311.384 597.407 319.843 598.835 326.179C600.263 332.514 608.246 343.573 610.389 346.429L606.214 350.952C599.586 358.276 593.012 365.508 586.329 372.448C583.986 374.901 581.569 377.227 579.17 379.57C580.415 377.739 581.459 376.238 581.587 375.908C585.688 368.255 589.112 351.025 582.356 344.031C581.201 342.898 579.82 342.022 578.304 341.458C576.788 340.894 575.17 340.655 573.555 340.757C571.941 340.859 570.366 341.299 568.933 342.049C567.499 342.799 566.24 343.842 565.236 345.111C560.805 350.366 560.86 358.825 562.288 365.16C563.716 371.496 570.912 381.475 573.457 384.899C570.931 387.206 568.404 389.531 565.84 391.673C564.009 393.083 562.453 394.566 560.585 395.903L555.184 399.894C551.669 402.33 548.043 404.838 544.546 407.127C542.111 408.72 539.785 410.203 537.423 411.704C539.804 409.287 544.345 404.472 544.747 404.032C549.102 397.743 551.775 390.444 552.511 382.83C553.028 382.153 553.482 381.429 553.866 380.669C554.633 379.245 555.093 377.675 555.214 376.062C555.336 374.449 555.117 372.828 554.571 371.305C554.025 369.782 553.165 368.391 552.047 367.222C550.929 366.053 549.577 365.132 548.08 364.52C538.925 361.096 524.515 371.056 519.113 377.868C518.784 378.27 515.818 383.013 513.987 386.034C514.792 384.093 515.598 382.225 516.403 380.211C518.015 376.256 519.516 372.265 521.127 367.962C521.842 365.856 522.574 363.732 523.288 361.59C524.002 359.448 524.588 357.159 525.266 354.925C526.712 349.689 527.92 344.342 529.019 338.904C532.48 340.314 544.875 345.129 551.394 344.91C557.912 344.69 566.042 342.603 570.052 336.981C571.027 335.691 571.719 334.21 572.083 332.634C572.448 331.059 572.476 329.424 572.167 327.837C571.858 326.249 571.218 324.745 570.289 323.421C569.36 322.098 568.162 320.985 566.774 320.155C558.297 315.376 542.495 323.048 536.123 328.943C535.721 329.328 531.619 334.07 529.422 336.725C530.044 333.466 530.704 330.207 531.253 326.874C532.791 317.262 534.054 307.502 535.373 297.761C535.757 294.777 536.197 291.811 536.618 288.845C537.844 289.357 552.456 295.399 559.762 295.143C566.243 294.923 574.409 292.836 578.401 287.215C579.377 285.926 580.07 284.446 580.436 282.871C580.802 281.296 580.832 279.662 580.525 278.075C580.217 276.487 579.579 274.983 578.652 273.658C577.724 272.334 576.528 271.22 575.142 270.388C566.646 265.628 550.845 273.281 544.473 279.195C543.997 279.635 538.101 286.519 536.691 288.35C537.625 281.814 538.522 275.295 539.84 268.905C541.483 260.271 543.678 251.752 546.414 243.399C546.981 243.637 562.197 250.027 569.685 249.771C576.167 249.533 584.333 247.464 588.325 241.843C589.301 240.552 589.995 239.071 590.361 237.494C590.727 235.918 590.757 234.283 590.45 232.694C590.142 231.105 589.504 229.599 588.577 228.273C587.649 226.947 586.453 225.831 585.066 224.998C576.57 220.237 560.787 227.891 554.397 233.805C553.976 234.189 549.49 239.408 547.402 241.934L546.926 241.66C549.863 233.34 553.54 225.3 557.912 217.637C560.292 213.389 562.783 209.453 565.236 205.681C567.946 207.164 580.415 213.774 587.208 214.305C593.69 214.781 602.058 213.609 606.617 208.464C607.727 207.288 608.578 205.892 609.113 204.366C609.648 202.841 609.856 201.219 609.723 199.608C609.59 197.996 609.119 196.431 608.341 195.013C607.563 193.596 606.495 192.358 605.207 191.381C597.297 185.705 580.763 191.582 573.769 196.764C573.402 197.038 569.85 200.316 567.305 202.751C568.459 201.067 569.631 199.309 570.784 197.716C575.069 191.747 579.371 186.528 583.198 181.933C585.414 179.351 587.464 177.044 589.387 174.92C592.811 174.92 606.598 175.066 612.714 172.448C618.829 169.83 625.531 164.996 627.252 158.331C627.697 156.774 627.808 155.14 627.579 153.536C627.349 151.932 626.784 150.395 625.92 149.025C625.056 147.654 623.913 146.482 622.565 145.583C621.217 144.685 619.694 144.081 618.097 143.811C608.466 142.42 596.491 155.273 592.665 163.073C592.335 163.751 588.398 174.902 588.563 174.902H588.783C586.952 176.916 584.846 179.095 582.686 181.53C578.749 186.034 574.318 191.179 569.869 197.075C565.016 203.395 560.535 209.992 556.447 216.831C551.844 224.471 547.929 232.504 544.747 240.836L544.637 241.147C544.802 238.291 544.949 230.326 544.894 229.703C544.088 221.043 537.442 204.802 527.939 202.696C526.352 202.39 524.718 202.421 523.144 202.788C521.57 203.154 520.091 203.848 518.803 204.823C517.514 205.799 516.446 207.035 515.667 208.451C514.887 209.867 514.415 211.431 514.28 213.041C513.565 219.871 518.271 226.902 522.958 231.388Z" fill="#9C9C9C"/>
<path d="M633.698 553.699V547.565C633.698 515.98 673.687 514.607 673.687 492.122C673.687 482.363 665.74 475.991 653.912 475.991C640.967 475.991 632.782 483.041 632.782 493.038V495.546C632.782 498.036 631.427 499.208 628.919 499.208L604.622 498.293C602.351 498.293 600.758 497.158 600.758 495.583V493.074C600.758 465.609 622.565 446.732 654.608 446.732C685.955 446.732 706.169 464.456 706.169 491.024C706.169 528.742 665.502 528.98 665.502 549.616V553.699C665.564 554.221 665.507 554.75 665.334 555.247C665.162 555.744 664.879 556.195 664.507 556.567C664.136 556.939 663.684 557.222 663.187 557.394C662.691 557.566 662.161 557.624 661.639 557.562H637.561C637.039 557.624 636.51 557.566 636.013 557.394C635.516 557.222 635.065 556.939 634.693 556.567C634.321 556.195 634.038 555.744 633.866 555.247C633.694 554.75 633.636 554.221 633.698 553.699V553.699ZM631.647 590.319C631.647 580.321 640.509 572.137 651.184 572.137C661.419 572.137 670.501 580.321 670.501 590.319C670.501 600.316 661.346 608.5 650.964 608.5C640.582 608.5 631.647 600.279 631.647 590.282V590.319Z" fill="#263238"/>
<path d="M153.61 293.514V288.186C153.61 260.721 188.399 259.567 188.399 240.031C188.399 231.535 181.496 226.024 171.243 226.024C159.982 226.024 152.933 232.139 152.933 240.818V242.997C152.933 245.158 151.761 246.146 149.582 246.146L128.471 245.359C126.493 245.359 125.12 244.37 125.12 242.997V240.818C125.12 217.015 144.052 200.536 171.884 200.536C199.111 200.536 216.688 215.935 216.688 238.987C216.688 271.744 181.35 271.945 181.35 289.907V293.459C181.403 293.912 181.352 294.371 181.203 294.801C181.053 295.232 180.808 295.623 180.485 295.945C180.163 296.268 179.772 296.513 179.341 296.663C178.911 296.812 178.452 296.863 177.999 296.81H156.961C156.513 296.861 156.06 296.812 155.634 296.665C155.208 296.518 154.82 296.278 154.499 295.962C154.177 295.646 153.931 295.262 153.777 294.839C153.623 294.415 153.566 293.963 153.61 293.514V293.514ZM151.779 325.282C151.779 316.603 159.469 309.499 168.734 309.499C177.615 309.499 185.525 316.603 185.525 325.282C185.525 333.961 177.615 341.065 168.551 341.065C164.246 341.174 160.072 339.575 156.94 336.619C153.808 333.662 151.973 329.587 151.834 325.282H151.779Z" fill="#2D9CDB"/>
<path d="M595.539 83.4069V80.7154C595.539 66.8547 613.08 66.2505 613.08 56.3814C613.08 52.0969 609.583 49.2955 604.401 49.2955C598.725 49.2955 595.136 52.3899 595.136 56.7843V57.8829C595.136 58.9815 594.532 59.4758 593.434 59.4758L582.777 59.073C581.77 59.073 581.074 58.5786 581.074 57.8829V56.7843C581.074 44.718 590.651 36.4419 604.713 36.4419C618.463 36.4419 627.344 44.2236 627.344 55.8871C627.344 72.366 609.492 72.5308 609.492 81.521V83.352C609.518 83.5813 609.493 83.8138 609.416 84.0317C609.34 84.2496 609.215 84.4472 609.051 84.6096C608.887 84.7719 608.688 84.8948 608.469 84.9688C608.25 85.0427 608.018 85.0659 607.789 85.0365H597.224C597.001 85.065 596.774 85.0428 596.56 84.9718C596.347 84.9008 596.152 84.7827 595.99 84.6262C595.829 84.4698 595.704 84.279 595.626 84.0679C595.548 83.8569 595.518 83.631 595.539 83.4069V83.4069ZM594.642 99.4648C594.525 97.7527 594.925 96.0449 595.791 94.5634C596.657 93.0819 597.949 91.8953 599.498 91.1579C601.048 90.4204 602.784 90.1663 604.479 90.4285C606.175 90.6908 607.753 91.4572 609.008 92.6282C610.262 93.7992 611.135 95.3206 611.513 96.9945C611.892 98.6684 611.757 100.417 611.128 102.014C610.499 103.611 609.404 104.981 607.985 105.947C606.567 106.913 604.891 107.429 603.175 107.43C602.091 107.469 601.01 107.294 599.994 106.914C598.978 106.535 598.048 105.959 597.255 105.219C596.462 104.479 595.823 103.589 595.375 102.602C594.927 101.615 594.678 100.549 594.642 99.4648Z" fill="#2D9CDB"/>
<path d="M81.3407 453.709V450.322C81.3407 432.854 103.459 432.103 103.459 419.653C103.459 414.251 99.0648 410.736 92.4732 410.736C85.314 410.736 80.7914 414.636 80.7914 420.165V421.538C80.7914 422.93 80.0407 423.553 78.6492 423.553L65.2096 423.058C63.9463 423.058 63.0674 422.417 63.0674 421.538V420.165C63.0674 404.968 75.1336 394.531 92.8577 394.531C110.197 394.531 121.366 404.327 121.366 419.03C121.366 439.885 98.8817 440.013 98.8817 451.457V453.709C98.9172 453.999 98.8863 454.293 98.7912 454.569C98.6961 454.845 98.5393 455.096 98.3329 455.303C98.1264 455.509 97.8756 455.666 97.5995 455.761C97.3234 455.856 97.0292 455.887 96.7394 455.851H83.4464C83.1594 455.881 82.8694 455.845 82.598 455.748C82.3266 455.65 82.0806 455.492 81.8784 455.287C81.6761 455.081 81.5228 454.832 81.4297 454.559C81.3366 454.286 81.3062 453.995 81.3407 453.709V453.709ZM80.2055 473.942C80.0621 471.784 80.5715 469.634 81.6673 467.77C82.7631 465.907 84.3946 464.416 86.3494 463.493C88.3042 462.569 90.4917 462.256 92.6271 462.593C94.7626 462.93 96.7471 463.903 98.3223 465.383C99.8974 466.864 100.99 468.785 101.459 470.895C101.927 473.006 101.749 475.209 100.948 477.217C100.147 479.225 98.7601 480.945 96.9676 482.154C95.1752 483.363 93.0604 484.004 90.8985 483.994C88.1429 484.083 85.4648 483.074 83.4529 481.189C81.4409 479.304 80.2597 476.697 80.1689 473.942H80.2055Z" stroke="#263238" stroke-width="2.02754" stroke-miterlimit="10"/>
<path d="M249.792 137.642V135.317C249.792 123.305 265.008 122.774 265.008 114.224C265.008 110.562 261.987 108.09 257.483 108.09C252.557 108.09 249.445 110.763 249.445 114.571V115.524C249.445 116.476 248.932 116.897 247.98 116.897L238.825 116.549C237.964 116.549 237.36 116.128 237.36 115.524V114.571C237.36 104.116 245.654 96.939 257.831 96.939C270.007 96.939 277.257 103.677 277.257 113.784C277.257 128.139 261.785 128.231 261.785 136.086V137.642C261.809 137.84 261.787 138.041 261.722 138.229C261.657 138.418 261.55 138.589 261.409 138.73C261.268 138.871 261.096 138.978 260.908 139.043C260.719 139.109 260.519 139.13 260.321 139.107H251.166C250.975 139.116 250.785 139.084 250.608 139.012C250.431 138.94 250.271 138.831 250.141 138.692C250.01 138.552 249.911 138.386 249.851 138.205C249.791 138.024 249.771 137.832 249.792 137.642V137.642ZM249.023 151.558C248.943 150.095 249.303 148.641 250.057 147.385C250.811 146.129 251.925 145.127 253.254 144.511C254.583 143.894 256.067 143.691 257.513 143.926C258.959 144.161 260.302 144.825 261.367 145.832C262.432 146.838 263.17 148.141 263.487 149.571C263.804 151.002 263.684 152.495 263.144 153.856C262.603 155.218 261.667 156.387 260.455 157.211C259.244 158.035 257.813 158.477 256.347 158.479C254.456 158.543 252.617 157.854 251.233 156.563C249.85 155.272 249.035 153.485 248.968 151.594L249.023 151.558Z" fill="#263238"/>
<path d="M520.779 639.609V637.284C520.779 625.273 535.995 624.76 535.995 616.191C535.995 612.529 532.974 610.057 528.47 610.057C523.544 610.057 520.432 612.73 520.432 616.539V617.491C520.432 618.443 519.919 618.882 518.967 618.882L509.812 618.535C508.951 618.535 508.347 618.095 508.347 617.491V616.539C508.347 606.084 516.641 598.906 528.818 598.906C540.994 598.906 548.446 605.644 548.446 615.77C548.446 630.106 532.974 630.198 532.974 638.053V639.609C532.997 639.808 532.975 640.009 532.91 640.199C532.844 640.388 532.738 640.56 532.597 640.702C532.456 640.844 532.286 640.953 532.097 641.021C531.909 641.089 531.708 641.113 531.509 641.092H522.354C522.147 641.132 521.933 641.121 521.731 641.062C521.528 641.003 521.342 640.897 521.189 640.752C521.035 640.608 520.918 640.429 520.847 640.23C520.776 640.031 520.753 639.819 520.779 639.609V639.609ZM520.01 653.525C519.93 652.062 520.29 650.608 521.044 649.352C521.798 648.096 522.912 647.095 524.241 646.478C525.57 645.862 527.054 645.658 528.5 645.893C529.946 646.129 531.289 646.793 532.354 647.799C533.419 648.805 534.157 650.108 534.474 651.539C534.791 652.969 534.671 654.462 534.131 655.824C533.59 657.186 532.654 658.354 531.442 659.178C530.23 660.002 528.8 660.444 527.334 660.446C525.45 660.49 523.624 659.788 522.255 658.491C520.887 657.194 520.086 655.409 520.029 653.525H520.01Z" stroke="#263238" stroke-width="2.02754" stroke-miterlimit="10"/>
<path d="M449.096 681.282C448.968 680.897 448.84 680.513 448.693 680.128C448.547 679.744 448.437 679.341 448.29 678.957C448.144 678.572 448.034 678.188 447.888 677.803C447.741 677.419 447.631 677.016 447.485 676.631C447.338 676.247 447.229 675.862 447.082 675.478C446.936 675.093 446.826 674.69 446.679 674.306L446.276 673.152C446.148 672.75 446.002 672.365 445.874 671.981L445.471 670.827C445.343 670.424 445.196 670.04 445.068 669.655L444.665 668.502C444.537 668.099 444.39 667.714 444.262 667.33L443.878 666.103C443.75 665.7 443.603 665.316 443.475 664.931L443.054 663.778C442.926 663.375 442.797 662.99 442.651 662.606C442.505 662.221 442.395 661.837 442.248 661.452C442.102 661.068 441.992 660.665 441.845 660.28C441.699 659.896 441.589 659.511 441.443 659.127C435.474 640.963 417.017 627.634 396.711 627.634C377.028 627.634 359.908 639.096 352.767 655.245C352.584 655.611 352.42 655.996 352.255 656.362L351.76 657.497C351.577 657.864 351.413 658.23 351.248 658.614C351.083 658.999 350.9 659.365 350.735 659.731L350.241 660.848C350.058 661.233 349.893 661.599 349.728 661.983C349.563 662.368 349.38 662.716 349.215 663.1C349.051 663.485 348.867 663.833 348.703 664.217L348.208 665.334C348.025 665.7 347.86 666.085 347.696 666.451C347.531 666.817 347.348 667.202 347.183 667.568L346.689 668.703C346.505 669.069 346.341 669.435 346.176 669.82C346.011 670.204 345.828 670.571 345.663 670.937L345.169 672.054C344.986 672.438 344.821 672.804 344.656 673.189C344.491 673.573 344.308 673.921 344.143 674.306L343.649 675.423C343.466 675.789 343.301 676.174 343.136 676.54C342.972 676.906 342.788 677.29 342.624 677.675C339.482 684.365 337.869 691.67 337.9 699.061C337.9 728.54 363.351 752.636 394.825 752.636C425.623 752.636 452.41 728.54 452.41 699.061C452.404 693.441 451.419 687.864 449.499 682.582C449.371 682.051 449.243 681.667 449.096 681.282Z" fill="#263238"/>
<path d="M405.536 275.734C311.112 275.734 246.826 331.305 246.826 412.345V419.669C246.843 420.879 247.172 422.065 247.781 423.11C248.391 424.156 249.26 425.027 250.305 425.638C250.7 426.018 251.129 426.361 251.586 426.663C251.983 427.049 252.419 427.393 252.886 427.689C253.283 428.074 253.719 428.418 254.186 428.714C254.579 429.104 255.016 429.448 255.486 429.739C255.877 430.125 256.306 430.469 256.768 430.765C257.164 431.156 257.6 431.506 258.068 431.808C258.469 432.189 258.905 432.532 259.368 432.834C259.766 433.218 260.201 433.562 260.668 433.859C261.059 434.244 261.489 434.587 261.95 434.885C262.38 435.299 262.852 435.667 263.36 435.983C263.733 436.323 264.131 436.635 264.55 436.917C264.951 437.297 265.386 437.641 265.85 437.942C266.245 438.322 266.674 438.666 267.131 438.968C267.533 439.348 267.968 439.691 268.431 439.993C268.829 440.378 269.265 440.721 269.731 441.018C270.123 441.403 270.552 441.746 271.013 442.044C271.411 442.428 271.846 442.772 272.313 443.069C272.704 443.454 273.134 443.797 273.595 444.094C273.996 444.475 274.431 444.818 274.895 445.12C275.286 445.504 275.716 445.848 276.177 446.145C278.292 448.007 281.053 448.966 283.867 448.818L342.752 451.016C348.812 451.016 352.108 448.269 352.108 442.209V436.166C352.108 411.942 371.919 394.896 403.376 394.896C431.994 394.896 451.256 410.294 451.256 433.969C451.257 436.667 450.999 439.358 450.487 442.007C420.935 480.751 344.015 497.834 344.015 573.033V591.123C344.015 598.447 348.025 602.494 355.404 602.494H426.3C433.624 602.494 437.689 598.484 437.689 591.123V579.057C437.689 518.122 557.564 517.444 557.564 406.284C557.564 327.954 497.947 275.734 405.536 275.734Z" fill="#263238"/>
<path d="M343.924 591.161V573.071C343.924 479.983 461.785 476.028 461.785 409.672C461.785 380.871 438.348 362.067 403.523 362.067C365.346 362.067 341.269 382.83 341.269 412.291V419.615C341.269 426.939 337.241 430.344 329.88 430.344L258.215 427.653C251.532 427.653 246.844 424.302 246.844 419.615V412.291C246.844 331.251 311.131 275.68 405.555 275.68C497.965 275.68 557.528 327.9 557.528 406.267C557.528 517.427 437.652 518.104 437.652 579.04V591.106C437.652 598.43 433.624 602.476 426.264 602.476H355.313C347.934 602.531 343.924 598.521 343.924 591.161ZM337.9 699.061C337.9 669.601 364.01 645.486 395.485 645.486C425.623 645.486 452.41 669.601 452.41 699.061C452.41 728.522 425.568 752.545 394.825 752.545C363.314 752.545 337.9 728.449 337.9 699.061Z" fill="#2D9CDB" stroke="#2D9CDB" stroke-width="2.02754" stroke-miterlimit="10"/>
<path d="M391.895 812.582C447.119 812.582 491.886 802.573 491.886 790.226C491.886 777.879 447.119 767.869 391.895 767.869C336.672 767.869 291.905 777.879 291.905 790.226C291.905 802.573 336.672 812.582 391.895 812.582Z" fill="#263238"/>
<path d="M315.47 283.15L311.643 291.499C311.643 291.499 289.415 293.898 289.415 295.564C289.415 297.23 289.653 308.711 290.861 309.187C291.78 309.544 292.799 309.544 293.718 309.187L326.456 300.819L329.569 286.006L315.47 283.15Z" fill="white" stroke="#263238" stroke-width="2.02754" stroke-linecap="round" stroke-linejoin="round"/>
<path d="M309.244 298.072C305.179 301.403 300.794 304.322 296.153 306.788C290.861 309.168 290.66 312.775 292.344 312.775C294.029 312.775 308.97 306.513 308.97 306.513C308.97 306.513 322.537 302.961 324.497 301.881C326.456 300.801 326.676 294.795 326.676 294.795" fill="white"/>
<path d="M309.244 298.072C305.179 301.403 300.794 304.322 296.153 306.788C290.861 309.168 290.66 312.775 292.344 312.775C294.029 312.775 308.97 306.513 308.97 306.513C308.97 306.513 322.537 302.961 324.497 301.881C326.456 300.801 326.676 294.795 326.676 294.795" stroke="#263238" stroke-width="2.02754" stroke-linecap="round" stroke-linejoin="round"/>
<path d="M335.025 122.719L321.366 227.415L311.863 284.103L332.956 289.083L348.685 222.032L356.137 179.828L335.025 122.719Z" fill="#7D7D7D" stroke="#263238" stroke-width="2.02754" stroke-linecap="round" stroke-linejoin="round"/>
<path d="M445.251 46.9165L436.92 45.5982L419.855 39.1348L419.232 59.4039L445.69 61.8391L445.251 46.9165Z" fill="white" stroke="#263238" stroke-width="2.02754" stroke-linecap="round" stroke-linejoin="round"/>
<path d="M347.86 418.187C341.651 425.427 335.85 433.007 330.484 440.892C323.435 451.658 325.925 463.23 334.622 466.141C343.319 469.052 354.47 461.161 357.381 454.954C360.293 448.747 359.45 445.451 363.991 439.244C368.532 433.037 372.267 426.83 370.62 418.553C368.972 410.277 352.328 412.401 347.86 418.187Z" fill="#7D7D7D" stroke="#263238" stroke-width="2.02754" stroke-linecap="round" stroke-linejoin="round"/>
<path d="M356.539 456.51C355.953 455.265 355.275 453.946 354.47 452.536C347.823 440.836 336.16 441.77 328.836 443.949C324.02 453.781 326.767 463.559 334.658 466.196C342.55 468.832 352.73 462.387 356.539 456.51Z" fill="white" stroke="#263238" stroke-width="2.02754" stroke-linecap="round" stroke-linejoin="round"/>
<path d="M354.47 452.537C351.998 456.199 348.684 466.196 335.849 462.058C332.269 461.139 329.068 459.122 326.694 456.29C326.971 458.523 327.867 460.634 329.281 462.385C330.695 464.135 332.57 465.455 334.695 466.196C343.374 469.089 354.543 461.216 357.454 455.009C360.366 448.802 359.523 445.506 364.064 439.299C368.605 433.092 372.34 426.884 370.692 418.608C370.692 428.532 367.03 430.18 362.416 435.563C357.802 440.947 356.96 448.802 354.47 452.537Z" fill="white" stroke="#263238" stroke-width="2.02754" stroke-linecap="round" stroke-linejoin="round"/>
<path d="M469.969 418.187C476.178 425.427 481.979 433.007 487.345 440.892C494.394 451.658 491.904 463.23 483.207 466.141C474.51 469.052 463.359 461.161 460.448 454.954C457.536 448.747 458.379 445.451 453.838 439.244C449.297 433.037 445.562 426.83 447.209 418.553C448.857 410.277 465.428 412.401 469.969 418.187Z" fill="#7D7D7D" stroke="#263238" stroke-width="2.02754" stroke-linecap="round" stroke-linejoin="round"/>
<path d="M461.309 456.51C461.877 455.265 462.554 453.946 463.36 452.536C470.006 440.836 481.67 441.77 488.994 443.949C493.809 453.781 491.063 463.559 483.171 466.196C475.28 468.832 465.099 462.387 461.309 456.51Z" fill="white" stroke="#263238" stroke-width="2.02754" stroke-linecap="round" stroke-linejoin="round"/>
<path d="M463.359 452.537C465.831 456.199 469.145 466.196 481.98 462.058C485.56 461.139 488.761 459.122 491.135 456.29C490.858 458.523 489.962 460.634 488.548 462.385C487.134 464.135 485.259 465.455 483.134 466.196C474.455 469.089 463.286 461.216 460.375 455.009C457.463 448.802 458.306 445.506 453.765 439.299C449.224 433.092 445.489 426.884 447.136 418.608C447.136 428.532 450.798 430.18 455.413 435.563C460.027 440.947 460.869 448.802 463.359 452.537Z" fill="white" stroke="#263238" stroke-width="2.02754" stroke-linecap="round" stroke-linejoin="round"/>
<path d="M489.378 275.423C489.378 267.971 476.561 259.695 476.561 259.695C457.244 240.048 422.382 242.648 409.51 244.406C396.693 242.575 361.794 240.048 342.477 259.695C342.477 259.695 329.66 267.971 329.66 275.423C329.66 282.875 345.809 417.362 345.809 417.362C345.809 417.362 345.388 424.393 356.978 425.217C368.569 426.041 373.457 419.431 373.457 419.431L378.017 305.634C378.017 305.634 396.638 292.378 399.988 291.975C401.197 291.81 402.772 291.554 404.529 291.334V291.554C407.808 290.87 411.193 290.87 414.472 291.554V291.334C416.303 291.554 417.786 291.81 419.013 291.975C422.327 292.378 440.985 305.634 440.985 305.634L445.544 419.431C445.544 419.431 450.506 426.041 462.023 425.217C473.54 424.393 473.192 417.362 473.192 417.362C473.192 417.362 489.378 282.875 489.378 275.423Z" fill="#263238" stroke="#263238" stroke-width="2.02754" stroke-linecap="round" stroke-linejoin="round"/>
<path d="M440.967 305.634C440.967 305.634 438.476 278.316 450.488 267.971" stroke="#707070" stroke-width="2.02754" stroke-linecap="round" stroke-linejoin="round"/>
<path d="M378.072 305.636C378.072 305.636 379.317 282.877 376.827 274.601C374.336 266.325 370.198 263.011 370.198 263.011" stroke="#707070" stroke-width="2.02754" stroke-linecap="round" stroke-linejoin="round"/>
<path d="M393.378 251.42C393.378 251.42 406.616 266.728 409.107 279.563" stroke="#707070" stroke-width="2.02754" stroke-linecap="round" stroke-linejoin="round"/>
<path d="M422.346 252.299C422.346 252.299 414.893 260.575 414.069 266.782" stroke="#707070" stroke-width="2.02754" stroke-linecap="round" stroke-linejoin="round"/>
<path d="M403.724 91.2808C403.724 91.2808 391.731 89.6146 387.593 93.7526C383.455 97.8907 369.374 113.143 369.374 113.143L376.826 244.737C376.826 244.737 393.8 251.365 408.283 251.365C422.766 251.365 439.318 245.982 443.072 243.089C446.825 240.196 443.493 99.0808 443.493 99.0808C443.493 99.0808 412.751 90.0357 403.724 91.2808Z" fill="#2D9CDB" stroke="#263238" stroke-width="2.02754" stroke-linecap="round" stroke-linejoin="round"/>
<path d="M425.659 94.1736C431.958 93.217 438.312 92.6605 444.683 92.5074C452.959 92.5074 461.162 92.9285 461.162 92.9285L481.852 73.0622L440.215 63.541L443.529 44.517C443.529 44.517 474.143 42.4479 489.451 45.3409C504.758 48.2339 528.762 55.686 530.007 55.686C531.252 55.686 532.9 60.2452 531.655 63.541C530.41 66.8368 491.483 109.902 479.856 121.071C472.25 128.525 465.068 136.398 458.342 144.654L453.032 236.936C453.032 236.936 466.691 244.388 469.181 246.86C471.672 249.332 474.565 259.274 474.565 259.274C474.565 259.274 449.315 248.929 442.687 248.105C436.059 247.281 431.939 246.86 430.694 244.443C429.449 242.026 419.104 131.471 419.104 131.471L419.525 96.2975C419.525 96.2975 419.452 94.1736 425.659 94.1736Z" fill="#7D7D7D" stroke="#263238" stroke-width="2.02754" stroke-linecap="round" stroke-linejoin="round"/>
<path d="M450.488 150.862L428.131 153.755L430.2 162.031L441.388 164.924L452.136 159.962L450.488 150.862Z" stroke="#263238" stroke-width="2.02754" stroke-linecap="round" stroke-linejoin="round"/>
<path d="M463.305 101.204L458.343 144.653L471.178 107.832" stroke="#263238" stroke-width="2.02754" stroke-linecap="round" stroke-linejoin="round"/>
<path d="M481.926 73.0624C481.926 73.0624 492.271 75.1314 507.999 68.9243" stroke="#263238" stroke-width="2.02754" stroke-linecap="round" stroke-linejoin="round"/>
<path d="M492.692 75.955C499.489 76.1442 506.285 75.5917 512.962 74.3071" stroke="#263238" stroke-width="2.02754" stroke-linecap="round" stroke-linejoin="round"/>
<path d="M389.662 90.8604L391.731 121.072C393.617 123.553 396.059 125.556 398.861 126.92C401.663 128.284 404.746 128.972 407.862 128.927C418.207 128.524 419.452 121.072 419.452 121.072V96.2435L389.662 90.8604Z" fill="white" stroke="#263238" stroke-width="2.02754" stroke-linecap="round" stroke-linejoin="round"/>
<path d="M419.855 106.587L419.031 131.452L427.728 117.793C427.728 117.793 437.249 129.786 439.721 129.383C442.193 128.98 438.073 124 437.249 119.459C436.425 114.918 429.376 98.7505 428.552 94.2096C427.728 89.6688 419.855 88.8265 419.397 90.8955C419.167 92.6825 419.167 94.4916 419.397 96.2786L419.855 106.587Z" fill="#7D7D7D" stroke="#263238" stroke-width="2.02754" stroke-linecap="round" stroke-linejoin="round"/>
<path d="M391.309 128.925C391.309 128.925 392.957 244.79 388.819 246.109C384.681 247.427 368.129 247.775 357.692 252.737C347.255 257.699 342.385 259.768 342.385 259.768C342.385 259.768 347.347 247.775 353.151 242.392C357.009 238.925 361.321 235.999 365.968 233.695L355.22 178.252C355.22 178.252 335.354 125.684 334.933 122.791C334.512 119.898 372.596 98.3841 380.451 94.6488C388.306 90.9136 390.394 94.246 390.394 94.246L391.309 128.925Z" fill="#7D7D7D" stroke="#263238" stroke-width="2.02754" stroke-linecap="round" stroke-linejoin="round"/>
<path d="M380.964 88.7902C380.964 88.7902 371.04 120.247 370.198 124.385C369.356 128.523 370.198 128.523 373.109 125.612C376.02 122.7 383.454 115.688 383.454 115.688L391.309 128.926L390.888 104.519V90.4381C390.888 90.4381 390.485 84.6522 380.964 88.7902Z" fill="#7D7D7D" stroke="#263238" stroke-width="2.02754" stroke-linecap="round" stroke-linejoin="round"/>
<path d="M361.519 156.667H385.926L385.523 166.591L374.757 170.307L361.098 166.591L361.519 156.667Z" stroke="#263238" stroke-width="2.02754" stroke-linecap="round" stroke-linejoin="round"/>
<path d="M428.552 47.8316C428.552 47.8316 434.338 73.0627 435.583 77.1275C436.828 81.1923 428.973 97.415 426.428 101.132C425.459 102.744 424.127 104.107 422.537 105.112C420.947 106.116 419.144 106.735 417.273 106.918C414.38 106.918 398.651 101.553 394.916 99.0629C391.181 96.5727 387.482 93.6797 387.482 93.6797C385.722 94.4823 383.766 94.7539 381.853 94.4612C379.941 94.1685 378.156 93.3242 376.716 92.0318C371.754 87.4727 365.126 82.0895 366.774 78.3726C367.577 76.5487 368.92 75.0155 370.623 73.9806C372.326 72.9457 374.306 72.4591 376.295 72.5867C380.854 72.5867 379.206 72.1655 379.206 72.1655C379.206 72.1655 370.93 60.1725 370.93 50.6513C370.93 41.1301 388.709 34.1724 399.054 34.1724C406.207 34.4705 413.234 36.1557 419.744 39.1344L428.552 47.8316Z" fill="white" stroke="#263238" stroke-width="2.02754" stroke-linecap="round" stroke-linejoin="round"/>
<path d="M414.068 57.3335L421.52 71.4139L414.068 76.3759L410.754 72.2378" stroke="#263238" stroke-width="2.02754" stroke-linecap="round" stroke-linejoin="round"/>
<path d="M427.728 70.1689C427.728 70.1689 428.131 73.483 423.169 78.8662" stroke="#263238" stroke-width="2.02754" stroke-linecap="round" stroke-linejoin="round"/>
<path d="M406.214 62.5145C406.214 64.4554 405.372 66.03 404.383 66.03C403.394 66.03 402.552 64.4554 402.552 62.5145C402.552 60.5737 403.394 58.999 404.383 58.999C405.372 58.999 406.214 60.5737 406.214 62.5145Z" fill="#263238"/>
<path d="M419.233 59.4021C420.264 59.4021 421.1 57.8282 421.1 55.8866C421.1 53.9451 420.264 52.3711 419.233 52.3711C418.201 52.3711 417.365 53.9451 417.365 55.8866C417.365 57.8282 418.201 59.4021 419.233 59.4021Z" fill="#263238"/>
<path d="M383.857 26.2986C383.857 26.2986 357.82 35.8198 356.96 47.8311C356.099 59.8424 380.14 76.3763 381.385 78.4453C382.63 80.5144 386.347 75.9552 386.347 75.9552C385.52 74.8434 384.942 73.5658 384.655 72.21C384.367 70.8542 384.376 69.4522 384.681 68.1002C385.926 63.9622 391.309 58.9452 391.309 56.9311C391.309 54.917 385.102 58.579 385.102 52.3719C385.102 46.1649 400.409 42.448 409.509 42.8508C418.609 43.2536 426.483 58.579 433.111 51.1269C439.739 43.6747 430.2 41.624 430.2 41.624C430.2 41.624 443.017 39.9578 443.017 33.3479C443.017 26.738 436.388 22.1605 433.495 22.1605C430.602 22.1605 422.747 27.1408 422.747 21.7577C422.747 16.3746 430.602 13.8844 423.15 5.27873C415.698 -3.32695 406.195 5.27874 406.195 8.59284C406.195 11.9069 403.705 18.0957 402.057 18.0957C400.409 18.0957 395.429 10.6619 389.643 14.7999C387.903 16.1831 386.485 17.9278 385.486 19.9132C384.487 21.8985 383.931 24.0772 383.857 26.2986V26.2986Z" fill="#263238" stroke="#263238" stroke-width="2.02754" stroke-linecap="round" stroke-linejoin="round"/>
<path d="M394.623 58.1756L407.861 53.1953" stroke="#263238" stroke-width="2.02754" stroke-linecap="round" stroke-linejoin="round"/>
<path d="M409.931 47.4105C409.678 46.1115 409.885 44.7649 410.517 43.6021" stroke="#263238" stroke-width="2.02754" stroke-linecap="round" stroke-linejoin="round"/>
<path d="M410.517 43.5647C411.45 41.7337 413.556 39.3718 418.207 37.4492" stroke="white" stroke-width="2.02754" stroke-linecap="round" stroke-linejoin="round"/>
</svg>
