<svg width="540" height="509" viewBox="0 0 540 509" fill="none" xmlns="http://www.w3.org/2000/svg">
<path opacity="0.2" d="M316.607 429.704L314.375 429.462C313.342 429.397 312.365 428.966 311.62 428.246C310.875 427.526 310.412 426.564 310.313 425.533C309.101 412.716 298.041 403.706 283.636 402.069C270.673 400.614 255.745 406.337 245.947 416.135C244.728 417.429 243.238 418.438 241.585 419.092C239.931 419.746 238.155 420.028 236.38 419.919L225.345 418.706C223.828 418.583 222.39 417.975 221.244 416.973C220.098 415.971 219.304 414.627 218.979 413.14C216.384 401.935 206.343 393.411 193.368 391.956C178.975 390.343 162.774 396.309 153.194 407.914C152.435 408.851 151.462 409.592 150.356 410.073C149.249 410.554 148.044 410.762 146.84 410.678L144.621 410.424C144.097 410.394 143.577 410.535 143.14 410.826C142.702 411.116 142.371 411.541 142.196 412.037L140.365 417.384C140.215 417.738 140.211 418.137 140.354 418.494C140.498 418.85 140.776 419.136 141.129 419.288L143.651 420.501C144.624 420.989 145.398 421.8 145.84 422.795C146.283 423.79 146.366 424.908 146.076 425.957C142.063 443.31 152.139 458.346 169.953 460.335C187.099 462.263 205.64 451.41 213.874 435.452C214.562 434.162 215.559 433.063 216.776 432.253C217.993 431.442 219.391 430.946 220.846 430.808C224.776 430.479 228.733 430.89 232.512 432.02C233.721 432.378 234.751 433.178 235.396 434.261C236.042 435.345 236.254 436.632 235.992 437.865C233.033 454.454 243.037 468.544 260.244 470.472C278.033 472.473 297.302 460.772 305.05 443.795C305.611 442.641 306.43 441.632 307.443 440.845C308.457 440.059 309.638 439.516 310.895 439.26L314.06 438.641C314.501 438.574 314.915 438.39 315.26 438.109C315.606 437.827 315.87 437.458 316.025 437.041L317.856 431.693C317.943 431.481 317.978 431.25 317.959 431.021C317.939 430.793 317.865 430.572 317.743 430.377C317.621 430.183 317.454 430.02 317.256 429.903C317.059 429.786 316.836 429.718 316.607 429.704V429.704ZM171.469 455.848C154.941 453.993 146.064 439.163 151.679 422.78C157.293 406.398 175.3 394.599 191.828 396.454C208.356 398.31 217.293 413.14 211.63 429.51C205.968 445.881 187.997 457.764 171.469 455.848ZM217.124 426.83C217.354 425.885 217.548 424.939 217.694 424.005C217.782 423.618 218.005 423.276 218.322 423.038C218.64 422.8 219.032 422.683 219.428 422.708L239.217 424.927C239.392 424.943 239.56 425.005 239.704 425.106C239.848 425.207 239.964 425.343 240.039 425.502C240.115 425.661 240.148 425.836 240.136 426.012C240.124 426.187 240.066 426.356 239.969 426.503C239.496 427.388 239.06 428.286 238.648 429.207C230.669 425.254 221.865 425.969 217.124 426.83ZM261.748 465.986C245.22 464.13 236.283 449.3 241.946 432.918C247.609 416.535 265.58 404.737 282.108 406.592C298.636 408.447 307.512 423.277 301.898 439.648C296.283 456.018 278.276 467.841 261.748 465.986V465.986Z" fill="black" fill-opacity="0.7"/>
<path d="M301.959 430.675L173.615 425.278C170.585 425.152 167.563 425.663 164.743 426.779C161.923 427.894 159.369 429.589 157.245 431.754L134.205 455.23C133.993 455.449 133.833 455.714 133.737 456.003C133.641 456.292 133.611 456.6 133.649 456.902C133.687 457.205 133.793 457.495 133.959 457.751C134.124 458.008 134.345 458.223 134.605 458.383V458.383C135.75 459.058 137.088 459.332 138.406 459.161C139.724 458.989 140.947 458.383 141.881 457.437L163.272 435.755C164.543 434.465 166.068 433.452 167.75 432.78C169.432 432.108 171.235 431.792 173.045 431.851L301.583 436.095L301.959 430.675Z" fill="#263238"/>
<path d="M130.906 411.503L257.77 431.609C260.766 432.087 263.628 433.187 266.172 434.839C268.716 436.491 270.885 438.658 272.54 441.2L290.487 468.775C290.655 469.029 290.764 469.318 290.803 469.621C290.843 469.923 290.813 470.23 290.716 470.519C290.619 470.808 290.457 471.071 290.243 471.288C290.029 471.505 289.768 471.67 289.48 471.77V471.77C288.221 472.219 286.847 472.232 285.58 471.805C284.313 471.378 283.227 470.537 282.496 469.418L265.907 443.953C264.918 442.436 263.625 441.141 262.11 440.149C260.594 439.158 258.89 438.492 257.103 438.193L130.3 416.9L130.906 411.503Z" fill="#263238"/>
<path d="M206.162 433.013C207.665 433.571 205.737 444.169 201.578 447.189C197.419 450.208 195.345 440.774 196.812 437.803C198.28 434.832 201.445 431.231 206.162 433.013Z" fill="#757575" stroke="#263238" stroke-width="2.02754" stroke-linecap="round" stroke-linejoin="round"/>
<path d="M228.376 435.5C226.788 435.718 226.327 446.474 229.71 450.342C233.093 454.211 237.216 445.492 236.44 442.254C235.664 439.016 233.372 434.809 228.376 435.5Z" fill="#757575" stroke="#263238" stroke-width="2.02754" stroke-linecap="round" stroke-linejoin="round"/>
<path opacity="0.4" d="M154.153 398.201C161.756 393.702 177.459 386.523 191.186 398.383C204.913 410.242 208.466 421.119 202.949 434.082C197.431 447.045 184.602 463.367 162.411 456.236C140.22 449.106 130.531 412.17 154.153 398.201Z" fill="white"/>
<path opacity="0.4" d="M244.346 409.526C251.962 405.028 267.653 397.849 281.38 409.708C295.107 421.568 298.672 432.433 293.142 445.408C287.613 458.383 274.832 474.741 252.604 467.55C230.377 460.359 220.713 423.496 244.346 409.526Z" fill="white"/>
<path d="M304.917 429.194L302.686 428.939C301.58 428.823 300.532 428.388 299.671 427.686C298.809 426.983 298.171 426.045 297.835 424.986C293.834 412.047 281.04 402.952 266.647 401.34C253.684 399.872 240.381 405.669 233.009 415.576C232.051 416.898 230.763 417.947 229.274 418.617C227.784 419.287 226.146 419.556 224.52 419.396L213.473 418.183C211.852 417.979 210.312 417.353 209.008 416.367C207.703 415.382 206.68 414.072 206.04 412.569C203.32 406.784 199.171 401.788 193.983 398.054C188.795 394.319 182.74 391.97 176.392 391.226C161.998 389.602 147.507 395.64 140.741 407.366C140.181 408.324 139.354 409.098 138.361 409.593C137.368 410.088 136.253 410.284 135.151 410.155L132.932 409.901C132.446 409.846 131.959 409.987 131.577 410.291C131.195 410.596 130.949 411.04 130.894 411.526L130.288 416.922C130.245 417.333 130.341 417.746 130.561 418.096C130.781 418.445 131.112 418.711 131.501 418.85L134.241 420.123C135.301 420.602 136.2 421.376 136.832 422.352C137.464 423.328 137.803 424.466 137.806 425.628C137.771 434.039 140.788 442.177 146.297 448.534C151.806 454.89 159.432 459.032 167.763 460.193C176.093 461.354 184.562 459.454 191.599 454.846C198.635 450.239 203.762 443.235 206.028 435.135C206.396 433.857 207.146 432.723 208.178 431.884C209.21 431.045 210.474 430.542 211.8 430.442C215.722 430.123 219.669 430.535 223.441 431.655C224.73 432.041 225.87 432.813 226.706 433.867C227.543 434.921 228.037 436.206 228.122 437.548C228.519 445.956 231.954 453.933 237.788 459.999C243.622 466.066 251.46 469.809 259.845 470.533C268.231 471.258 276.594 468.914 283.382 463.939C290.171 458.963 294.923 451.693 296.756 443.478C297.016 442.344 297.597 441.31 298.429 440.497C299.261 439.684 300.309 439.128 301.449 438.894L304.408 438.264C304.809 438.203 305.179 438.012 305.462 437.721C305.744 437.43 305.923 437.054 305.972 436.651L306.578 431.255C306.608 431.01 306.589 430.761 306.521 430.524C306.454 430.286 306.339 430.065 306.184 429.872C306.029 429.68 305.837 429.521 305.619 429.404C305.402 429.288 305.163 429.216 304.917 429.194V429.194ZM169.104 455.713C163.174 455.048 157.575 452.639 153.014 448.791C148.454 444.943 145.136 439.829 143.482 434.096C141.828 428.363 141.91 422.268 143.72 416.582C145.53 410.896 148.985 405.875 153.648 402.152C158.312 398.43 163.975 396.174 169.92 395.67C175.866 395.166 181.828 396.436 187.051 399.32C192.275 402.204 196.526 406.572 199.267 411.873C202.008 417.173 203.116 423.167 202.451 429.096C201.549 437.035 197.539 444.293 191.298 449.281C185.057 454.269 177.094 456.582 169.152 455.713H169.104ZM207.216 426.38C207.216 425.422 207.216 424.476 207.156 423.531C207.138 423.346 207.164 423.159 207.23 422.986C207.296 422.812 207.401 422.656 207.537 422.53C207.673 422.403 207.836 422.309 208.014 422.256C208.191 422.202 208.379 422.19 208.562 422.221L228.34 424.44C228.527 424.451 228.708 424.504 228.871 424.597C229.033 424.689 229.172 424.818 229.277 424.973C229.381 425.128 229.448 425.305 229.473 425.49C229.498 425.675 229.48 425.864 229.419 426.041C229.153 426.926 228.922 427.835 228.728 428.757C221.989 425.776 214.493 424.946 207.265 426.38H207.216ZM259.359 465.851C253.429 465.185 247.83 462.776 243.269 458.928C238.709 455.081 235.391 449.967 233.737 444.234C232.083 438.501 232.165 432.406 233.975 426.72C235.785 421.034 239.24 416.012 243.903 412.29C248.567 408.567 254.23 406.311 260.175 405.807C266.121 405.303 272.083 406.573 277.306 409.457C282.53 412.342 286.781 416.71 289.522 422.01C292.263 427.31 293.371 433.304 292.706 439.234C291.804 447.168 287.797 454.421 281.562 459.409C275.326 464.397 267.37 466.713 259.432 465.851H259.359Z" fill="#0061FF" stroke="#263238" stroke-width="2.02754" stroke-linecap="round" stroke-linejoin="round"/>
<path opacity="0.5" d="M149.084 441.356C149.084 441.356 140.669 424.962 151.352 409.501C160.968 395.604 177.568 396.744 184.686 401.34L162.69 427.727C165.513 420.823 169.075 414.245 173.312 408.106C173.312 408.106 155.826 420.511 149.084 441.356Z" fill="white"/>
<path opacity="0.5" d="M239.29 450.61C239.29 450.61 230.886 434.215 241.569 418.766C251.173 404.858 267.786 405.998 274.904 410.593L252.895 436.98C256.011 426.648 263.518 417.36 263.518 417.36C263.518 417.36 246.032 429.765 239.29 450.61Z" fill="white"/>
<path opacity="0.2" d="M157.815 322.058C157.815 322.058 133.283 352.507 131.574 354.423C129.864 356.338 130.361 387.163 126.165 401.048C121.97 414.932 107.491 429.192 75.1264 499.476L70.761 362.547L94.6131 267.175L157.815 322.058Z" fill="black" fill-opacity="0.7"/>
<path d="M175.822 320.737C175.822 320.737 159.621 246.331 146.816 237.066C139.395 231.706 128.202 229.791 118.429 230.724C111.359 231.391 105.017 233.562 101.452 237.018C92.8668 245.251 80.4375 250.065 74.3987 255.413C68.3598 260.761 69.4027 278.453 66.2135 293.586C63.0243 308.72 57.1674 309.569 56.6945 324.569C56.2216 339.569 53.481 385.6 44.3986 398.853C35.3161 412.107 35.6677 422.063 32.3573 435.232C29.0468 448.401 2.04187 496.784 2.04187 496.784L75.4658 507.48C75.4658 507.48 80.8134 477.455 87.0705 452.912C90.0293 441.259 93.1336 430.818 95.9832 425.385C101.401 414.9 105.987 404.006 109.698 392.802C117.41 383.72 120.769 364.391 121.145 347.633L139.928 335.64C154.613 330.668 175.822 320.737 175.822 320.737Z" fill="white"/>
<path opacity="0.4" d="M175.822 320.737C175.822 320.737 159.622 246.331 146.816 237.066C139.395 231.706 128.203 229.791 118.429 230.724C95.559 237.915 90.078 251.217 87.1192 254.528C83.1782 258.954 79.1766 284.71 83.0691 299.395C86.9616 314.079 85.1184 319.621 83.0691 326.994C78.4854 343.34 95.85 350.967 97.9479 356.921C100.046 362.875 101.416 396.816 94.5162 408.288C90.8783 414.351 82.2445 445.248 87.0828 452.972C90.0416 441.319 93.1459 430.879 95.9955 425.446C101.413 414.961 105.999 404.066 109.71 392.863C117.422 383.781 120.781 364.452 121.157 347.693L139.941 335.7C154.613 330.668 175.822 320.737 175.822 320.737Z" fill="#0061FF"/>
<path d="M87.4704 331.299C87.4704 331.299 83.0928 326.728 79.4792 326.934" stroke="#263238" stroke-width="2.02754" stroke-linecap="round" stroke-linejoin="round"/>
<path d="M95.4256 314.505C95.4256 314.505 90.466 305.41 83.2994 303.785" stroke="#263238" stroke-width="2.02754" stroke-linecap="round" stroke-linejoin="round"/>
<path d="M84.4515 260.106C84.4515 260.106 94.6496 263.817 96.6626 271.02" stroke="#263238" stroke-width="2.02754" stroke-linecap="round" stroke-linejoin="round"/>
<path d="M139.928 335.627C139.928 335.627 137.248 332.608 137.103 330.122" stroke="#263238" stroke-width="2.02754" stroke-linecap="round" stroke-linejoin="round"/>
<path d="M75.4659 507.479C75.4659 507.479 87.2041 442.325 95.9834 425.445C101.401 414.96 105.987 404.066 109.698 392.862C117.41 383.78 120.769 364.439 121.145 347.68L139.929 335.687C154.613 330.728 175.822 320.845 175.822 320.845C175.822 320.845 159.621 246.439 146.816 237.175C134.011 227.91 110.013 228.905 101.404 237.175C92.7942 245.445 80.3892 250.15 74.3503 255.497C68.3115 260.845 69.3544 278.537 66.1652 293.67C62.976 308.804 57.1191 309.653 56.6461 324.653C56.1732 339.653 53.4327 385.684 44.3502 398.938C35.2677 412.191 35.6194 422.147 32.3089 435.316C28.9985 448.485 1.99353 496.868 1.99353 496.868" stroke="#263238" stroke-width="2.02754" stroke-linecap="round" stroke-linejoin="round"/>
<path d="M62.2624 92.7842L60.0863 73.2607C60.0507 72.9411 60.1435 72.6204 60.3443 72.3692C60.5451 72.118 60.8375 71.9569 61.1571 71.9212L69.4124 71.0011L71.8558 92.9228L63.6005 93.843C63.283 93.8784 62.9643 93.787 62.7137 93.5888C62.4632 93.3905 62.301 93.1014 62.2624 92.7842Z" fill="#0061FF" stroke="#263238" stroke-width="2.02754" stroke-linecap="round" stroke-linejoin="round"/>
<path d="M99.752 40.9641L119.276 38.788C119.595 38.7523 119.916 38.8451 120.167 39.0459C120.418 39.2468 120.579 39.5392 120.615 39.8588L121.535 48.1141L99.6013 50.5588L98.6799 42.2915C98.6476 41.9736 98.7422 41.6558 98.943 41.4073C99.1437 41.1587 99.4345 40.9994 99.752 40.9641Z" fill="#0061FF" stroke="#263238" stroke-width="2.02754" stroke-linecap="round" stroke-linejoin="round"/>
<path d="M125.83 38.0944L145.354 35.9183C145.674 35.8827 145.994 35.9755 146.245 36.1763C146.497 36.3771 146.658 36.6695 146.693 36.9892L147.614 45.2444L125.692 47.6879L124.772 39.4326C124.736 39.1129 124.829 38.7923 125.03 38.5411C125.23 38.2899 125.523 38.1287 125.842 38.0931L125.83 38.0944Z" fill="#0061FF" stroke="#263238" stroke-width="2.02754" stroke-linecap="round" stroke-linejoin="round"/>
<path d="M91.2304 332.778L62.261 72.6841C61.5215 66.0538 63.4427 59.4009 67.6031 54.1857C71.7635 48.9704 77.8231 45.6189 84.4519 44.8666L462.788 2.7161C466.081 2.34171 469.416 2.62063 472.601 3.53687C475.786 4.45312 478.759 5.98869 481.35 8.05564C483.94 10.1226 486.098 12.6803 487.699 15.5823C489.299 18.4844 490.312 21.6737 490.678 24.9676L519.648 285.062C520.387 291.703 518.458 298.365 514.285 303.584C510.112 308.803 504.037 312.151 497.396 312.891L119.06 355.03C115.771 355.397 112.443 355.113 109.264 354.193C106.085 353.274 103.119 351.737 100.534 349.671C97.9499 347.604 95.7979 345.049 94.2015 342.15C92.6051 339.252 91.5955 336.067 91.2304 332.778V332.778Z" fill="#0061FF" stroke="#263238" stroke-width="2.02754" stroke-linecap="round" stroke-linejoin="round"/>
<path d="M497.395 309.593L118.332 351.817C112.651 352.447 106.952 350.795 102.489 347.225C98.0251 343.655 95.1617 338.459 94.5279 332.779L65.4251 71.9692C64.7917 66.2865 66.4417 60.5849 70.012 56.1186C73.5823 51.6523 78.7805 48.7872 84.4632 48.1535L463.575 5.94229C469.255 5.30888 474.954 6.95752 479.418 10.5255C483.882 14.0936 486.745 19.2887 487.379 24.9682L516.482 285.778C516.794 288.595 516.547 291.446 515.756 294.168C514.966 296.89 513.646 299.429 511.874 301.641C510.101 303.853 507.91 305.693 505.426 307.058C502.942 308.422 500.213 309.284 497.395 309.593V309.593Z" fill="#757575" stroke="#263238" stroke-width="2.02754" stroke-linecap="round" stroke-linejoin="round"/>
<path d="M86.2466 201.67C86.2812 201.864 86.2756 202.063 86.2303 202.255C86.1849 202.447 86.1008 202.627 85.9831 202.786C85.8653 202.944 85.7165 203.076 85.5457 203.174C85.3749 203.272 85.1858 203.335 84.99 203.357C84.7942 203.379 84.5959 203.361 84.4073 203.304C84.2187 203.247 84.0439 203.152 83.8935 203.025C83.7431 202.897 83.6204 202.74 83.5329 202.564C83.4454 202.387 83.3951 202.195 83.3849 201.998C83.3503 201.804 83.3559 201.605 83.4012 201.413C83.4466 201.221 83.5307 201.041 83.6485 200.883C83.7662 200.725 83.915 200.593 84.0858 200.494C84.2566 200.396 84.4458 200.334 84.6415 200.311C84.8373 200.289 85.0356 200.307 85.2242 200.364C85.4128 200.421 85.5876 200.516 85.738 200.644C85.8884 200.771 86.0111 200.928 86.0986 201.104C86.1861 201.281 86.2365 201.474 86.2466 201.67V201.67Z" fill="#999999" stroke="#263238" stroke-width="2.02754" stroke-linecap="round" stroke-linejoin="round"/>
<path d="M89.0112 214.56C89.0725 215.101 88.972 215.648 88.7224 216.132C88.4728 216.616 88.0853 217.015 87.6089 217.279C87.1325 217.543 86.5886 217.659 86.046 217.613C85.5034 217.568 84.9865 217.363 84.5607 217.023C84.1349 216.684 83.8192 216.226 83.6537 215.707C83.4882 215.189 83.4802 214.632 83.6308 214.109C83.7814 213.586 84.0838 213.119 84.4997 212.768C84.9157 212.416 85.4265 212.196 85.9675 212.135C86.6927 212.053 87.4207 212.263 87.9914 212.718C88.5622 213.172 88.929 213.835 89.0112 214.56V214.56Z" fill="#263238"/>
<path d="M85.4582 182.705C85.5195 183.247 85.4191 183.794 85.1694 184.277C84.9198 184.761 84.5323 185.16 84.0559 185.424C83.5795 185.688 83.0356 185.804 82.493 185.759C81.9504 185.713 81.4336 185.508 81.0077 185.168C80.5819 184.829 80.2663 184.371 80.1007 183.852C79.9352 183.334 79.9272 182.777 80.0778 182.254C80.2284 181.731 80.5308 181.264 80.9468 180.913C81.3627 180.561 81.8735 180.341 82.4145 180.28C83.1391 180.202 83.8654 180.412 84.4354 180.867C85.0053 181.321 85.373 181.982 85.4582 182.705V182.705Z" fill="#263238"/>
<path d="M89.302 223.727C89.3598 224.256 89.2052 224.787 88.872 225.202C88.5389 225.617 88.0545 225.882 87.5255 225.94C86.9964 225.998 86.4661 225.843 86.051 225.51C85.636 225.177 85.3703 224.693 85.3124 224.164C85.2838 223.902 85.307 223.637 85.3808 223.384C85.4545 223.131 85.5774 222.895 85.7424 222.689C86.0755 222.274 86.5599 222.009 87.0889 221.951C87.618 221.893 88.1483 222.047 88.5634 222.381C88.9784 222.714 89.2441 223.198 89.302 223.727V223.727Z" fill="#263238"/>
<path d="M108.703 334.076L79.3457 71.144C79.0358 68.34 79.8514 65.5276 81.6135 63.3245C83.3755 61.1214 85.9399 59.7077 88.7435 59.3938L469.954 16.9522C472.759 16.6422 475.573 17.4575 477.778 19.2192C479.983 20.981 481.399 23.5454 481.716 26.35L511.001 289.318C511.156 290.707 511.036 292.112 510.647 293.455C510.259 294.797 509.61 296.049 508.737 297.141C507.864 298.232 506.785 299.14 505.561 299.814C504.337 300.488 502.992 300.914 501.603 301.068L120.393 343.51C117.592 343.809 114.786 342.983 112.594 341.213C110.402 339.444 109.002 336.877 108.703 334.076V334.076Z" fill="white"/>
<path opacity="0.3" d="M470.598 16.8673L88.0899 59.4665C86.7839 59.6098 85.519 60.0095 84.3679 60.6427C83.2168 61.276 82.202 62.1303 81.3818 63.1566C80.5616 64.183 79.9521 65.3612 79.5884 66.6237C79.2246 67.8861 79.1137 69.208 79.262 70.5134L108.704 334.743C108.848 336.048 109.247 337.313 109.881 338.465C110.514 339.616 111.368 340.63 112.395 341.451C113.421 342.271 114.599 342.88 115.862 343.244C117.124 343.608 118.446 343.719 119.751 343.57L502.235 300.971C503.541 300.826 504.805 300.426 505.956 299.792C507.107 299.158 508.122 298.304 508.943 297.279C509.764 296.253 510.374 295.075 510.74 293.813C511.106 292.552 511.22 291.23 511.075 289.924L481.644 25.6951C481.349 23.0601 480.019 20.6502 477.948 18.9949C475.877 17.3396 473.233 16.5744 470.598 16.8673V16.8673Z" fill="#0061FF"/>
<path d="M196.012 81.5498H195.927L196.036 96.9864L189.852 97.6654L183.474 69.3994L187.851 68.9143L192.702 91.2143H192.787L192.374 68.405L196.703 67.9321L201.445 90.4261H201.529L201.287 67.3864L205.216 66.9377V95.9314L199.238 96.5862L196.012 81.5498Z" fill="#263238"/>
<path d="M213.317 78.2876L219.501 77.6085L219.95 81.695L213.777 82.3862L214.711 90.7654L222.484 89.9044L222.933 93.9909L210.673 95.3612L207.484 66.7313L219.743 65.3611L220.204 69.4476L212.431 70.3207L213.317 78.2876Z" fill="#263238"/>
<path d="M246.626 91.3457L242.079 91.855L240.721 86.7014L235.203 87.3198L235.009 92.5947L230.874 93.0555L232.269 63.9527L238.853 63.2251L246.626 91.3457ZM235.349 83.4152L239.678 82.9301L235.943 68.694H235.858L235.349 83.4152Z" fill="#263238"/>
<path d="M258.123 90.0744C257.622 88.985 257.35 87.8048 257.323 86.6063L256.813 82.1075C256.522 79.4397 255.516 78.5666 253.466 78.7849L251.914 78.9668L253.212 90.62L248.713 91.1172L245.524 62.451L252.314 61.6991C256.971 61.1777 259.214 63.1179 259.711 67.544L259.966 69.7873C260.293 72.734 259.554 74.7226 257.662 75.8504V75.9353C260.015 76.6265 260.985 78.6636 261.3 81.6467L261.797 86.0727C261.847 87.2609 262.144 88.4256 262.67 89.4923L258.123 90.0744ZM250.471 66.0888L251.453 74.8803L253.212 74.6863C254.897 74.5044 255.831 73.6555 255.637 71.3637L255.322 68.5383C255.091 66.489 254.303 65.6765 252.702 65.8463L250.471 66.0888Z" fill="#263238"/>
<path d="M267.811 72.2237L273.983 71.5325L274.444 75.6191L268.26 76.3102L269.193 84.7015L276.966 83.8285L277.427 87.915L265.131 89.2852L261.942 60.6554L274.214 59.2972L274.662 63.3838L266.902 64.2447L267.811 72.2237Z" fill="#263238"/>
<path d="M291.044 86.4001L286.546 86.9094L283.32 58.2796L287.819 57.7703L289.189 70.0419L294.306 69.472L293.021 57.2125L297.605 56.691L300.794 85.3209L296.21 85.8302L294.84 73.5707L289.735 74.1285L291.044 86.4001Z" fill="#263238"/>
<path d="M300.831 56.3863L305.33 55.8892L308.519 84.519L304.02 85.0162L300.831 56.3863Z" fill="#263238"/>
<path d="M321.19 83.0637C320.694 81.9728 320.422 80.7935 320.39 79.5956L319.893 75.0968C319.602 72.4412 318.583 71.556 316.546 71.7864L314.994 71.9561L316.291 83.6215L311.793 84.1187L308.604 55.4888L315.394 54.737C320.051 54.2156 322.294 56.1558 322.791 60.5697L323.034 62.8251C323.361 65.7718 322.633 67.7484 320.742 68.8882V68.9731C323.094 69.6643 324.076 71.7136 324.38 74.6967L324.877 79.1106C324.918 80.3 325.216 81.4665 325.75 82.5302L321.19 83.0637ZM313.551 59.0782L314.533 67.8696L316.291 67.6756C317.965 67.4816 318.911 66.6328 318.656 64.3409L318.341 61.5276C318.11 59.4783 317.322 58.6537 315.722 58.8356L313.551 59.0782Z" fill="#263238"/>
<path d="M325.046 53.6341L329.545 53.137L332.734 81.7547L328.236 82.264L325.046 53.6341Z" fill="#263238"/>
<path d="M337.779 60.2055H337.706L340.01 80.9413L335.96 81.3899L332.771 52.7479L338.422 52.1174L344.861 68.7424H344.946L343.042 51.6081L347.043 51.1594L350.233 79.7893L345.613 80.2986L337.779 60.2055Z" fill="#263238"/>
<path d="M358.502 62.7543L364.796 62.051L365.814 71.1335C366.324 75.7051 364.323 78.579 359.909 79.0761C355.495 79.5733 352.912 77.1966 352.403 72.625L350.742 57.7341C350.232 53.1504 352.233 50.2765 356.647 49.7915C361.061 49.3064 363.644 51.6589 364.153 56.2426L364.468 59.0195L360.212 59.4924L359.812 56.3881C359.582 54.3509 358.599 53.6718 357.156 53.8295C355.713 53.9871 354.913 54.8602 355.143 56.9095L356.865 72.3704C357.096 74.4197 358.078 75.0503 359.509 74.8926C360.94 74.735 361.752 73.8983 361.534 71.8489L360.94 66.5741L358.903 66.8045L358.502 62.7543Z" fill="#263238"/>
<path d="M369.295 71.2665L367.561 60.9835L366.24 49.112L370.738 48.6027L372.06 60.5469L372.642 70.9633L369.295 71.2665ZM373.358 72.8429L373.843 77.184L369.501 77.6691L369.029 73.3279L373.358 72.8429Z" fill="#263238"/>
<path d="M337.197 295.94L271.594 303.215C269.015 303.504 266.405 303.281 263.912 302.56C261.419 301.839 259.092 300.634 257.065 299.013C255.038 297.393 253.35 295.389 252.098 293.116C250.846 290.843 250.054 288.345 249.767 285.766V285.766C249.479 283.188 249.701 280.578 250.421 278.086C251.142 275.593 252.346 273.268 253.965 271.241C255.584 269.214 257.587 267.526 259.859 266.273C262.13 265.02 264.626 264.227 267.205 263.939L332.819 256.663C335.399 256.373 338.01 256.595 340.503 257.315C342.997 258.035 345.324 259.241 347.352 260.861C349.379 262.482 351.067 264.487 352.319 266.761C353.57 269.034 354.361 271.533 354.646 274.113V274.113C354.936 276.692 354.715 279.303 353.994 281.797C353.274 284.29 352.069 286.618 350.448 288.645C348.827 290.672 346.823 292.36 344.549 293.612C342.275 294.864 339.777 295.655 337.197 295.94V295.94Z" fill="#0061FF" stroke="#263238" stroke-width="2.02754" stroke-linecap="round" stroke-linejoin="round"/>
<path d="M289.383 290.422L286.437 290.749L285.564 287.439L281.986 287.839L281.853 291.259L279.173 291.562L280.083 272.669L284.351 272.184L289.383 290.422ZM282.108 285.28L284.921 284.965L282.496 275.725L282.108 285.28Z" fill="#263238"/>
<path d="M297.872 275.314L298.139 277.739C298.478 280.71 297.217 282.48 294.307 282.808L292.925 282.953L293.701 289.938L290.79 290.265L288.717 271.7L293.022 271.215C295.883 270.876 297.496 272.343 297.872 275.314ZM291.93 274.016L292.634 280.298L294.016 280.14C294.938 280.043 295.398 279.558 295.229 278.236L294.925 275.447C294.78 274.125 294.222 273.749 293.3 273.859L291.93 274.016Z" fill="#263238"/>
<path d="M307.828 274.197L308.094 276.622C308.422 279.593 307.173 281.363 304.251 281.691L302.88 281.848L303.656 288.821L300.734 289.148L298.672 270.583L302.965 270.098C305.888 269.807 307.488 271.226 307.828 274.197ZM301.886 272.899L302.577 279.18L303.959 279.023C304.893 278.926 305.342 278.441 305.172 277.119L304.869 274.33C304.711 273.008 304.166 272.644 303.232 272.741L301.886 272.899Z" fill="#263238"/>
<path d="M308.664 269.455L311.587 269.128L313.357 285.037L318.207 284.504L318.499 287.159L310.786 288.02L308.664 269.455Z" fill="#263238"/>
<path d="M320.123 280.721L315.055 268.716L318.11 268.376L321.251 276.598L322.464 267.891L325.253 267.588L322.949 280.405L323.628 286.566L320.718 286.881L320.123 280.721Z" fill="#263238"/>
<path d="M345.86 313.206L266.995 321.997L267.266 324.431L346.131 315.641L345.86 313.206Z" fill="#999999" stroke="#263238" stroke-width="2.02754" stroke-linecap="round" stroke-linejoin="round"/>
<path d="M459.32 229.111L145.58 264.047C145.58 264.047 131.95 234.75 140.196 215.736C148.442 196.722 173.409 207.563 183.983 189.92C194.557 172.276 182.31 160.586 193.951 136.419C205.592 112.252 238.951 99.3614 263.859 109.96C288.766 120.558 297.193 136.54 313.03 132.066C328.867 127.591 337.889 107.025 369.271 108.529C400.654 110.032 407.396 153.978 405.577 175.659C403.758 197.341 466.329 177.987 459.32 229.111Z" fill="white"/>
<path d="M365.56 134.187L365.269 131.568L345.625 133.763L346.207 139.074L347.262 148.508L366.906 146.326L365.56 134.187Z" fill="white"/>
<path opacity="0.2" d="M347.28 148.332L359.657 146.953L358.034 132.395L345.657 133.774L347.28 148.332Z" fill="black"/>
<path d="M365.56 134.187L365.269 131.568L345.625 133.763L346.207 139.074L347.262 148.508L366.906 146.326L365.56 134.187Z" stroke="#263238" stroke-width="2.02754" stroke-linecap="round" stroke-linejoin="round"/>
<path d="M358.053 132.37L358.199 133.667" stroke="#263238" stroke-width="2.02754" stroke-linecap="round" stroke-linejoin="round"/>
<path d="M348.389 164.454L346.146 144.301L356.659 136.346L367.076 135.182L370.035 161.835L348.389 164.454Z" fill="#263238"/>
<path opacity="0.2" d="M348.389 164.455L360.091 163.157L357.096 136.298L346.146 144.301L348.389 164.455Z" fill="black"/>
<path d="M348.389 164.454L346.146 144.301L356.659 136.346L367.076 135.182L370.035 161.835L348.389 164.454Z" stroke="#263238" stroke-width="2.02754" stroke-linecap="round" stroke-linejoin="round"/>
<path opacity="0.2" d="M357.593 140.76L358.211 146.375" stroke="white" stroke-width="2.02754" stroke-linecap="round" stroke-linejoin="round"/>
<path opacity="0.2" d="M358.588 149.722L359.91 161.582" stroke="white" stroke-width="2.02754" stroke-linecap="round" stroke-linejoin="round"/>
<path d="M267.881 224.588L264.049 225.015C263.467 225.08 262.883 224.911 262.426 224.545C261.969 224.18 261.676 223.648 261.611 223.066L260.685 214.762L268.893 213.848L269.821 222.175C269.879 222.751 269.708 223.327 269.345 223.778C268.982 224.23 268.456 224.52 267.881 224.588V224.588Z" fill="#999999" stroke="#263238" stroke-width="2.02754" stroke-linecap="round" stroke-linejoin="round"/>
<path d="M264.718 236.93L269.852 236.358L268.534 224.536L263.4 225.108L264.718 236.93Z" fill="#757575" stroke="#263238" stroke-width="2.02754" stroke-linecap="round" stroke-linejoin="round"/>
<path d="M259.675 214.877L270.237 213.689L273.135 208.838L255.77 210.779L259.675 214.877Z" fill="#757575" stroke="#263238" stroke-width="2.02754" stroke-linecap="round" stroke-linejoin="round"/>
<path d="M289.384 195.948L274.832 197.561L269.982 182.294H267.92L272.771 198.191C272.367 198.24 271.999 198.445 271.745 198.762C271.491 199.08 271.372 199.484 271.413 199.889L271.764 202.993C271.889 204.008 272.408 204.933 273.209 205.568C274.01 206.203 275.028 206.498 276.045 206.388L288.511 205.006C288.992 204.948 289.43 204.703 289.732 204.324C290.034 203.945 290.175 203.463 290.123 202.981L289.384 195.948Z" fill="#999999" stroke="#263238" stroke-width="2.02754" stroke-linecap="round" stroke-linejoin="round"/>
<path d="M290.597 203.587L289.857 203.66C289.352 203.717 288.844 203.59 288.425 203.303C288.006 203.016 287.705 202.587 287.577 202.096L283.321 185.337C283.116 184.552 282.66 183.855 282.023 183.352C281.387 182.849 280.603 182.567 279.792 182.548L267.872 182.245C267.43 182.23 267.007 182.057 266.682 181.756C266.357 181.456 266.151 181.048 266.102 180.608V180.608C266.047 180.126 266.186 179.641 266.489 179.262C266.791 178.882 267.232 178.638 267.714 178.583L269.206 178.425L281.029 178.922C282.439 178.979 283.793 179.492 284.887 180.384C285.98 181.276 286.754 182.5 287.092 183.87L291.591 202.156C291.622 202.316 291.621 202.48 291.588 202.639C291.555 202.798 291.49 202.949 291.397 203.082C291.304 203.216 291.185 203.329 291.048 203.416C290.91 203.503 290.757 203.561 290.597 203.587" fill="#BFBFBF"/>
<path d="M290.597 203.587L289.857 203.66C289.352 203.717 288.844 203.59 288.425 203.303C288.006 203.016 287.705 202.587 287.577 202.096L283.321 185.337C283.116 184.552 282.66 183.855 282.023 183.352C281.387 182.849 280.603 182.567 279.792 182.548L267.872 182.245C267.43 182.23 267.007 182.057 266.682 181.756C266.357 181.456 266.151 181.048 266.102 180.608V180.608C266.047 180.126 266.186 179.641 266.489 179.262C266.791 178.882 267.232 178.638 267.714 178.583L269.206 178.425L281.029 178.922C282.439 178.979 283.793 179.492 284.887 180.384C285.98 181.276 286.754 182.5 287.092 183.87L291.591 202.156C291.622 202.316 291.621 202.48 291.588 202.639C291.555 202.798 291.49 202.949 291.397 203.082C291.304 203.216 291.185 203.329 291.048 203.416C290.91 203.503 290.757 203.561 290.597 203.587" stroke="#263238" stroke-width="2.02754" stroke-linecap="round" stroke-linejoin="round"/>
<path d="M218.579 150.669L235.192 204.946L272.504 200.787L273.304 194.869L264.186 164.784L258.122 144.57C257.734 143.299 256.918 142.202 255.813 141.463C254.708 140.725 253.382 140.392 252.059 140.52L223.114 143.697C222.248 143.788 221.417 144.09 220.694 144.576C219.971 145.062 219.378 145.718 218.967 146.486C218.63 147.123 218.422 147.821 218.355 148.539C218.289 149.257 218.365 149.981 218.579 150.669V150.669Z" fill="#0061FF"/>
<path opacity="0.2" d="M218.579 150.668L235.192 204.944L272.504 200.785L273.304 194.868L264.185 164.783L233.045 168.251L227.176 149.104C226.889 148.164 226.285 147.353 225.467 146.809C224.649 146.265 223.667 146.021 222.69 146.12L219.052 146.521C218.352 147.786 218.182 149.277 218.579 150.668V150.668Z" fill="black"/>
<path d="M218.579 150.669L235.192 204.946L272.504 200.787L273.304 194.869L264.186 164.784L258.122 144.57C257.734 143.299 256.918 142.202 255.813 141.463C254.708 140.725 253.382 140.392 252.059 140.52L223.114 143.697C222.248 143.788 221.417 144.09 220.694 144.576C219.971 145.062 219.378 145.718 218.967 146.486C218.63 147.123 218.422 147.821 218.355 148.539C218.289 149.257 218.365 149.981 218.579 150.669V150.669Z" stroke="#263238" stroke-width="2.02754" stroke-linecap="round" stroke-linejoin="round"/>
<path d="M248.033 247.179C255.684 242.086 279.415 239.442 288.049 242.729L291.687 241.261C282.507 236.52 269.86 236.326 269.86 236.326L264.294 236.944C264.294 236.944 252.059 239.903 244.14 246.548L248.033 247.179Z" fill="#999999" stroke="#263238" stroke-width="2.02754" stroke-linecap="round" stroke-linejoin="round"/>
<path d="M287.782 244.947C287.877 245.801 288.307 246.582 288.978 247.119C289.649 247.656 290.506 247.904 291.36 247.809C292.213 247.714 292.995 247.284 293.531 246.613C294.068 245.942 294.316 245.086 294.221 244.232C294.174 243.809 294.045 243.4 293.839 243.027C293.634 242.654 293.358 242.326 293.025 242.06C292.693 241.794 292.312 241.597 291.903 241.478C291.495 241.36 291.067 241.323 290.644 241.37C290.221 241.417 289.812 241.547 289.439 241.752C289.067 241.957 288.738 242.234 288.472 242.566C288.207 242.898 288.009 243.28 287.891 243.688C287.772 244.097 287.735 244.525 287.782 244.947V244.947Z" fill="#BFBFBF" stroke="#263238" stroke-width="2.02754" stroke-linecap="round" stroke-linejoin="round"/>
<path d="M242.297 250.017C242.38 250.649 242.647 251.242 243.065 251.723C243.484 252.204 244.035 252.55 244.649 252.719C245.264 252.888 245.915 252.872 246.52 252.673C247.125 252.474 247.658 252.1 248.052 251.599C248.447 251.098 248.684 250.492 248.735 249.857C248.786 249.222 248.649 248.586 248.34 248.028C248.031 247.471 247.564 247.017 246.998 246.723C246.433 246.43 245.793 246.31 245.159 246.379C244.731 246.427 244.317 246.559 243.941 246.769C243.564 246.978 243.234 247.26 242.967 247.599C242.701 247.937 242.505 248.325 242.39 248.74C242.275 249.156 242.243 249.589 242.297 250.017Z" fill="#BFBFBF" stroke="#263238" stroke-width="2.02754" stroke-linecap="round" stroke-linejoin="round"/>
<path d="M248.651 213.165L285.163 209.103C286.73 208.928 288.247 208.446 289.627 207.684C291.007 206.923 292.223 205.897 293.206 204.664C294.19 203.432 294.92 202.019 295.357 200.504C295.793 198.989 295.926 197.403 295.749 195.837V195.837C295.701 195.37 295.561 194.917 295.336 194.504C295.111 194.092 294.806 193.729 294.439 193.435C294.072 193.142 293.651 192.924 293.199 192.795C292.748 192.666 292.275 192.628 291.808 192.684L238.453 198.626C237.992 198.677 237.545 198.819 237.139 199.043C236.733 199.267 236.375 199.569 236.085 199.932C235.796 200.294 235.581 200.711 235.452 201.157C235.324 201.603 235.285 202.069 235.337 202.53C235.504 204.107 235.982 205.634 236.744 207.024C237.505 208.414 238.535 209.639 239.774 210.628C241.012 211.617 242.434 212.35 243.958 212.786C245.482 213.222 247.077 213.35 248.651 213.165V213.165Z" fill="#0061FF"/>
<path opacity="0.2" d="M235.373 202.324L235.483 203.307C235.815 206.275 237.312 208.989 239.645 210.854C241.978 212.719 244.956 213.58 247.924 213.25L285.879 209.018C287.349 208.857 288.772 208.407 290.068 207.694C291.363 206.982 292.506 206.021 293.429 204.866C294.353 203.712 295.04 202.386 295.451 200.966C295.861 199.546 295.987 198.058 295.822 196.589L295.713 195.594C295.647 194.963 295.399 194.364 294.998 193.871C294.598 193.378 294.063 193.012 293.458 192.818L293.664 194.649C293.78 195.708 293.471 196.77 292.805 197.602C292.139 198.434 291.17 198.968 290.111 199.087L256.437 202.846C255.376 202.962 254.312 202.653 253.478 201.987C252.645 201.322 252.108 200.353 251.986 199.293L251.756 197.147L238.32 198.638C237.442 198.739 236.639 199.183 236.086 199.873C235.534 200.564 235.278 201.445 235.373 202.324V202.324Z" fill="black"/>
<path d="M248.651 213.165L285.163 209.103C286.73 208.928 288.247 208.446 289.627 207.684C291.007 206.923 292.223 205.897 293.206 204.664C294.19 203.432 294.92 202.019 295.357 200.504C295.793 198.989 295.926 197.403 295.749 195.837V195.837C295.701 195.37 295.561 194.917 295.336 194.504C295.111 194.092 294.806 193.729 294.439 193.435C294.072 193.142 293.651 192.924 293.199 192.795C292.748 192.666 292.275 192.628 291.808 192.684L238.453 198.626C237.992 198.677 237.545 198.819 237.139 199.043C236.733 199.267 236.375 199.569 236.085 199.932C235.796 200.294 235.581 200.711 235.452 201.157C235.324 201.603 235.285 202.069 235.337 202.53C235.504 204.107 235.982 205.634 236.744 207.024C237.505 208.414 238.535 209.639 239.774 210.628C241.012 211.617 242.434 212.35 243.958 212.786C245.482 213.222 247.077 213.35 248.651 213.165V213.165Z" stroke="#263238" stroke-width="2.02754" stroke-linecap="round" stroke-linejoin="round"/>
<path d="M248.555 200.493L234.076 202.106L229.153 186.839L227.103 186.778L231.954 202.688C231.753 202.709 231.558 202.77 231.38 202.867C231.203 202.964 231.046 203.095 230.92 203.253C230.794 203.411 230.7 203.592 230.644 203.787C230.589 203.981 230.572 204.185 230.596 204.386L230.935 207.49C231.054 208.515 231.573 209.453 232.379 210.097C233.185 210.742 234.213 211.043 235.24 210.934L247.706 209.539C247.944 209.514 248.175 209.441 248.385 209.326C248.595 209.211 248.781 209.055 248.931 208.868C249.081 208.681 249.192 208.466 249.259 208.236C249.325 208.006 249.345 207.764 249.319 207.526L248.555 200.493Z" fill="#999999" stroke="#263238" stroke-width="2.02754" stroke-linecap="round" stroke-linejoin="round"/>
<path d="M249.829 208.121L249.077 208.206C248.572 208.262 248.064 208.134 247.647 207.844C247.23 207.554 246.932 207.122 246.809 206.63L242.553 189.884C242.345 189.099 241.889 188.403 241.253 187.898C240.617 187.393 239.836 187.107 239.024 187.082L227.104 186.779C226.661 186.768 226.238 186.597 225.91 186.299C225.583 186 225.374 185.594 225.322 185.154V185.154C225.271 184.671 225.413 184.186 225.717 183.807C226.021 183.428 226.463 183.184 226.947 183.129L228.426 182.959L240.261 183.457C241.672 183.515 243.027 184.031 244.12 184.925C245.213 185.82 245.987 187.045 246.324 188.416L250.811 206.751C250.852 206.91 250.858 207.075 250.83 207.236C250.801 207.397 250.738 207.551 250.645 207.685C250.551 207.82 250.43 207.933 250.289 208.016C250.149 208.1 249.992 208.152 249.829 208.17V208.17" fill="#BFBFBF"/>
<path d="M249.829 208.121L249.077 208.206C248.572 208.262 248.064 208.134 247.647 207.844C247.23 207.554 246.932 207.122 246.809 206.63L242.553 189.884C242.345 189.099 241.889 188.403 241.253 187.898C240.617 187.393 239.836 187.107 239.024 187.082L227.104 186.779C226.661 186.768 226.238 186.597 225.91 186.299C225.583 186 225.374 185.594 225.322 185.154V185.154C225.271 184.671 225.413 184.186 225.717 183.807C226.021 183.428 226.463 183.184 226.947 183.129L228.426 182.959L240.261 183.457C241.672 183.515 243.027 184.031 244.12 184.925C245.213 185.82 245.987 187.045 246.324 188.416L250.811 206.751C250.852 206.91 250.858 207.075 250.83 207.236C250.801 207.397 250.738 207.551 250.645 207.685C250.551 207.82 250.43 207.933 250.289 208.016C250.149 208.1 249.992 208.152 249.829 208.17V208.17" stroke="#263238" stroke-width="2.02754" stroke-linecap="round" stroke-linejoin="round"/>
<path d="M275.742 170.13L262.245 171.585L262.33 172.313C262.344 172.49 262.393 172.662 262.474 172.82C262.556 172.978 262.669 173.118 262.806 173.231C262.943 173.344 263.101 173.428 263.272 173.479C263.442 173.53 263.621 173.545 263.797 173.525H264.149L308.228 168.614C308.341 168.602 308.451 168.568 308.551 168.513C308.651 168.458 308.739 168.384 308.81 168.295C308.881 168.206 308.933 168.103 308.965 167.994C308.996 167.884 309.005 167.769 308.991 167.656L308.858 166.444L275.742 170.13Z" fill="#999999" stroke="#263238" stroke-width="2.02754" stroke-linecap="round" stroke-linejoin="round"/>
<path d="M316.74 142.798L314.546 164.625C314.501 165.08 314.3 165.506 313.977 165.831C313.655 166.156 313.23 166.359 312.775 166.407L278.761 170.203C278.559 170.224 278.355 170.2 278.163 170.131C277.972 170.063 277.798 169.953 277.655 169.808C277.512 169.664 277.403 169.49 277.336 169.298C277.27 169.106 277.247 168.901 277.27 168.699L279.695 146.872C279.745 146.423 279.946 146.004 280.265 145.684C280.585 145.365 281.004 145.163 281.453 145.114L315.249 141.27C315.454 141.245 315.662 141.268 315.856 141.337C316.051 141.406 316.227 141.518 316.371 141.666C316.515 141.814 316.624 141.993 316.688 142.189C316.752 142.385 316.77 142.593 316.74 142.798V142.798Z" fill="#BFBFBF" stroke="#263238" stroke-width="2.02754" stroke-linecap="round" stroke-linejoin="round"/>
<path d="M298.041 153.191L300.673 152.9L301.679 155.18L300.054 157.739L297.423 158.03L296.417 155.762L298.041 153.191Z" fill="white" stroke="#263238" stroke-width="2.02754" stroke-linecap="round" stroke-linejoin="round"/>
<path d="M350.379 136.249L350.088 133.617L330.443 135.824L331.037 141.136L332.08 150.57L351.725 148.375L350.379 136.249Z" fill="white"/>
<path opacity="0.2" d="M331.97 149.688L344.407 148.302L342.864 134.454L330.427 135.841L331.97 149.688Z" fill="black"/>
<path d="M350.379 136.249L350.088 133.617L330.443 135.824L331.037 141.136L332.08 150.57L351.725 148.375L350.379 136.249Z" stroke="#263238" stroke-width="2.02754" stroke-linecap="round" stroke-linejoin="round"/>
<path d="M342.872 134.419L343.017 135.729" stroke="#263238" stroke-width="2.02754" stroke-linecap="round" stroke-linejoin="round"/>
<path d="M333.207 166.516L330.964 146.35L341.477 138.395L351.894 137.243L354.865 163.897L333.207 166.516Z" fill="#0061FF"/>
<path opacity="0.2" d="M341.477 138.397L344.448 165.159L333.195 166.408L330.964 146.351L341.477 138.397Z" fill="black"/>
<path d="M333.207 166.516L330.964 146.35L341.477 138.395L351.894 137.243L354.865 163.897L333.207 166.516Z" stroke="#263238" stroke-width="2.02754" stroke-linecap="round" stroke-linejoin="round"/>
<path d="M342.411 142.81L343.042 148.424" stroke="#263238" stroke-width="2.02754" stroke-linecap="round" stroke-linejoin="round"/>
<path d="M343.406 151.784L344.728 163.643" stroke="#263238" stroke-width="2.02754" stroke-linecap="round" stroke-linejoin="round"/>
<path d="M328.307 170.451L323.137 171.027L331.199 243.361L336.369 242.785L328.307 170.451Z" fill="#0061FF"/>
<path opacity="0.2" d="M328.307 170.451L323.137 171.027L331.199 243.361L336.369 242.785L328.307 170.451Z" fill="black"/>
<path d="M328.307 170.451L323.137 171.027L331.199 243.361L336.369 242.785L328.307 170.451Z" stroke="#263238" stroke-width="2.02754" stroke-linecap="round" stroke-linejoin="round"/>
<path d="M296.574 174.012L373.405 165.451L381.457 237.784L376.291 238.354L368.712 170.265L297.047 178.256L296.574 174.012Z" fill="#0061FF" stroke="#263238" stroke-width="2.02754" stroke-linecap="round" stroke-linejoin="round"/>
<path d="M358.26 163.061L245.742 175.6L246.178 179.589L375.576 165.183L375.128 161.182L365.681 162.237L358.26 163.061Z" fill="#0061FF"/>
<path opacity="0.6" d="M358.26 163.061L245.742 175.6L246.178 179.589L375.576 165.183L375.128 161.182L365.681 162.237L358.26 163.061Z" fill="white"/>
<path d="M358.26 163.061L245.742 175.6L246.178 179.589L375.576 165.183L375.128 161.182L365.681 162.237L358.26 163.061Z" stroke="#263238" stroke-width="2.02754" stroke-linecap="round" stroke-linejoin="round"/>
<path d="M256.424 251.702L248.36 179.37L299.775 173.646L307.839 245.979L302.661 246.548L295.082 178.472L253.999 183.044L261.59 251.132L256.424 251.702Z" fill="#0061FF"/>
<path opacity="0.2" d="M256.424 251.702L248.36 179.37L299.775 173.646L307.839 245.979L302.661 246.548L295.082 178.472L253.999 183.044L261.59 251.132L256.424 251.702Z" fill="white"/>
<path d="M256.424 251.702L248.36 179.37L299.775 173.646L307.839 245.979L302.661 246.548L295.082 178.472L253.999 183.044L261.59 251.132L256.424 251.702Z" stroke="#263238" stroke-width="2.02754" stroke-linecap="round" stroke-linejoin="round"/>
<path d="M378.765 184.305C374.635 181.005 369.635 178.976 364.373 178.466C359.111 177.956 353.814 178.986 349.127 181.431C344.44 183.876 340.564 187.631 337.972 192.238C335.38 196.846 334.183 202.107 334.526 207.383C334.87 212.658 336.739 217.72 339.907 221.952C343.075 226.185 347.405 229.405 352.369 231.222C357.334 233.038 362.72 233.373 367.871 232.184C373.022 230.996 377.717 228.336 381.384 224.528L385.495 227.814L388.624 223.897L384.513 220.611C388.251 214.931 389.734 208.061 388.67 201.345C387.607 194.629 384.075 188.552 378.765 184.305ZM380.329 220.514C377.372 224.193 373.39 226.913 368.887 228.329C364.383 229.745 359.561 229.794 355.031 228.469C350.5 227.144 346.464 224.505 343.433 220.886C340.402 217.267 338.512 212.83 338.003 208.137C337.494 203.444 338.389 198.705 340.573 194.52C342.758 190.336 346.134 186.893 350.276 184.627C354.417 182.362 359.137 181.375 363.839 181.793C368.542 182.21 373.014 184.013 376.692 186.973C379.135 188.935 381.167 191.36 382.672 194.108C384.177 196.856 385.126 199.874 385.464 202.989C385.802 206.104 385.522 209.256 384.641 212.263C383.76 215.27 382.295 218.074 380.329 220.514V220.514Z" fill="#757575" stroke="#263238" stroke-width="2.02754" stroke-linecap="round" stroke-linejoin="round"/>
<path d="M419.825 252.055C419.512 252.45 419.124 252.778 418.684 253.023C418.243 253.267 417.759 253.422 417.259 253.478C416.758 253.534 416.252 253.491 415.768 253.351C415.285 253.211 414.833 252.976 414.441 252.661L384.562 228.773C384.477 228.706 384.407 228.622 384.355 228.528C384.304 228.433 384.271 228.329 384.26 228.222C384.249 228.115 384.259 228.007 384.29 227.903C384.321 227.8 384.372 227.704 384.441 227.621L388.2 222.916C388.335 222.746 388.533 222.637 388.748 222.612C388.964 222.587 389.181 222.649 389.352 222.782L419.23 246.671C420.023 247.306 420.531 248.23 420.642 249.24C420.753 250.25 420.459 251.262 419.825 252.055V252.055Z" fill="#999999" stroke="#263238" stroke-width="2.02754" stroke-linecap="round" stroke-linejoin="round"/>
<path d="M219.149 255.863L215.644 256.251L199.868 194.856L203.251 193.983L219.149 255.863Z" fill="#999999" stroke="#263238" stroke-width="2.02754" stroke-linecap="round" stroke-linejoin="round"/>
<path d="M216.921 166.531L175.004 177.302L181.755 203.574L223.671 192.804L216.921 166.531Z" fill="#263238"/>
<path d="M189.076 191.291L189.343 192.322C189.45 192.568 189.499 192.835 189.486 193.103C189.473 193.371 189.399 193.632 189.269 193.867C189.139 194.101 188.956 194.303 188.735 194.455C188.515 194.608 188.262 194.708 187.997 194.747L187.402 194.892L188.166 197.863L186.954 198.191L184.917 190.284L186.748 189.811C186.998 189.722 187.266 189.69 187.53 189.72C187.795 189.749 188.049 189.838 188.274 189.981C188.499 190.124 188.688 190.316 188.827 190.543C188.966 190.77 189.051 191.026 189.076 191.291V191.291ZM186.432 191.097L187.111 193.765L187.706 193.619C188.094 193.51 188.263 193.28 188.118 192.71L187.815 191.497C187.669 190.927 187.415 190.806 187.014 190.903L186.432 191.097Z" fill="#0061FF"/>
<path d="M189.537 191.11C189.451 190.856 189.419 190.586 189.442 190.319C189.465 190.051 189.543 189.791 189.671 189.555C189.799 189.319 189.974 189.112 190.186 188.947C190.397 188.782 190.641 188.662 190.901 188.595C191.161 188.528 191.432 188.515 191.697 188.558C191.962 188.601 192.215 188.698 192.441 188.843C192.667 188.988 192.861 189.178 193.01 189.401C193.159 189.624 193.261 189.876 193.309 190.14L194.364 194.251C194.449 194.505 194.482 194.774 194.459 195.042C194.436 195.31 194.358 195.569 194.23 195.805C194.102 196.042 193.927 196.249 193.715 196.414C193.504 196.579 193.26 196.699 193 196.766C192.74 196.833 192.469 196.845 192.204 196.803C191.939 196.76 191.685 196.663 191.459 196.518C191.233 196.373 191.04 196.183 190.891 195.96C190.741 195.737 190.64 195.485 190.592 195.221L189.537 191.11ZM191.853 194.978C191.999 195.548 192.302 195.694 192.702 195.597C193.102 195.5 193.284 195.209 193.151 194.651L192.047 190.382C191.902 189.813 191.599 189.667 191.199 189.764C190.798 189.861 190.617 190.152 190.762 190.71L191.853 194.978Z" fill="#0061FF"/>
<path d="M195.272 187.519C195.526 187.431 195.797 187.402 196.064 187.435C196.33 187.468 196.586 187.56 196.812 187.706C197.037 187.853 197.227 188.048 197.365 188.278C197.504 188.508 197.589 188.767 197.613 189.034L197.673 189.277L196.461 189.58L196.376 189.253C196.23 188.695 195.939 188.537 195.551 188.634C195.163 188.731 194.981 189.01 195.127 189.58C195.272 190.15 195.636 190.514 196.63 191.011C197.843 191.666 198.401 192.224 198.631 193.145C198.754 193.4 198.82 193.679 198.822 193.962C198.824 194.246 198.764 194.526 198.645 194.783C198.526 195.04 198.352 195.267 198.134 195.449C197.917 195.63 197.662 195.762 197.388 195.833C197.114 195.904 196.828 195.914 196.549 195.861C196.271 195.808 196.008 195.695 195.779 195.528C195.55 195.361 195.361 195.146 195.225 194.898C195.089 194.649 195.01 194.374 194.993 194.091L194.86 193.606L196.073 193.303L196.218 193.873C196.364 194.431 196.667 194.576 197.067 194.467C197.467 194.358 197.649 194.103 197.504 193.533C197.358 192.963 197.006 192.6 196.012 192.09C194.739 191.448 194.242 190.878 194.011 189.968C193.904 189.727 193.853 189.464 193.861 189.2C193.869 188.936 193.936 188.677 194.056 188.442C194.177 188.207 194.349 188.002 194.56 187.843C194.77 187.683 195.014 187.572 195.272 187.519Z" fill="#0061FF"/>
<path d="M197.855 186.95L199.067 186.635L201.105 194.541L199.892 194.856L197.855 186.95Z" fill="#0061FF"/>
<path d="M199.65 186.489L203.482 185.506L203.773 186.634L202.476 186.974L204.222 193.74L203.009 194.067L201.227 187.35L199.929 187.677L199.65 186.489Z" fill="#0061FF"/>
<path d="M204.015 185.361L205.228 185.046L207.253 192.952L206.04 193.267L204.015 185.361Z" fill="#0061FF"/>
<path d="M206.549 186.732C206.464 186.477 206.431 186.208 206.454 185.94C206.477 185.673 206.555 185.413 206.683 185.177C206.811 184.941 206.986 184.734 207.198 184.568C207.409 184.403 207.653 184.283 207.913 184.216C208.173 184.15 208.444 184.137 208.709 184.18C208.974 184.222 209.228 184.319 209.454 184.464C209.68 184.609 209.873 184.799 210.022 185.022C210.172 185.246 210.273 185.497 210.321 185.762L211.376 189.872C211.462 190.127 211.494 190.396 211.471 190.664C211.448 190.931 211.37 191.191 211.242 191.427C211.114 191.663 210.939 191.87 210.727 192.035C210.516 192.201 210.272 192.321 210.012 192.387C209.752 192.454 209.481 192.467 209.216 192.424C208.951 192.382 208.697 192.285 208.472 192.14C208.246 191.995 208.052 191.805 207.903 191.581C207.753 191.358 207.652 191.107 207.604 190.842L206.549 186.732ZM208.866 190.612C209.011 191.17 209.314 191.315 209.714 191.218C210.115 191.121 210.296 190.842 210.151 190.272L209.06 186.004C208.914 185.446 208.611 185.289 208.211 185.398C207.811 185.507 207.629 185.774 207.774 186.344L208.866 190.612Z" fill="#0061FF"/>
<path d="M212.321 185.554L213.788 191.278L212.673 191.569L210.623 183.711L212.188 183.311L214.613 187.725L213.4 182.996L214.504 182.717L216.541 190.623L215.256 190.951L212.321 185.554Z" fill="#0061FF"/>
<path d="M194.241 183.275L194.678 183.166C195.066 183.069 195.345 182.838 195.187 182.232L193.635 176.169L194.848 175.841L196.375 181.783C196.776 183.36 196.036 183.99 195.102 184.208L194.496 184.342L194.241 183.275Z" fill="#0061FF"/>
<path d="M196.121 177.648C196.035 177.394 196.003 177.125 196.025 176.857C196.048 176.59 196.126 176.33 196.254 176.094C196.382 175.858 196.558 175.65 196.769 175.485C196.981 175.32 197.224 175.2 197.484 175.133C197.744 175.066 198.015 175.054 198.28 175.096C198.546 175.139 198.799 175.236 199.025 175.381C199.251 175.526 199.445 175.716 199.594 175.939C199.743 176.162 199.845 176.414 199.892 176.678L200.947 180.789C201.033 181.043 201.065 181.313 201.042 181.58C201.019 181.848 200.942 182.108 200.814 182.344C200.686 182.58 200.51 182.787 200.299 182.952C200.087 183.117 199.844 183.237 199.584 183.304C199.324 183.371 199.053 183.384 198.787 183.341C198.522 183.298 198.269 183.202 198.043 183.057C197.817 182.912 197.623 182.721 197.474 182.498C197.325 182.275 197.223 182.023 197.176 181.759L196.121 177.648ZM198.437 181.517C198.582 182.087 198.886 182.232 199.274 182.135C199.662 182.038 199.868 181.747 199.722 181.189L198.631 176.921C198.485 176.351 198.182 176.205 197.782 176.302C197.382 176.399 197.188 176.69 197.333 177.248L198.437 181.517Z" fill="#0061FF"/>
<path d="M204.391 175.38L204.464 175.659C204.588 175.961 204.617 176.294 204.545 176.613C204.474 176.932 204.305 177.221 204.063 177.441V177.441C204.803 177.538 205.276 178.048 205.422 178.884L205.591 179.527C205.702 179.777 205.751 180.05 205.736 180.323C205.721 180.595 205.642 180.861 205.505 181.097C205.368 181.334 205.177 181.535 204.947 181.683C204.718 181.832 204.457 181.924 204.185 181.952L202.232 182.449L200.207 174.555L202.075 174.01C202.315 173.902 202.578 173.854 202.841 173.869C203.104 173.884 203.36 173.962 203.587 174.096C203.814 174.23 204.005 174.417 204.145 174.64C204.285 174.864 204.369 175.117 204.391 175.38ZM201.735 175.38L202.269 177.478L202.754 177.344C203.227 177.235 203.457 176.956 203.287 176.326L203.178 175.877C203.033 175.319 202.778 175.113 202.329 175.234L201.735 175.38ZM202.56 178.605L203.19 181.031L203.894 180.849C204.318 180.74 204.488 180.485 204.342 179.903L204.16 179.212C203.979 178.484 203.675 178.314 203.118 178.46L202.56 178.605Z" fill="#0061FF"/>
<path d="M432.267 103.959L375.48 110.277C374.531 110.39 373.664 110.872 373.068 111.618C372.471 112.365 372.192 113.316 372.291 114.267L374.522 134.263C374.635 135.209 375.115 136.074 375.859 136.67C376.603 137.267 377.551 137.548 378.499 137.452L385.593 136.664L380.743 148.79L390.25 136.179L435.226 131.17C436.175 131.058 437.041 130.576 437.638 129.83C438.235 129.083 438.514 128.132 438.415 127.181L436.184 107.173C436.077 106.233 435.608 105.372 434.877 104.772C434.145 104.172 433.209 103.881 432.267 103.959V103.959Z" fill="white" stroke="#263238" stroke-width="2.02754" stroke-linecap="round" stroke-linejoin="round"/>
<path d="M383.749 126.815C383.617 126.525 383.542 126.212 383.531 125.893L383.398 124.681C383.325 123.965 383.058 123.735 382.512 123.796H382.1L382.44 126.9L381.227 127.033L380.378 119.394L382.185 119.2C382.421 119.13 382.67 119.117 382.912 119.163C383.154 119.209 383.381 119.313 383.575 119.465C383.768 119.617 383.922 119.813 384.025 120.037C384.127 120.261 384.174 120.506 384.162 120.752L384.234 121.358C384.31 121.66 384.292 121.977 384.181 122.268C384.071 122.559 383.873 122.808 383.616 122.983C384.246 123.165 384.501 123.711 384.598 124.499L384.719 125.711C384.736 126.032 384.819 126.346 384.962 126.633L383.749 126.815ZM381.712 120.412L381.979 122.765L382.44 122.704C382.888 122.704 383.143 122.437 383.07 121.819L382.985 121.067C382.925 120.521 382.719 120.303 382.294 120.352L381.712 120.412Z" fill="#263238"/>
<path d="M386.392 122.062L388.042 121.868L388.163 122.96L386.514 123.142L386.756 125.385L388.83 125.154L388.951 126.246L385.677 126.61L384.828 118.97L388.102 118.606L388.223 119.698L386.15 119.928L386.392 122.062Z" fill="#263238"/>
<path d="M388.89 120.366C388.855 120.122 388.869 119.874 388.931 119.636C388.993 119.398 389.103 119.176 389.253 118.981C389.404 118.786 389.592 118.624 389.806 118.504C390.021 118.384 390.257 118.308 390.502 118.281C390.746 118.254 390.994 118.276 391.229 118.347C391.465 118.418 391.684 118.536 391.873 118.693C392.062 118.85 392.217 119.044 392.33 119.262C392.443 119.481 392.51 119.72 392.528 119.965L392.977 123.931C393.02 124.299 392.979 124.672 392.856 125.022C392.928 125.168 393.025 125.18 393.219 125.155H393.329L393.45 126.222H393.28C393.079 126.27 392.868 126.257 392.674 126.186C392.48 126.115 392.311 125.989 392.189 125.822C391.928 125.943 391.65 126.021 391.364 126.053C391.114 126.102 390.856 126.094 390.609 126.03C390.362 125.966 390.133 125.848 389.937 125.684C389.742 125.52 389.586 125.315 389.48 125.083C389.374 124.851 389.322 124.598 389.327 124.343L388.89 120.366ZM390.54 124.282C390.6 124.828 390.867 125.01 391.243 124.961C391.619 124.913 391.837 124.695 391.776 124.149L391.316 120.026C391.255 119.48 391 119.298 390.612 119.335C390.224 119.371 390.018 119.614 390.079 120.159L390.54 124.282Z" fill="#263238"/>
<path d="M394.238 117.915L394.893 123.809C394.954 124.354 395.221 124.524 395.597 124.476C395.972 124.427 396.203 124.209 396.142 123.675L395.487 117.782L396.615 117.649L397.27 123.469C397.296 123.708 397.275 123.95 397.208 124.18C397.141 124.411 397.029 124.626 396.879 124.814C396.728 125.001 396.543 125.157 396.332 125.273C396.121 125.389 395.89 125.462 395.651 125.488C395.412 125.514 395.171 125.493 394.94 125.426C394.709 125.359 394.494 125.247 394.306 125.097C394.119 124.947 393.963 124.761 393.847 124.55C393.731 124.339 393.658 124.108 393.632 123.869L392.977 118.049L394.238 117.915Z" fill="#263238"/>
<path d="M397.427 117.564L398.64 117.431L399.489 125.058L398.276 125.191L397.427 117.564Z" fill="#263238"/>
<path d="M402.86 124.682C402.727 124.392 402.653 124.079 402.642 123.761L402.508 122.548C402.436 121.845 402.169 121.602 401.623 121.663H401.211L401.55 124.767L400.338 124.901L399.489 117.273L401.296 117.067C401.533 116.999 401.782 116.989 402.024 117.037C402.265 117.085 402.492 117.19 402.685 117.342C402.878 117.495 403.032 117.692 403.134 117.916C403.236 118.14 403.284 118.385 403.272 118.631L403.345 119.226C403.423 119.527 403.405 119.845 403.295 120.136C403.184 120.427 402.985 120.677 402.727 120.85V120.85C403.357 121.032 403.612 121.578 403.709 122.378L403.842 123.591C403.849 123.908 403.928 124.219 404.073 124.5L402.86 124.682ZM400.823 118.292L401.09 120.632H401.55C401.999 120.632 402.254 120.353 402.181 119.747L402.096 118.995C402.036 118.449 401.829 118.231 401.405 118.28L400.823 118.292Z" fill="#263238"/>
<path d="M405.443 119.929L407.092 119.747L407.213 120.839L405.564 121.02L405.806 123.252L407.88 123.021L408.001 124.113L404.739 124.476L403.878 116.849L407.152 116.485L407.274 117.577L405.2 117.807L405.443 119.929Z" fill="#263238"/>
<path d="M411.022 121.541L411.228 116.036L412.901 115.854L413.75 123.481L412.61 123.615L412.004 118.134L411.858 123.688L410.718 123.821L409.251 118.522L409.857 123.918L408.802 124.027L407.954 116.4L409.627 116.218L411.022 121.541Z" fill="#263238"/>
<path d="M415.35 118.825L416.987 118.643L417.109 119.735L415.472 119.917L415.714 122.148L417.788 121.917L417.909 123.009L414.635 123.373L413.786 115.745L417.06 115.381L417.181 116.473L415.108 116.703L415.35 118.825Z" fill="#263238"/>
<path d="M419.134 117.272L419.752 122.802L418.673 122.911L417.824 115.284L419.328 115.114L421.05 119.552L420.54 114.98L421.607 114.859L422.456 122.486L421.244 122.632L419.134 117.272Z" fill="#263238"/>
<path d="M422.104 114.811L425.815 114.399L425.936 115.49L424.724 115.636L425.451 122.172L424.239 122.305L423.511 115.769L422.298 115.902L422.104 114.811Z" fill="#263238"/>
<path d="M427.937 114.082C429.15 113.949 429.78 114.579 429.913 115.804V116.035L428.786 116.168V115.853C428.725 115.307 428.483 115.125 428.095 115.162C427.707 115.198 427.525 115.44 427.585 115.986C427.646 116.532 427.937 116.92 428.798 117.526C429.22 117.748 429.584 118.067 429.858 118.457C430.132 118.847 430.309 119.297 430.374 119.769C430.438 120.011 430.447 120.263 430.4 120.508C430.353 120.753 430.253 120.985 430.105 121.186C429.957 121.387 429.767 121.553 429.547 121.671C429.327 121.788 429.083 121.856 428.834 121.867C428.585 121.913 428.329 121.902 428.085 121.835C427.841 121.769 427.615 121.649 427.423 121.484C427.231 121.319 427.079 121.113 426.977 120.881C426.875 120.65 426.826 120.398 426.833 120.145V119.672L427.973 119.551L428.034 120.097C428.095 120.643 428.349 120.812 428.737 120.764C429.125 120.715 429.331 120.497 429.271 119.951C429.21 119.406 428.919 119.005 428.058 118.411C427.636 118.19 427.272 117.871 426.998 117.481C426.724 117.09 426.547 116.64 426.482 116.168C426.239 114.967 426.761 114.204 427.937 114.082Z" fill="#263238"/>
<path d="M129.827 265.806L475.302 227.329" stroke="#263238" stroke-width="2.02754" stroke-linecap="round" stroke-linejoin="round"/>
<path d="M132.338 260.943C130.791 260.236 129.098 259.907 127.399 259.983C125.699 260.059 124.042 260.538 122.564 261.38C120.009 262.917 118.009 265.227 116.853 267.977C112.815 276.392 101.695 295.661 99.7551 301.19C97.8149 306.72 93.692 322.011 89.1204 328.632C84.5488 335.253 82.354 344.99 82.354 344.99L85.9919 437.391C87.9199 423.883 94.4802 408.288 94.4802 408.288C100.783 404.534 106.015 399.222 109.674 392.864C110.775 391.552 111.75 390.139 112.585 388.644C119.302 376.772 121.667 355.976 121.073 339.982C120.454 321.853 125.851 313.304 134.412 296.97C142.973 280.636 138.716 264.096 132.338 260.943Z" fill="white"/>
<path opacity="0.4" d="M132.338 260.944C130.785 260.258 129.095 259.94 127.4 260.016C125.704 260.091 124.049 260.558 122.564 261.38C127.839 262.484 134.811 264.751 133.477 268.814C131.392 275.228 123.643 266.389 120.211 269.602C116.78 272.815 104.678 291.005 113.457 298.159C122.236 305.314 120.357 318.313 114.888 322.254C109.419 326.195 113.603 334.598 116.21 348.046C117.798 356.183 114.997 374.99 112.572 388.584C119.29 376.712 121.654 355.916 121.06 339.922C120.442 321.793 125.838 313.244 134.399 296.91C142.96 280.576 138.704 263.878 132.338 260.944Z" fill="#0061FF"/>
<path d="M86.004 437.331C87.932 423.835 94.4923 408.229 94.4923 408.229C100.797 404.472 106.032 399.162 109.699 392.804C118.611 382.291 121.716 358.039 121.097 339.922C120.479 321.806 125.948 313.305 134.436 296.898C142.924 280.492 139.395 264.291 132.314 260.944C127.378 258.616 120.879 259.562 116.829 267.978C112.779 276.393 101.671 295.662 99.7308 301.179C97.7906 306.696 93.6677 322.012 89.0962 328.645C84.5246 335.278 82.354 344.991 82.354 344.991" stroke="#263238" stroke-width="2.02754" stroke-linecap="round" stroke-linejoin="round"/>
<path d="M107.492 302.355C107.492 302.355 114.925 302.585 118.405 305.168" stroke="#263238" stroke-width="2.02754" stroke-linecap="round" stroke-linejoin="round"/>
<path d="M79.5283 343.221C79.5283 343.221 77.8913 339.825 85.2397 336.018" stroke="#263238" stroke-width="2.02754" stroke-linecap="round" stroke-linejoin="round"/>
<path opacity="0.2" d="M339.828 274.003C354.646 274.125 373.187 340.916 378.959 348.604C378.959 348.604 461.72 351.453 472.149 362.997C482.577 374.541 477.412 384.291 484.275 395.241C491.138 406.191 493.103 424.647 493.103 424.647L511.292 455.338L433.333 492.687C433.333 492.687 391.68 468.822 381.518 463.438C371.356 458.054 341.247 446.292 333.244 431.086C325.24 415.88 324.84 401.607 323.118 395.289C321.396 388.972 354.865 370.055 354.865 370.055L339.828 274.003Z" fill="black" fill-opacity="0.7"/>
<path d="M521.672 461.401C514.954 455.193 507.897 448.596 502.089 443.139C494.679 436.179 489.308 431.098 489.308 431.098C484.894 421.834 481.013 418.717 476.126 411.405C471.24 404.093 471.991 396.381 470.839 386.17C469.687 375.96 465.552 367.169 463.018 361.154C460.484 355.14 460.278 348.919 459.768 347.573C459.259 346.227 451.583 340.297 448.03 335.447C446.437 333.284 444.489 331.407 442.27 329.893C439.788 328.132 436.933 326.966 433.927 326.486C432.681 326.318 431.42 326.294 430.168 326.413C427.698 326.807 425.265 327.403 422.893 328.195C419.764 328.947 411.858 325.127 407.298 325.309C406.449 325.309 405.613 325.431 404.764 325.552C400.84 326.285 396.98 327.327 393.22 328.668C389.109 329.881 383.24 327.189 378.996 326.874H378.911C377.967 326.771 377.011 326.891 376.122 327.225C372.108 328.911 364.432 331.481 364.432 331.481C364.432 331.481 362.456 326.255 360.346 319.016C359.982 317.803 359.606 316.591 359.206 315.378C357.727 310.964 356.114 307.072 355.119 303.409C354.856 302.471 354.642 301.52 354.477 300.56C353.579 295.261 352.44 291.223 350.366 283.292L350.148 282.443C349.493 280.018 348.935 277.593 348.317 275.459C346.777 270.317 344.679 266.752 339.331 267.189C334.626 267.577 332.055 270.584 331.922 278.539C331.789 286.493 330.273 286.287 332.371 297.383C334.469 308.478 333.693 316.045 335.378 321.526C337.064 327.007 338.422 338.102 338.422 338.102C336.081 337.557 334.372 338.891 334.226 339.849C334.081 340.807 334.566 349.707 334.808 356.098C335.014 361.773 331.279 367.957 330.346 372.128C330.346 372.128 330.346 372.201 330.346 372.225C330.242 372.675 330.181 373.134 330.164 373.596C330.03 377.67 332.516 385.722 335.014 396.187C337.512 406.652 337.44 418.014 341.756 424.392C342.649 425.678 343.742 426.812 344.994 427.751C350.184 431.741 358.575 434.251 367.173 440.593C377.905 448.535 385.58 454.429 391.935 456.357C396.494 457.763 398.701 459.267 400.047 461.632C400.584 462.669 400.992 463.769 401.26 464.906C401.866 467.101 403.479 468.544 406.183 470.847C410.413 474.383 414.313 478.296 417.836 482.537C421.134 486.466 426.591 494.154 432.387 502.703L521.672 461.401Z" fill="white"/>
<path opacity="0.4" d="M354.429 300.524C354.593 301.484 354.808 302.435 355.071 303.374C348.111 303.713 336.045 310.067 336.785 314.033C337.707 318.883 339.829 330.342 342.848 332.392C345.867 334.441 351.543 334.89 351.543 334.89C351.167 335.009 350.798 335.151 350.439 335.314V335.314L350.318 335.375C348.737 336.132 347.423 337.349 346.547 338.867V338.867C342.715 345.306 345.261 356.935 348.268 362.101C360.771 383.588 353.859 404.615 349.336 403.33C344.813 402.044 339.707 382.242 339.804 377.283C339.884 374.38 339.57 371.479 338.871 368.661C336.955 368.491 333.426 370.249 330.249 372.129C330.249 372.129 330.249 372.068 330.249 372.032C331.183 367.861 334.918 361.676 334.711 356.001C334.469 349.611 333.972 340.71 334.129 339.752C334.287 338.794 335.985 337.46 338.325 338.006C338.325 338.006 336.955 326.923 335.281 321.429C333.608 315.936 334.372 308.394 332.274 297.286C330.176 286.179 331.692 286.373 331.825 278.442C331.959 270.512 334.53 267.529 339.234 267.092C344.606 266.656 346.68 270.221 348.22 275.362C347.493 274.952 346.74 274.591 345.965 274.283C344.021 273.402 341.818 273.285 339.792 273.956C337.464 274.865 335.936 277.775 335.221 280.649C334.178 284.784 334.821 288.859 337.197 286.858C339.889 284.602 346.316 283.596 350.281 283.22C352.44 291.187 353.531 295.273 354.429 300.524Z" fill="#0061FF"/>
<path opacity="0.4" d="M401.247 464.932C400.981 463.798 400.574 462.702 400.034 461.67C398.688 459.305 396.481 457.801 391.922 456.395C385.568 454.418 377.892 448.525 367.16 440.631C358.563 434.289 350.184 431.779 344.981 427.789C350.681 429.317 357.205 426.273 360.394 430.081C365.026 435.574 382.039 441.504 382.039 441.504C399.731 452.26 401.247 464.932 401.247 464.932Z" fill="#0061FF"/>
<path opacity="0.4" d="M378.875 326.802C377.104 326.802 375.237 339.28 375.734 343.415C377.08 354.098 390.104 384.947 383.01 385.857C380.087 386.245 373.176 372.033 371.296 365.097C365.609 343.997 364.348 334.963 364.348 334.963C364.348 334.963 360.019 323.565 359.121 315.307C359.522 316.519 359.897 317.732 360.261 318.944C362.371 326.22 364.348 331.41 364.348 331.41C364.348 331.41 372.024 328.839 376.037 327.154C376.942 326.812 377.914 326.692 378.875 326.802Z" fill="#0061FF"/>
<path opacity="0.4" d="M404.728 325.588C401.09 326.801 398.241 331.324 395.367 332.694C391.85 334.379 383.059 327.661 378.96 326.91C383.204 327.225 389.073 329.965 393.184 328.704C396.944 327.363 400.804 326.321 404.728 325.588V325.588Z" fill="#0061FF"/>
<path opacity="0.4" d="M430.145 326.378C428.86 329.114 427.997 332.03 427.586 335.024C426.907 345.38 438.5 381.201 432.218 376.375C424.094 370.105 424.191 341.621 417.182 332.429C414.939 329.483 408.524 325.457 407.299 325.275C411.859 325.093 419.765 328.913 422.893 328.161C425.258 327.37 427.683 326.773 430.145 326.378V326.378Z" fill="#0061FF"/>
<path opacity="0.4" d="M502.065 443.09C495.868 438.749 489.465 434.723 485.682 433.511C476.393 430.673 472.877 426.235 470.197 418.147C467.517 410.059 469.663 409.731 470.197 400.964C470.731 392.197 463.722 383.163 464.595 385.273C465.468 387.383 465.25 403.462 462.606 404.857C459.962 406.251 456.543 396.308 454.215 388.062C451.886 379.816 447.145 340.006 444.065 332.73C443.636 331.667 443.038 330.68 442.295 329.808C444.514 331.321 446.461 333.199 448.055 335.362C451.608 340.212 459.283 346.117 459.793 347.488C460.302 348.858 460.496 355.054 463.043 361.069C465.589 367.084 469.712 375.863 470.864 386.085C472.016 396.308 471.288 404.02 476.151 411.32C481.013 418.62 484.918 421.748 489.332 431.013C489.284 431.085 494.655 436.13 502.065 443.09Z" fill="#0061FF"/>
<path opacity="0.4" d="M401.636 348.058C403.952 349.561 411.216 374.735 413.762 380.798C416.309 386.862 416.648 402.626 413.701 398.503C410.755 394.38 392.19 341.934 401.636 348.058Z" fill="#0061FF"/>
<path d="M430.18 499.478C425.208 492.263 420.697 485.982 417.824 482.562C414.301 478.321 410.401 474.408 406.17 470.872C403.466 468.544 401.853 467.125 401.247 464.931C400.982 463.797 400.574 462.701 400.034 461.669C398.688 459.304 396.481 457.8 391.922 456.394C385.568 454.417 377.892 448.524 367.16 440.63C358.563 434.288 350.184 431.778 344.982 427.788C343.73 426.849 342.636 425.715 341.744 424.429C337.463 418.099 337.5 406.664 335.002 396.224C332.504 385.783 330.018 377.707 330.151 373.633C330.168 373.171 330.229 372.712 330.333 372.263C330.333 372.263 330.333 372.202 330.333 372.166C331.267 367.994 335.002 361.81 334.796 356.135C334.553 349.744 334.056 340.844 334.214 339.886C334.371 338.928 336.069 337.594 338.409 338.14C338.409 338.14 337.039 327.056 335.366 321.563C333.692 316.07 334.456 308.527 332.358 297.42C330.261 286.312 331.776 286.506 331.91 278.576C332.043 270.645 334.614 267.662 339.319 267.226C344.691 266.789 346.764 270.354 348.304 275.496C348.947 277.618 349.517 280.007 350.135 282.48L350.354 283.329C352.427 291.26 353.567 295.298 354.464 300.597C354.629 301.557 354.844 302.508 355.107 303.447C356.101 307.084 357.714 311.001 359.194 315.415C359.594 316.628 359.97 317.84 360.333 319.053C362.443 326.329 364.42 331.519 364.42 331.519C364.42 331.519 372.096 328.948 376.11 327.262C376.999 326.928 377.954 326.808 378.899 326.911H378.983C383.228 327.226 389.097 329.966 393.207 328.705C396.967 327.364 400.827 326.322 404.752 325.589V325.589C405.6 325.468 406.437 325.383 407.286 325.346C411.845 325.164 419.752 328.984 422.88 328.232C425.252 327.44 427.686 326.844 430.156 326.45C431.408 326.331 432.669 326.355 433.915 326.523C436.921 327.003 439.775 328.169 442.258 329.93C444.477 331.444 446.424 333.321 448.018 335.484C451.571 340.334 459.247 346.24 459.756 347.61C460.265 348.98 460.459 355.177 463.006 361.191C465.552 367.206 469.675 375.985 470.827 386.208C471.979 396.43 471.251 404.142 476.114 411.442C480.977 418.742 484.881 421.871 489.295 431.135C489.295 431.135 494.667 436.216 502.076 443.176C507.23 448.027 513.366 453.75 519.368 459.316" stroke="#263238" stroke-width="2.02754" stroke-linecap="round" stroke-linejoin="round"/>
<path d="M338.361 338.055C340.192 345.718 341.768 355.407 341.55 359.639C341.332 363.871 345.285 376.907 344.485 382.994" stroke="#263238" stroke-width="2.02754" stroke-linecap="round" stroke-linejoin="round"/>
<path d="M343.758 343.148C343.758 343.148 347.65 335.872 351.603 334.89C355.556 333.908 360.091 335.557 364.396 335.023C368.701 334.49 372.303 330.367 376.134 328.669" stroke="#263238" stroke-width="2.02754" stroke-linecap="round" stroke-linejoin="round"/>
<path d="M340.096 314.493C340.096 314.493 346.656 310.139 351.009 311.873" stroke="#263238" stroke-width="2.02754" stroke-linecap="round" stroke-linejoin="round"/>
<path d="M344.74 309.825C346.545 309.078 348.549 308.962 350.427 309.498" stroke="#263238" stroke-width="2.02754" stroke-linecap="round" stroke-linejoin="round"/>
<path d="M338.373 291.636C340.672 290.515 343.189 289.915 345.746 289.878" stroke="#263238" stroke-width="2.02754" stroke-linecap="round" stroke-linejoin="round"/>
<path d="M330.297 372.08C332.125 370.535 334.103 369.178 336.203 368.03" stroke="#263238" stroke-width="2.02754" stroke-linecap="round" stroke-linejoin="round"/>
<path d="M344.194 376.289C343.359 378.619 342.766 381.028 342.424 383.48" stroke="#263238" stroke-width="2.02754" stroke-linecap="round" stroke-linejoin="round"/>
<path d="M333.875 272.852C333.875 272.852 334.881 281.983 336.179 282.553C337.476 283.122 346.256 281.764 346.583 280.067C346.91 278.369 345.492 271.845 345.492 271.845C345.492 271.845 338.24 264.194 333.875 272.852Z" stroke="#263238" stroke-width="2.02754" stroke-linecap="round" stroke-linejoin="round"/>
<path d="M334.747 356.049C334.747 356.049 341.005 350.75 339.95 345.572C338.895 340.394 336.809 340.94 334.153 341.546" stroke="#263238" stroke-width="2.02754" stroke-linecap="round" stroke-linejoin="round"/>
<path d="M448.589 341.171C450.771 349.235 454.106 373.475 454.652 377.016C455.197 380.556 457.61 389.409 457.61 389.409" stroke="#263238" stroke-width="2.02754" stroke-linecap="round" stroke-linejoin="round"/>
<path d="M393.293 334.733C403.624 344.058 394.942 341.657 412.549 393.727" stroke="#263238" stroke-width="2.02754" stroke-linecap="round" stroke-linejoin="round"/>
<path d="M489.283 431.086C489.283 431.086 481.232 427.448 479.352 424.695" stroke="#263238" stroke-width="2.02754" stroke-linecap="round" stroke-linejoin="round"/>
<path d="M393.887 451.203C396.724 454.101 399.792 461.195 399.95 461.631" stroke="#263238" stroke-width="2.02754" stroke-linecap="round" stroke-linejoin="round"/>
</svg>
