<svg width="508" height="508" viewBox="0 0 508 508" fill="none" xmlns="http://www.w3.org/2000/svg">
<path d="M426.674 81.9807C432.756 85.7403 439.764 87.7318 446.914 87.7318C454.064 87.7318 461.073 85.7403 467.154 81.9807C474.277 77.5773 479.77 70.9711 482.799 63.164C485.828 55.357 486.229 46.775 483.94 38.7197C481.651 30.6645 476.798 23.5754 470.116 18.5277C463.434 13.48 455.288 10.749 446.914 10.749C438.54 10.749 430.394 13.48 423.713 18.5277C417.031 23.5754 412.177 30.6645 409.889 38.7197C407.6 46.775 408 55.357 411.029 63.164C414.059 70.9711 419.551 77.5773 426.674 81.9807V81.9807Z" fill="#EBEBEB"/>
<path d="M435.198 44.8361C435.198 47.1547 435.885 49.4212 437.173 51.349C438.462 53.2768 440.292 54.7793 442.434 55.6666C444.577 56.5539 446.934 56.786 449.208 56.3337C451.482 55.8814 453.57 54.7649 455.21 53.1254C456.849 51.4859 457.966 49.3971 458.418 47.1231C458.871 44.8491 458.638 42.492 457.751 40.35C456.864 38.2079 455.361 36.3771 453.433 35.0889C451.506 33.8008 449.239 33.1133 446.921 33.1133C445.381 33.1117 443.856 33.4138 442.433 34.0023C441.01 34.5909 439.717 35.4543 438.628 36.5432C437.539 37.6321 436.675 38.925 436.087 40.3481C435.498 41.7711 435.196 43.2962 435.198 44.8361Z" fill="white"/>
<path d="M426.675 77.1497V81.9797C432.756 85.7394 439.765 87.7308 446.915 87.7308C454.065 87.7308 461.073 85.7394 467.155 81.9797V77.1621C467.222 74.4621 466.748 71.776 465.76 69.262C464.773 66.748 463.293 64.4569 461.407 62.5237C459.521 60.5904 457.267 59.0541 454.778 58.0051C452.289 56.9562 449.616 56.4158 446.915 56.4158C444.214 56.4158 441.541 56.9562 439.052 58.0051C436.563 59.0541 434.309 60.5904 432.423 62.5237C430.537 64.4569 429.057 66.748 428.07 69.262C427.082 71.776 426.608 74.4621 426.675 77.1621V77.1497Z" fill="white"/>
<path d="M102.815 83.6268C107.767 71.1766 101.688 57.0692 89.238 52.1171C76.7877 47.1651 62.6803 53.2436 57.7283 65.6939C52.7763 78.1441 58.8548 92.2515 71.305 97.2035C83.7553 102.156 97.8626 96.0771 102.815 83.6268Z" fill="#EBEBEB"/>
<path d="M92.6426 77.6685C88.9368 85.0801 80.2898 89.453 80.2898 89.453C80.2898 89.453 71.5687 85.0678 67.937 77.6685C64.8858 71.492 66.8129 64.8462 71.6428 63.3886C78.5481 61.301 80.2898 73.3326 80.2898 73.3326C80.2898 73.3326 82.0563 61.301 88.9368 63.3886C93.7667 64.8462 95.6938 71.5662 92.6426 77.6685Z" fill="white"/>
<path d="M466.426 294.092C476.985 276.855 471.571 254.321 454.334 243.762C437.096 233.203 414.563 238.617 404.004 255.855C393.445 273.092 398.859 295.626 416.096 306.185C433.334 316.744 455.867 311.33 466.426 294.092Z" fill="#EBEBEB"/>
<path d="M451.776 284.703C443.252 293.782 428.75 296.327 428.75 296.327C428.75 296.327 418.065 286.198 415.99 273.931C414.273 263.691 419.967 254.908 427.552 254.896C438.447 254.896 435.766 273.029 435.766 273.029C435.766 273.029 443.561 256.427 452.64 262.455C458.965 266.655 458.866 277.118 451.776 284.703Z" fill="white"/>
<path fill-rule="evenodd" clip-rule="evenodd" d="M35.8443 214.489C34.3126 213.538 32.9908 212.154 30.9032 212.364C30.125 212.438 30.2979 211.796 30.2856 211.364C30.2856 203.705 30.2567 196.055 30.1991 188.412C30.1991 187.844 30.1991 187.387 30.8291 187.091C36.672 184.113 39.1796 178.308 42.7496 173.342C44.5773 170.874 45.8899 168.063 46.6093 165.077C47.3287 162.091 47.4402 158.991 46.9372 155.961C46.6777 154.232 47.4807 153.491 49.0371 153.108C50.9024 152.676 52.743 153.182 53.41 154.467C55.1016 157.587 56.2424 160.976 56.7824 164.485C57.1282 167.388 56.0906 170.217 55.7447 173.132C55.4853 175.244 55.0036 177.319 54.6083 179.444C55.1271 179.815 55.72 179.629 56.2635 179.629L75.6698 179.568C78.3874 179.568 79.7339 180.346 80.1168 182.149C80.3132 183.241 80.1554 184.367 79.6665 185.363C79.1776 186.358 78.3831 187.171 77.3992 187.683C76.9174 187.918 76.0404 187.683 75.991 188.462C75.9416 189.24 76.831 189.153 77.2263 189.462C79.5733 191.056 79.1533 194.403 76.448 196.293C75.8057 196.763 74.5334 196.553 74.5087 197.529C74.4839 198.505 75.7439 198.282 76.2133 198.764C78.1157 200.629 77.1892 204.113 74.3604 205.533C73.9753 205.654 73.5995 205.802 73.2363 205.978C72.9151 206.188 72.594 206.435 73.2363 206.88C76.0404 208.869 75.991 211.648 73.2363 213.686L72.3963 214.304C71.3754 214.916 70.1834 215.181 68.9993 215.057L38.5743 215.168C38.097 215.245 37.609 215.225 37.1398 215.108C36.6707 214.991 36.23 214.781 35.8443 214.489V214.489Z" fill="#EBEBEB"/>
<path fill-rule="evenodd" clip-rule="evenodd" d="M6.9876 201.087C6.9876 196.232 6.9876 191.365 6.9876 186.498C6.9876 185.51 7.07407 185.028 8.22288 185.028C14.1646 185.09 20.0816 185.028 26.0109 185.028C27.2462 185.028 27.3574 185.411 27.3574 186.449C27.3574 196.232 27.3945 206.02 27.4686 215.811C27.4686 217.047 27.135 217.405 25.8874 217.392C20.131 217.392 14.3746 217.392 8.59347 217.454C7.16054 217.454 6.9629 216.985 6.97525 215.725C6.98761 210.821 6.9876 205.954 6.9876 201.087Z" fill="#EBEBEB"/>
<path fill-rule="evenodd" clip-rule="evenodd" d="M475.159 373.235C474.269 372.679 473.491 371.864 472.293 372C471.836 372 471.935 371.666 471.922 371.419C471.922 366.923 471.922 362.426 471.922 357.93C471.895 357.778 471.916 357.621 471.983 357.481C472.049 357.342 472.158 357.226 472.293 357.152C475.727 355.41 477.234 352 479.297 349.085C480.372 347.635 481.145 345.983 481.569 344.228C481.994 342.473 482.061 340.651 481.768 338.869C481.619 337.856 482.089 337.412 483.003 337.202C483.459 337.039 483.956 337.028 484.419 337.171C484.882 337.313 485.286 337.601 485.572 337.992C486.565 339.828 487.234 341.821 487.549 343.885C487.543 345.586 487.34 347.282 486.943 348.937C486.783 350.172 486.499 351.407 486.276 352.643C486.573 352.853 486.931 352.742 487.252 352.742H498.642C500.247 352.742 501.026 353.186 501.248 354.249C501.375 354.903 501.283 355.58 500.986 356.177C500.689 356.773 500.204 357.255 499.605 357.547C499.321 357.695 498.814 357.547 498.777 358.004C498.74 358.461 499.271 358.412 499.543 358.597C500.914 359.536 500.667 361.475 499.086 362.611C498.703 362.883 497.962 362.76 497.937 363.316C497.913 363.871 498.629 363.76 498.938 364.069C499.185 364.385 499.355 364.753 499.434 365.146C499.513 365.539 499.499 365.945 499.394 366.331C499.288 366.718 499.094 367.074 498.826 367.372C498.558 367.67 498.224 367.901 497.851 368.047C497.624 368.12 497.401 368.207 497.184 368.306C496.999 368.442 496.813 368.578 497.184 368.837C498.827 370.011 498.802 371.641 497.184 372.84L496.69 373.198C496.095 373.563 495.395 373.72 494.701 373.643C488.739 373.643 482.78 373.663 476.826 373.704C476.531 373.748 476.23 373.729 475.942 373.648C475.655 373.568 475.388 373.427 475.159 373.235V373.235Z" fill="#EBEBEB"/>
<path fill-rule="evenodd" clip-rule="evenodd" d="M458.137 365.367C458.137 362.513 458.137 359.647 458.137 356.794C458.137 356.213 458.137 355.929 458.903 355.941C462.387 355.941 465.87 355.941 469.354 355.941C470.033 355.941 470.144 356.164 470.144 356.769C470.144 362.534 470.144 368.298 470.144 374.063C470.144 374.804 469.947 375.002 469.218 375.002C465.833 375.002 462.461 375.002 459.076 375.002C458.236 375.002 458.125 374.718 458.125 373.989C458.187 371.086 458.15 368.22 458.137 365.367Z" fill="#EBEBEB"/>
<path d="M64.2805 350.42H59.8211C59.1545 350.433 58.4921 350.312 57.8737 350.063C57.2553 349.813 56.6937 349.441 56.2228 348.969C55.752 348.497 55.3815 347.935 55.1337 347.316C54.886 346.697 54.766 346.034 54.7812 345.368C54.7877 344.033 55.3208 342.755 56.2645 341.811C57.2083 340.867 58.4864 340.334 59.8211 340.328H65.9975L68.9004 323.466H63.3046C61.9679 323.466 60.686 322.935 59.7408 321.99C58.7957 321.045 58.2647 319.763 58.2647 318.426C58.2647 317.089 58.7957 315.808 59.7408 314.862C60.686 313.917 61.9679 313.386 63.3046 313.386H70.7163L72.6434 301.849C72.8323 300.66 73.4486 299.581 74.3765 298.815C75.3045 298.048 76.4803 297.647 77.6833 297.686C78.4187 297.697 79.1431 297.866 79.8083 298.179C80.4735 298.493 81.0642 298.945 81.5411 299.505C82.018 300.065 82.3701 300.72 82.5739 301.426C82.7777 302.133 82.8287 302.875 82.7232 303.603L80.9939 313.386H96.1755L98.1149 301.849C98.3055 300.642 98.9362 299.549 99.8851 298.781C100.834 298.012 102.034 297.622 103.254 297.686C103.984 297.701 104.702 297.873 105.36 298.19C106.019 298.506 106.602 298.96 107.07 299.521C107.538 300.081 107.88 300.736 108.075 301.44C108.269 302.144 108.31 302.881 108.195 303.603L106.539 313.386H111.024C112.355 313.396 113.629 313.931 114.568 314.875C115.507 315.818 116.036 317.095 116.039 318.426C116.02 319.753 115.486 321.02 114.55 321.96C113.615 322.901 112.35 323.441 111.024 323.466H104.847L101.944 340.328H107.454C108.118 340.321 108.777 340.447 109.392 340.698C110.007 340.948 110.566 341.319 111.036 341.788C111.507 342.258 111.879 342.816 112.131 343.43C112.383 344.045 112.511 344.703 112.506 345.368C112.499 346.706 111.965 347.987 111.019 348.933C110.073 349.879 108.792 350.413 107.454 350.42H100.19L98.1519 362.328C97.963 363.517 97.3467 364.596 96.4187 365.362C95.4907 366.129 94.3149 366.53 93.112 366.491C92.3747 366.493 91.6456 366.337 90.9744 366.032C90.3031 365.727 89.7056 365.28 89.2225 364.724C88.7394 364.167 88.3822 363.512 88.1751 362.804C87.968 362.097 87.916 361.353 88.0226 360.623L89.8755 350.445H74.6445L72.6186 362.353C72.3988 363.536 71.7646 364.603 70.8297 365.361C69.8948 366.119 68.7204 366.52 67.5169 366.491C66.7822 366.504 66.0538 366.353 65.3848 366.049C64.7157 365.745 64.123 365.295 63.6496 364.733C63.1763 364.171 62.8343 363.511 62.6485 362.8C62.4627 362.089 62.4379 361.345 62.5758 360.623L64.2805 350.42ZM91.5308 340.328L94.4461 323.466H79.3139L76.3986 340.328H91.5308Z" fill="#EBEBEB"/>
<path d="M382.267 232.721H378.709C378.18 232.725 377.655 232.623 377.166 232.421C376.677 232.22 376.232 231.923 375.859 231.549C375.485 231.174 375.19 230.728 374.99 230.238C374.79 229.748 374.69 229.224 374.695 228.694C374.701 227.632 375.126 226.614 375.878 225.863C376.629 225.111 377.646 224.686 378.709 224.68H383.65L385.973 211.24H381.476C380.448 211.183 379.481 210.734 378.774 209.987C378.066 209.239 377.672 208.248 377.672 207.219C377.672 206.19 378.066 205.199 378.774 204.451C379.481 203.704 380.448 203.255 381.476 203.198H387.368L388.888 194.008C389.041 193.059 389.534 192.198 390.275 191.587C391.016 190.975 391.954 190.655 392.915 190.685C393.501 190.694 394.078 190.829 394.608 191.079C395.139 191.33 395.609 191.69 395.989 192.137C396.369 192.583 396.649 193.105 396.811 193.669C396.974 194.232 397.014 194.823 396.93 195.404L395.558 203.198H407.677L409.221 194.008C409.377 193.049 409.88 192.181 410.633 191.569C411.387 190.956 412.339 190.642 413.309 190.685C413.892 190.699 414.464 190.837 414.989 191.09C415.513 191.343 415.978 191.705 416.352 192.151C416.726 192.598 417 193.118 417.157 193.679C417.314 194.24 417.35 194.828 417.262 195.404L415.941 203.198H419.572C420.636 203.205 421.654 203.632 422.404 204.386C423.154 205.141 423.575 206.161 423.575 207.225C423.559 208.283 423.132 209.293 422.386 210.042C421.639 210.791 420.63 211.221 419.572 211.24H414.631L412.247 224.742H416.645C417.174 224.737 417.699 224.837 418.189 225.037C418.679 225.237 419.124 225.532 419.499 225.906C419.874 226.279 420.17 226.724 420.372 227.213C420.573 227.702 420.675 228.227 420.672 228.756C420.668 229.823 420.243 230.846 419.489 231.6C418.734 232.355 417.712 232.78 416.645 232.783H410.851L409.233 242.27C409.073 243.215 408.578 244.072 407.838 244.682C407.099 245.292 406.164 245.615 405.206 245.593C404.62 245.591 404.041 245.462 403.509 245.216C402.977 244.97 402.504 244.612 402.123 244.166C401.742 243.721 401.461 243.198 401.3 242.634C401.14 242.07 401.102 241.479 401.191 240.899L402.661 232.783H390.531L388.9 242.27C388.734 243.222 388.231 244.082 387.482 244.692C386.733 245.302 385.789 245.622 384.824 245.593C384.237 245.602 383.656 245.479 383.122 245.235C382.588 244.991 382.116 244.632 381.738 244.182C381.361 243.733 381.089 243.205 380.941 242.637C380.793 242.069 380.773 241.475 380.883 240.899L382.267 232.721ZM403.983 224.742L406.305 211.302H394.249L391.927 224.742H403.983Z" fill="#EBEBEB"/>
<path d="M254.044 507.658C394.221 507.658 507.857 493.019 507.857 474.96C507.857 456.902 394.221 442.262 254.044 442.262C113.866 442.262 0.230225 456.902 0.230225 474.96C0.230225 493.019 113.866 507.658 254.044 507.658Z" fill="#EBEBEB"/>
<path d="M73.5191 296.511C72.1689 301.429 71.2797 306.462 70.8632 311.544C70.9991 311.791 70.962 312.78 70.8632 312.471C70.8632 313.299 69.6279 313.15 69.6279 312.335C69.6279 311.804 69.6279 311.273 69.6279 310.754C66.688 307.11 62.4262 304.8 58.9798 301.625C56.1989 299.141 54.1776 295.92 53.1493 292.336C50.2834 282.454 52.964 272.04 49.5299 262.207C46.5652 253.733 41.2412 246.359 36.7447 238.737C31.9889 230.609 28.4807 222.073 28.0978 212.561C27.8137 205.286 28.6907 195.576 34.2742 190.116C40.1541 184.323 47.4423 188.671 51.9387 193.822C64.9956 208.806 71.0362 227.731 73.482 247.1C74.8285 257.81 76.2243 268.594 75.9526 279.402C75.7109 285.172 74.8957 290.903 73.5191 296.511V296.511Z" fill="#0061FF"/>
<path d="M70.9125 315.474C71.6271 305.364 71.5073 295.213 70.5542 285.123C70.5656 285.087 70.5656 285.048 70.5542 285.012C70.7272 276.809 71.3695 268.632 71.0484 260.417C70.6751 251.537 69.4926 242.709 67.5155 234.044C67.5155 233.945 67.3302 233.97 67.3549 234.044C68.9528 242.557 69.9066 251.179 70.2084 259.836C70.3813 264.481 70.3442 269.118 70.0972 273.746C70.0231 275.253 69.8748 276.772 69.776 278.292C66.363 255.256 58.0386 233.224 45.3669 213.686C45.1939 213.427 44.7245 213.686 44.8851 213.983C53.9404 228.831 60.6449 244.99 64.7608 261.887C58.4608 250.263 48.9862 240.702 41.9451 229.523C41.9451 229.461 41.7969 229.523 41.834 229.523C48.1462 241.974 58.5967 251.758 65.3043 264.036C66.4655 269.043 67.4002 274.083 68.1084 279.156C69.0529 286.118 69.5603 293.131 69.6278 300.156C65.7984 293.016 61.8332 286.173 58.7079 278.613C58.6214 278.415 58.3373 278.613 58.3991 278.749C61.0673 286.605 64.6373 295.067 69.6525 301.762C69.6525 306.703 69.5125 311.673 69.2325 316.672C68.4543 329.914 66.1937 342.996 65.1437 356.201C65.1465 356.274 65.1753 356.344 65.2249 356.398C65.2746 356.452 65.3419 356.487 65.4148 356.496C65.4876 356.505 65.5613 356.487 65.6226 356.447C65.6838 356.406 65.7286 356.345 65.749 356.275C68.3929 342.807 70.118 329.175 70.9125 315.474V315.474Z" fill="#263238"/>
<path d="M56.8425 213.278C56.8425 213.179 56.6572 213.278 56.6942 213.34C59.1648 220.035 60.4865 226.816 62.2283 233.685C62.2473 233.744 62.2872 233.795 62.3406 233.827C62.3941 233.86 62.4575 233.872 62.5191 233.862C62.5808 233.851 62.6366 233.819 62.6762 233.77C62.7158 233.722 62.7366 233.661 62.7348 233.598C62.0183 226.644 59.5354 219.689 56.8425 213.278Z" fill="#263238"/>
<path d="M118.311 241.33C116.694 245.255 114.833 249.076 112.74 252.769C108.379 260.687 103.833 267.938 103.018 277.153C102.647 281.267 102.511 285.405 101.264 289.37C100.115 292.777 98.4756 295.998 96.3967 298.931C91.6656 305.812 85.761 311.741 81.3881 318.881C76.8342 326.326 73.4708 334.437 71.4193 342.92C71.3082 343.389 70.5793 343.265 70.6905 342.796C70.6905 342.796 70.6905 342.734 70.6905 342.697C70.6905 342.66 70.6905 342.697 70.6905 342.598C69.9988 322.834 71.5799 302.921 77.6081 283.984C80.2663 275.657 83.4642 267.511 87.1815 259.6C90.418 252.744 94.4326 246.135 100.103 241.009C103.808 237.698 111.764 231.423 117.001 234.746C119.484 236.339 119.299 238.859 118.311 241.33Z" fill="#0061FF"/>
<path d="M98.3986 286.136C94.9159 291.87 91.0791 297.382 86.9104 302.639C84.9957 305.109 83.0564 307.58 81.154 310.112C80.2523 311.348 79.2393 312.472 78.4117 313.744C78.9305 311.669 79.437 309.581 79.9682 307.506C82.5128 297.525 84.9093 287.457 88.7634 277.859C92.6599 268.565 97.2474 259.576 102.487 250.967C102.623 250.732 102.253 250.572 102.117 250.794C97.9415 257.662 93.7045 264.518 90.1963 271.794C88.2548 275.833 86.5634 279.987 85.1316 284.233C86.7396 275.222 88.9936 266.338 91.8763 257.65C91.8763 257.634 91.8698 257.618 91.8582 257.606C91.8466 257.595 91.8309 257.588 91.8145 257.588C91.7981 257.588 91.7824 257.595 91.7708 257.606C91.7592 257.618 91.7527 257.634 91.7527 257.65C88.0085 266.411 85.6658 275.707 84.8105 285.197C84.8105 285.197 84.8105 285.197 84.8105 285.197C83.9869 287.758 83.1922 290.348 82.4264 292.967C79.3135 304.084 76.5835 315.202 74.0512 326.406C74.0048 319.037 74.6416 311.681 75.9535 304.43C75.9535 304.257 75.7435 304.22 75.6941 304.43C73.7679 311.99 73.1249 319.819 73.7917 327.592C72.8282 331.866 71.8935 336.136 70.9877 340.401C69.0483 349.505 66.6642 358.782 65.5277 368.035C65.5288 368.078 65.5447 368.119 65.5727 368.151C65.6008 368.184 65.6392 368.205 65.6815 368.213C65.7237 368.22 65.7672 368.212 65.8045 368.191C65.8418 368.17 65.8706 368.137 65.8859 368.096C67.2448 363.155 68.06 357.942 69.1718 352.89C70.2835 347.838 71.4324 342.773 72.6059 337.721C74.3229 330.371 76.1264 323.033 77.9546 315.708C79.1899 313.028 81.5493 310.644 83.3158 308.383C85.2675 305.912 87.2069 303.442 89.0969 300.971C92.6566 296.326 95.8374 291.402 98.6085 286.247C98.6827 286.098 98.5097 286.024 98.3986 286.136Z" fill="#263238"/>
<path d="M99.2877 277.684C94.94 283.234 91.1733 289.215 88.0466 295.534C88.0466 295.62 88.1331 295.707 88.1825 295.62C91.9748 289.691 95.693 283.725 99.4606 277.795C99.5347 277.684 99.3618 277.585 99.2877 277.684Z" fill="#263238"/>
<path d="M15.1644 260.069C17.7215 264.479 20.6491 269.778 19.5497 275.065C18.8456 278.425 16.3997 281.143 15.955 284.565C14.9668 292.112 22.4897 297.103 27.9249 300.623C41.513 309.517 60.104 317.46 62.5746 335.644C62.6734 336.286 63.8098 336.125 63.6987 335.495C63.7044 335.454 63.7044 335.413 63.6987 335.372C63.6987 335.372 63.7728 335.372 63.7728 335.261C65.5425 326.083 65.4459 316.643 63.4887 307.504C61.4628 298.14 57.374 289.716 52.5441 281.489C44.3789 267.555 35.7319 253.287 23.3791 242.615C19.9697 239.662 12.9656 234.351 10.248 241.021C7.60453 247.531 12.0268 254.696 15.1644 260.069Z" fill="#0061FF"/>
<path d="M27.5793 289.607C36.5845 299.353 50.8891 304.813 58.6343 315.721C54.3078 299.116 46.132 283.762 34.7687 270.905C34.4722 270.559 34.9416 270.089 35.2628 270.398C43.5461 278.447 50.1726 288.04 54.7679 298.637C52.6223 291.241 49.8108 284.055 46.368 277.168C46.2444 276.908 46.615 276.673 46.7633 276.933C51.0312 284.453 54.0869 292.599 55.8179 301.07C66.0213 325.776 66.9354 354.756 64.8231 380.783C64.8231 381.154 64.2302 381.166 64.2425 380.783C64.8231 360.265 64.4896 339.389 59.5731 319.352C59.4743 318.932 59.3631 318.525 59.252 318.117C50.8273 306.37 36.5846 300.922 27.4311 289.78C27.3446 289.656 27.4805 289.496 27.5793 289.607Z" fill="#263238"/>
<path d="M25.5168 281.243C30.2356 285.579 34.8802 290.001 39.6114 294.337C39.6114 294.337 39.6114 294.461 39.5496 294.424C34.1963 290.827 29.373 286.499 25.2203 281.564C25.1777 281.525 25.1525 281.47 25.1502 281.413C25.1479 281.355 25.1687 281.298 25.208 281.256C25.2473 281.213 25.3019 281.188 25.3598 281.185C25.4178 281.183 25.4742 281.204 25.5168 281.243V281.243Z" fill="#263238"/>
<path d="M24.7505 262.466C28.9277 269.319 33.6537 275.821 38.8821 281.91C38.9562 281.984 38.8821 282.095 38.7586 282.021C32.8972 276.445 28.0708 269.875 24.5034 262.614C24.4935 262.583 24.4946 262.549 24.5064 262.518C24.5182 262.487 24.5402 262.46 24.5687 262.443C24.5972 262.426 24.6306 262.419 24.6636 262.423C24.6965 262.427 24.7272 262.443 24.7505 262.466V262.466Z" fill="#263238"/>
<path d="M46.0096 399.151H87.3792L81.8081 343.489H52.3837L46.0096 399.151Z" fill="#455A64"/>
<path d="M51.3457 352.544H82.7218L81.8077 343.489H52.3833L51.3457 352.544Z" fill="#263238"/>
<path d="M47.3196 346.207H86.0951V337.325H47.3196V346.207Z" fill="#455A64"/>
<path d="M0.131226 399.151L63.6123 398.855L127.093 398.744L254.043 398.534L380.993 398.744L444.474 398.843L507.955 399.151L444.474 399.46L380.993 399.559L254.043 399.769L127.093 399.559L63.6123 399.448L0.131226 399.151Z" fill="#263238"/>
<path d="M361.859 1.35376H146.204C143.311 1.38121 140.452 1.97812 137.791 3.11042C135.129 4.24271 132.716 5.88821 130.691 7.95295C128.665 10.0177 127.066 12.4612 125.984 15.1441C124.903 17.8269 124.361 20.6964 124.388 23.5888V467.549C124.336 473.39 126.604 479.012 130.694 483.181C134.785 487.351 140.363 489.725 146.204 489.784H361.859C367.703 489.729 373.285 487.356 377.381 483.186C381.476 479.017 383.748 473.393 383.699 467.549V23.5765C383.748 17.7339 381.475 12.1108 377.38 7.9435C373.284 3.77624 367.702 1.40595 361.859 1.35376V1.35376ZM370.061 453.825C370.061 465.511 361.315 474.961 350.519 474.961H157.58C146.759 474.961 138.014 465.511 138.014 453.825V40.401C138.014 16.5971 146.759 15.436 157.58 15.436H196.22C198.468 15.436 200.309 17.993 200.309 21.1553V22.5265C200.309 29.9382 204.361 29.9382 209.351 29.9382H298.724C303.751 29.9382 307.766 29.9382 307.766 22.5265V21.1553C307.766 17.993 309.582 15.436 311.867 15.436H350.519C361.315 15.436 370.061 18.6106 370.061 40.401V453.825Z" fill="#263238"/>
<path d="M266.223 20.6982H241.851C241.652 20.6998 241.456 20.662 241.272 20.5868C241.089 20.5117 240.922 20.4007 240.782 20.2604C240.641 20.1202 240.53 19.9534 240.455 19.7698C240.38 19.5862 240.342 19.3895 240.344 19.1911V19.1911C240.344 18.7914 240.503 18.4081 240.785 18.1255C241.068 17.8429 241.451 17.6841 241.851 17.6841H266.223C266.623 17.6841 267.006 17.8429 267.289 18.1255C267.571 18.4081 267.73 18.7914 267.73 19.1911C267.732 19.3895 267.694 19.5862 267.619 19.7698C267.543 19.9534 267.433 20.1202 267.292 20.2604C267.152 20.4007 266.985 20.5117 266.802 20.5868C266.618 20.662 266.421 20.6998 266.223 20.6982Z" fill="white"/>
<path d="M370.074 40.4018V453.826C370.074 465.512 361.316 474.962 350.519 474.962H157.581C146.76 474.962 138.014 465.512 138.014 453.826V40.4018C138.014 16.5979 146.76 15.4368 157.581 15.4368H196.22C198.468 15.4368 200.309 17.9938 200.309 21.1561V22.5273C200.309 29.939 204.361 29.939 209.351 29.939H298.724C303.752 29.939 307.779 29.939 307.779 22.5273V21.1561C307.779 17.9938 309.582 15.4368 311.867 15.4368H350.519C361.316 15.4368 370.074 18.6114 370.074 40.4018Z" fill="white"/>
<path d="M370.061 40.4018V104.118H138.001V40.4018C138.001 16.5979 146.759 15.4368 157.581 15.4368H196.233C198.481 15.4368 200.309 17.9938 200.309 21.1561V22.5273C200.309 29.939 204.373 29.939 209.351 29.939H298.724C303.751 29.939 307.778 29.939 307.778 22.5273V21.1561C307.778 17.9938 309.594 15.4368 311.88 15.4368H350.519C361.316 15.4368 370.061 18.6114 370.061 40.4018Z" fill="#0061FF"/>
<path d="M189.562 24.7248L189.179 25.0954C189.115 25.1714 189.045 25.2417 188.969 25.3054C188.016 24.3516 186.723 23.8142 185.374 23.8107C184.703 23.8069 184.037 23.9384 183.418 24.1973C182.798 24.4562 182.237 24.8373 181.767 25.3177C181.708 25.2419 181.642 25.1716 181.57 25.1077L181.199 24.7372C181.347 24.5889 181.508 24.453 181.669 24.3172C182.003 24.0415 182.368 23.8053 182.756 23.6131C183.212 23.3848 183.699 23.2226 184.201 23.1313C184.448 23.1313 184.683 23.0695 184.93 23.0325H185.56H186.054C186.51 23.0838 186.958 23.1917 187.388 23.3536C187.696 23.4685 187.993 23.6089 188.277 23.7736C188.585 23.9454 188.875 24.1482 189.142 24.3789L189.537 24.7248H189.562Z" fill="white"/>
<path d="M182.953 26.4784L182.397 25.8607C182.791 25.4656 183.259 25.152 183.774 24.9381C184.289 24.7241 184.841 24.614 185.399 24.614C185.957 24.614 186.509 24.7241 187.024 24.9381C187.539 25.152 188.007 25.4656 188.401 25.8607L187.808 26.4537C187.485 26.1284 187.1 25.8719 186.675 25.6999C186.25 25.5279 185.795 25.444 185.337 25.4531C184.439 25.4698 183.583 25.8379 182.953 26.4784V26.4784Z" fill="white"/>
<path d="M187.203 27.0955L186.61 27.6761C186.281 27.3522 185.837 27.1703 185.375 27.1696C185.145 27.1682 184.917 27.2134 184.704 27.3026C184.492 27.3918 184.3 27.523 184.14 27.6884L183.547 27.0955C183.787 26.855 184.072 26.6641 184.385 26.5339C184.699 26.4037 185.035 26.3367 185.375 26.3367C185.715 26.3367 186.051 26.4037 186.365 26.5339C186.679 26.6641 186.963 26.855 187.203 27.0955V27.0955Z" fill="white"/>
<path d="M185.906 28.1945C185.906 28.3354 185.85 28.4705 185.751 28.5701C185.651 28.6697 185.516 28.7257 185.375 28.7257C185.234 28.7257 185.099 28.6697 184.999 28.5701C184.9 28.4705 184.844 28.3354 184.844 28.1945C184.844 28.0536 184.9 27.9185 184.999 27.8189C185.099 27.7193 185.234 27.6633 185.375 27.6633C185.516 27.6633 185.651 27.7193 185.751 27.8189C185.85 27.9185 185.906 28.0536 185.906 28.1945Z" fill="white"/>
<path d="M154.678 27.3806C155.524 27.3806 156.21 26.6948 156.21 25.8489C156.21 25.0029 155.524 24.3171 154.678 24.3171C153.832 24.3171 153.146 25.0029 153.146 25.8489C153.146 26.6948 153.832 27.3806 154.678 27.3806Z" fill="white"/>
<path d="M157.989 25.8612C157.989 25.5553 158.079 25.2563 158.25 25.0021C158.42 24.7479 158.662 24.55 158.945 24.4335C159.227 24.317 159.539 24.2871 159.838 24.3477C160.138 24.4083 160.413 24.5566 160.629 24.7738C160.844 24.991 160.99 25.2673 161.049 25.5676C161.107 25.8679 161.074 26.1788 160.956 26.4607C160.837 26.7426 160.637 26.9829 160.381 27.1511C160.126 27.3193 159.826 27.4077 159.52 27.4053C159.113 27.402 158.723 27.2379 158.436 26.9487C158.149 26.6595 157.989 26.2686 157.989 25.8612Z" fill="white"/>
<path d="M164.374 27.3806C165.22 27.3806 165.906 26.6948 165.906 25.8489C165.906 25.0029 165.22 24.3171 164.374 24.3171C163.528 24.3171 162.842 25.0029 162.842 25.8489C162.842 26.6948 163.528 27.3806 164.374 27.3806Z" fill="white"/>
<path d="M167.672 25.8612C167.672 25.5558 167.763 25.2573 167.932 25.0034C168.102 24.7495 168.343 24.5516 168.625 24.4347C168.907 24.3178 169.218 24.2872 169.517 24.3468C169.817 24.4064 170.092 24.5535 170.308 24.7694C170.524 24.9853 170.671 25.2605 170.731 25.56C170.79 25.8595 170.76 26.17 170.643 26.4521C170.526 26.7343 170.328 26.9754 170.074 27.1451C169.82 27.3148 169.521 27.4053 169.216 27.4053C168.807 27.4053 168.414 27.2427 168.124 26.9531C167.835 26.6635 167.672 26.2708 167.672 25.8612V25.8612Z" fill="white"/>
<path d="M172.514 25.8612C172.514 25.5558 172.605 25.2573 172.775 25.0034C172.944 24.7495 173.185 24.5516 173.468 24.4347C173.75 24.3178 174.06 24.2872 174.36 24.3468C174.659 24.4064 174.934 24.5535 175.15 24.7694C175.366 24.9853 175.513 25.2605 175.573 25.56C175.633 25.8595 175.602 26.17 175.485 26.4521C175.368 26.7343 175.17 26.9754 174.916 27.1451C174.662 27.3148 174.364 27.4053 174.059 27.4053C173.649 27.4053 173.256 27.2427 172.967 26.9531C172.677 26.6635 172.514 26.2708 172.514 25.8612V25.8612Z" fill="white"/>
<path d="M352.644 29.1972H340.143V23.3914H352.644V29.1972ZM340.761 28.5795H352.026V24.0461H340.761V28.5795Z" fill="white"/>
<path d="M349.246 24.3914H341.18V28.2207H349.246V24.3914Z" fill="white"/>
<path d="M353.78 24.7627H352.668V27.8633H353.78V24.7627Z" fill="white"/>
<path d="M286.025 275.154H202.853V287.062H286.025V275.154Z" fill="#0061FF"/>
<path d="M304.924 275.154H293.016V287.062H304.924V275.154Z" fill="#DBDBDB"/>
<path d="M296.574 281.107C296.574 281.254 296.53 281.397 296.449 281.519C296.367 281.641 296.252 281.736 296.116 281.792C295.981 281.848 295.832 281.863 295.688 281.834C295.544 281.805 295.412 281.735 295.308 281.631C295.205 281.528 295.134 281.395 295.106 281.252C295.077 281.108 295.092 280.959 295.148 280.824C295.204 280.688 295.299 280.572 295.421 280.491C295.543 280.409 295.686 280.366 295.832 280.366C295.93 280.366 296.026 280.385 296.116 280.422C296.206 280.46 296.288 280.514 296.357 280.583C296.425 280.652 296.48 280.734 296.517 280.824C296.555 280.913 296.574 281.01 296.574 281.107V281.107Z" fill="#263238"/>
<path d="M299.749 281.107C299.749 281.254 299.706 281.397 299.624 281.519C299.543 281.641 299.427 281.736 299.292 281.792C299.156 281.848 299.007 281.863 298.863 281.834C298.72 281.805 298.588 281.735 298.484 281.631C298.38 281.528 298.31 281.395 298.281 281.252C298.252 281.108 298.267 280.959 298.323 280.824C298.379 280.688 298.474 280.572 298.596 280.491C298.718 280.409 298.861 280.366 299.008 280.366C299.105 280.366 299.202 280.385 299.292 280.422C299.382 280.46 299.463 280.514 299.532 280.583C299.601 280.652 299.656 280.734 299.693 280.824C299.73 280.913 299.749 281.01 299.749 281.107V281.107Z" fill="#263238"/>
<path d="M302.837 281.107C302.837 281.254 302.793 281.397 302.712 281.519C302.63 281.641 302.515 281.736 302.379 281.792C302.244 281.848 302.095 281.863 301.951 281.834C301.807 281.805 301.675 281.735 301.571 281.631C301.468 281.528 301.397 281.395 301.369 281.252C301.34 281.108 301.355 280.959 301.411 280.824C301.467 280.688 301.562 280.572 301.684 280.491C301.806 280.409 301.949 280.366 302.096 280.366C302.193 280.366 302.289 280.385 302.379 280.422C302.469 280.46 302.551 280.514 302.62 280.583C302.688 280.652 302.743 280.734 302.78 280.824C302.818 280.913 302.837 281.01 302.837 281.107V281.107Z" fill="#263238"/>
<path d="M155.147 61.7831L149.724 56.6937L155.147 51.6167L156 52.5061L151.516 56.6937L156 60.8937L155.147 61.7831Z" fill="white"/>
<path d="M356.98 54.5951C357.567 54.5951 358.042 54.1195 358.042 53.5328C358.042 52.9461 357.567 52.4705 356.98 52.4705C356.393 52.4705 355.917 52.9461 355.917 53.5328C355.917 54.1195 356.393 54.5951 356.98 54.5951Z" fill="white"/>
<path d="M356.98 58.3869C357.567 58.3869 358.042 57.9113 358.042 57.3245C358.042 56.7378 357.567 56.2622 356.98 56.2622C356.393 56.2622 355.917 56.7378 355.917 57.3245C355.917 57.9113 356.393 58.3869 356.98 58.3869Z" fill="white"/>
<path d="M358.055 61.1301C358.071 61.28 358.055 61.4317 358.009 61.5753C357.962 61.7188 357.886 61.851 357.786 61.9632C357.685 62.0754 357.562 62.1652 357.424 62.2266C357.286 62.288 357.137 62.3198 356.986 62.3198C356.835 62.3198 356.686 62.288 356.548 62.2266C356.411 62.1652 356.287 62.0754 356.186 61.9632C356.086 61.851 356.01 61.7188 355.963 61.5753C355.917 61.4317 355.901 61.28 355.918 61.1301C355.946 60.8665 356.071 60.6227 356.268 60.4455C356.465 60.2684 356.721 60.1704 356.986 60.1704C357.251 60.1704 357.507 60.2684 357.704 60.4455C357.901 60.6227 358.026 60.8665 358.055 61.1301V61.1301Z" fill="white"/>
<path d="M169.328 317.387C167.997 318.214 166.438 318.597 164.875 318.482C163.313 318.366 161.827 317.759 160.631 316.746C159.435 315.734 158.591 314.369 158.219 312.846C157.848 311.324 157.969 309.723 158.564 308.274C159.16 306.824 160.199 305.601 161.533 304.779C162.867 303.957 164.428 303.58 165.99 303.7C167.552 303.821 169.036 304.433 170.228 305.45C171.421 306.466 172.26 307.835 172.627 309.358C172.991 310.873 172.868 312.465 172.276 313.906C171.684 315.348 170.652 316.566 169.328 317.387V317.387Z" fill="#DBDBDB"/>
<path d="M167.697 310.285C167.697 310.73 167.566 311.164 167.318 311.534C167.071 311.904 166.72 312.192 166.31 312.362C165.899 312.532 165.447 312.577 165.011 312.49C164.574 312.403 164.174 312.189 163.859 311.875C163.545 311.56 163.331 311.16 163.244 310.724C163.157 310.288 163.202 309.836 163.372 309.425C163.542 309.014 163.83 308.663 164.2 308.416C164.57 308.169 165.004 308.037 165.449 308.037C166.045 308.037 166.617 308.274 167.039 308.695C167.461 309.117 167.697 309.689 167.697 310.285V310.285Z" fill="white"/>
<path d="M169.327 316.486V317.387C168.159 318.106 166.814 318.487 165.442 318.487C164.071 318.487 162.726 318.106 161.557 317.387V316.461C161.613 315.468 162.047 314.535 162.77 313.852C163.492 313.169 164.448 312.789 165.442 312.789C166.436 312.789 167.393 313.169 168.115 313.852C168.838 314.535 169.271 315.468 169.327 316.461V316.486Z" fill="white"/>
<path d="M346.69 306.272C346.82 306.275 346.944 306.328 347.036 306.42C347.128 306.512 347.181 306.636 347.184 306.766C347.184 306.897 347.132 307.023 347.039 307.116C346.947 307.208 346.821 307.26 346.69 307.26C346.626 307.26 346.562 307.248 346.503 307.223C346.443 307.198 346.39 307.161 346.345 307.115C346.3 307.069 346.265 307.014 346.241 306.954C346.218 306.895 346.207 306.831 346.208 306.766C346.208 306.637 346.259 306.514 346.349 306.421C346.439 306.329 346.561 306.275 346.69 306.272V306.272Z" fill="black"/>
<path d="M348.159 306.272C348.289 306.275 348.413 306.328 348.505 306.42C348.597 306.512 348.65 306.636 348.653 306.766C348.653 306.897 348.601 307.023 348.508 307.116C348.416 307.208 348.29 307.26 348.159 307.26C348.095 307.26 348.031 307.248 347.972 307.223C347.912 307.198 347.859 307.161 347.814 307.115C347.769 307.069 347.734 307.014 347.71 306.954C347.687 306.895 347.676 306.831 347.677 306.766C347.677 306.637 347.728 306.514 347.818 306.421C347.908 306.329 348.03 306.275 348.159 306.272V306.272Z" fill="black"/>
<path d="M349.666 306.272C349.796 306.275 349.92 306.328 350.012 306.42C350.104 306.512 350.157 306.636 350.16 306.766C350.171 306.837 350.167 306.909 350.148 306.978C350.128 307.047 350.094 307.111 350.048 307.165C350.002 307.219 349.944 307.263 349.879 307.293C349.814 307.323 349.744 307.338 349.672 307.338C349.601 307.338 349.53 307.323 349.465 307.293C349.4 307.263 349.343 307.219 349.296 307.165C349.25 307.111 349.216 307.047 349.196 306.978C349.177 306.909 349.173 306.837 349.184 306.766C349.187 306.638 349.238 306.516 349.328 306.425C349.417 306.333 349.538 306.278 349.666 306.272V306.272Z" fill="black"/>
<path d="M158.939 326.703L182.928 326.48L202.767 326.344L242.444 326.246L261.344 326.344L281.17 326.48L301.009 326.703L281.17 326.925L261.344 327.049L242.444 327.16L202.767 327.049L182.928 326.925L158.939 326.703Z" fill="#263238"/>
<path d="M158.927 330.903C170.118 330.718 186.103 330.631 197.356 330.557L230.943 330.446L264.543 330.557L273.956 330.903L264.543 331.261L230.943 331.36L197.356 331.261C186.164 331.187 170.131 331.1 158.927 330.903Z" fill="#263238"/>
<path d="M158.927 335.756C171.131 335.571 188.573 335.485 200.803 335.41L237.416 335.299L274.018 335.41L284.283 335.756L274.018 336.115L237.416 336.226L200.803 336.115C188.573 336.04 171.143 335.917 158.927 335.756Z" fill="#263238"/>
<path d="M223.495 305.48H179.013V310.285H223.495V305.48Z" fill="#455A64"/>
<path d="M214.502 312.682H179.013V315.585H214.502V312.682Z" fill="#DBDBDB"/>
<path d="M158.049 345.8L182.026 345.64L205.99 345.59L253.919 345.491L301.848 345.59L325.825 345.64L349.79 345.8L325.825 345.949L301.848 345.998L253.919 346.109L205.99 345.998L182.026 345.949L158.049 345.8Z" fill="#DBDBDB"/>
<path d="M169.328 369.58C167.997 370.405 166.439 370.788 164.876 370.672C163.314 370.557 161.829 369.95 160.634 368.938C159.438 367.926 158.594 366.561 158.222 365.039C157.851 363.518 157.971 361.918 158.565 360.468C159.159 359.019 160.198 357.796 161.531 356.973C162.864 356.151 164.423 355.772 165.985 355.891C167.547 356.009 169.031 356.62 170.224 357.635C171.417 358.649 172.258 360.016 172.626 361.538C172.993 363.055 172.872 364.649 172.28 366.093C171.688 367.537 170.655 368.757 169.328 369.58V369.58Z" fill="#DBDBDB"/>
<path d="M167.697 362.451C167.697 362.896 167.566 363.331 167.318 363.7C167.071 364.07 166.72 364.358 166.31 364.528C165.899 364.699 165.447 364.743 165.011 364.656C164.574 364.57 164.174 364.355 163.859 364.041C163.545 363.727 163.331 363.326 163.244 362.89C163.157 362.454 163.202 362.002 163.372 361.591C163.542 361.18 163.83 360.829 164.2 360.582C164.57 360.335 165.004 360.203 165.449 360.203C166.044 360.206 166.614 360.444 167.035 360.865C167.456 361.286 167.694 361.856 167.697 362.451Z" fill="white"/>
<path d="M169.327 368.652V369.579C168.159 370.298 166.814 370.678 165.442 370.678C164.071 370.678 162.726 370.298 161.557 369.579V368.652C161.528 368.123 161.606 367.594 161.788 367.097C161.97 366.6 162.251 366.145 162.615 365.76C162.978 365.375 163.417 365.069 163.903 364.859C164.389 364.65 164.913 364.542 165.442 364.542C165.972 364.542 166.496 364.65 166.982 364.859C167.468 365.069 167.907 365.375 168.27 365.76C168.634 366.145 168.915 366.6 169.097 367.097C169.279 367.594 169.357 368.123 169.327 368.652V368.652Z" fill="white"/>
<path d="M346.69 358.448C346.821 358.448 346.947 358.5 347.039 358.593C347.132 358.686 347.184 358.811 347.184 358.942C347.184 359.007 347.171 359.07 347.146 359.13C347.121 359.189 347.085 359.243 347.039 359.287C346.993 359.332 346.938 359.368 346.878 359.391C346.818 359.415 346.754 359.426 346.69 359.424C346.626 359.426 346.563 359.415 346.504 359.391C346.444 359.367 346.391 359.332 346.346 359.287C346.3 359.242 346.265 359.188 346.241 359.129C346.218 359.07 346.206 359.006 346.208 358.942C346.207 358.878 346.218 358.814 346.241 358.754C346.265 358.694 346.3 358.64 346.345 358.594C346.39 358.548 346.443 358.511 346.503 358.486C346.562 358.461 346.626 358.448 346.69 358.448V358.448Z" fill="black"/>
<path d="M348.159 358.448C348.29 358.448 348.416 358.5 348.508 358.593C348.601 358.686 348.653 358.811 348.653 358.942C348.653 359.007 348.64 359.07 348.615 359.13C348.59 359.189 348.554 359.243 348.508 359.287C348.462 359.332 348.407 359.368 348.347 359.391C348.287 359.415 348.223 359.426 348.159 359.424C348.095 359.426 348.032 359.415 347.973 359.391C347.913 359.367 347.86 359.332 347.815 359.287C347.769 359.242 347.734 359.188 347.71 359.129C347.687 359.07 347.675 359.006 347.677 358.942C347.676 358.878 347.687 358.814 347.71 358.754C347.734 358.694 347.769 358.64 347.814 358.594C347.859 358.548 347.912 358.511 347.972 358.486C348.031 358.461 348.095 358.448 348.159 358.448V358.448Z" fill="black"/>
<path d="M349.666 358.448C349.797 358.448 349.923 358.5 350.015 358.593C350.108 358.686 350.16 358.811 350.16 358.942C350.142 359.058 350.082 359.164 349.993 359.24C349.904 359.317 349.79 359.359 349.672 359.359C349.555 359.359 349.441 359.317 349.352 359.24C349.262 359.164 349.203 359.058 349.184 358.942C349.184 358.813 349.235 358.69 349.325 358.597C349.415 358.505 349.537 358.451 349.666 358.448V358.448Z" fill="black"/>
<path d="M158.939 378.856L182.928 378.634L202.767 378.511L242.444 378.399L261.344 378.511L281.17 378.634L301.009 378.856L281.17 379.091L261.344 379.215L242.444 379.326L202.767 379.215L182.928 379.079L158.939 378.856Z" fill="#263238"/>
<path d="M158.927 383.069C170.118 382.884 186.103 382.785 197.356 382.711L230.943 382.612L264.543 382.711L273.956 383.069L264.543 383.427L230.943 383.526L197.356 383.415C186.164 383.341 170.131 383.254 158.927 383.069Z" fill="#263238"/>
<path d="M223.495 357.646H179.013V362.452H223.495V357.646Z" fill="#455A64"/>
<path d="M214.502 364.849H179.013V367.752H214.502V364.849Z" fill="#DBDBDB"/>
<path d="M158.049 395.484L182.026 395.336L205.99 395.286L253.919 395.175L301.848 395.286L325.825 395.336L349.79 395.484L325.825 395.644L301.848 395.694L253.919 395.793L205.99 395.694L182.026 395.632L158.049 395.484Z" fill="#DBDBDB"/>
<path d="M169.328 420.992C167.997 421.818 166.438 422.201 164.875 422.086C163.313 421.971 161.827 421.364 160.631 420.351C159.435 419.339 158.591 417.973 158.219 416.451C157.848 414.929 157.969 413.328 158.564 411.879C159.16 410.429 160.199 409.206 161.533 408.384C162.867 407.562 164.428 407.184 165.99 407.305C167.552 407.425 169.036 408.038 170.228 409.054C171.421 410.071 172.26 411.439 172.627 412.963C172.991 414.478 172.868 416.069 172.276 417.511C171.684 418.952 170.652 420.17 169.328 420.992V420.992Z" fill="#DBDBDB"/>
<path d="M167.697 413.865C167.697 414.31 167.566 414.744 167.318 415.114C167.071 415.484 166.72 415.772 166.31 415.942C165.899 416.112 165.447 416.157 165.011 416.07C164.574 415.983 164.174 415.769 163.859 415.455C163.545 415.14 163.331 414.74 163.244 414.304C163.157 413.867 163.202 413.415 163.372 413.005C163.542 412.594 163.83 412.243 164.2 411.996C164.57 411.749 165.004 411.617 165.449 411.617C166.045 411.617 166.617 411.854 167.039 412.275C167.461 412.697 167.697 413.269 167.697 413.865V413.865Z" fill="white"/>
<path d="M169.327 420.066V420.992C168.163 421.722 166.817 422.109 165.442 422.109C164.068 422.109 162.722 421.722 161.557 420.992V420.066C161.613 419.073 162.047 418.14 162.77 417.457C163.492 416.774 164.448 416.394 165.442 416.394C166.436 416.394 167.393 416.774 168.115 417.457C168.838 418.14 169.271 419.073 169.327 420.066V420.066Z" fill="white"/>
<path d="M346.69 409.873C346.76 409.862 346.833 409.866 346.901 409.885C346.97 409.905 347.034 409.939 347.088 409.985C347.143 410.032 347.187 410.089 347.216 410.154C347.246 410.219 347.262 410.29 347.262 410.361C347.262 410.433 347.246 410.503 347.216 410.568C347.187 410.633 347.143 410.691 347.088 410.737C347.034 410.783 346.97 410.817 346.901 410.837C346.833 410.856 346.76 410.86 346.69 410.849C346.574 410.83 346.468 410.771 346.392 410.682C346.316 410.592 346.274 410.479 346.274 410.361C346.274 410.244 346.316 410.13 346.392 410.04C346.468 409.951 346.574 409.892 346.69 409.873V409.873Z" fill="black"/>
<path d="M348.16 409.873C348.231 409.862 348.303 409.866 348.372 409.885C348.44 409.905 348.504 409.939 348.559 409.985C348.613 410.032 348.657 410.089 348.687 410.154C348.717 410.219 348.732 410.29 348.732 410.361C348.732 410.433 348.717 410.503 348.687 410.568C348.657 410.633 348.613 410.691 348.559 410.737C348.504 410.783 348.44 410.817 348.372 410.837C348.303 410.856 348.231 410.86 348.16 410.849C348.044 410.83 347.938 410.771 347.862 410.682C347.786 410.592 347.744 410.479 347.744 410.361C347.744 410.244 347.786 410.13 347.862 410.04C347.938 409.951 348.044 409.892 348.16 409.873V409.873Z" fill="black"/>
<path d="M349.666 409.873C349.737 409.862 349.809 409.866 349.878 409.885C349.946 409.905 350.01 409.939 350.065 409.985C350.119 410.032 350.163 410.089 350.193 410.154C350.222 410.219 350.238 410.29 350.238 410.361C350.238 410.433 350.222 410.503 350.193 410.568C350.163 410.633 350.119 410.691 350.065 410.737C350.01 410.783 349.946 410.817 349.878 410.837C349.809 410.856 349.737 410.86 349.666 410.849C349.55 410.83 349.444 410.771 349.368 410.682C349.292 410.592 349.25 410.479 349.25 410.361C349.25 410.244 349.292 410.13 349.368 410.04C349.444 409.951 349.55 409.892 349.666 409.873V409.873Z" fill="black"/>
<path d="M202.606 430.28L219.22 430.058L232.969 429.934L260.442 429.823L273.536 429.922L287.272 430.058L301.008 430.28L287.272 430.502L273.536 430.638L260.442 430.737L232.969 430.638L219.22 430.502L202.606 430.28Z" fill="#263238"/>
<path d="M202.606 434.48C210.363 434.295 221.468 434.208 229.226 434.134L252.486 434.023L275.759 434.134L282.281 434.48L275.759 434.838L252.486 434.95L229.226 434.838C221.468 434.74 210.363 434.74 202.606 434.48Z" fill="#263238"/>
<path d="M223.495 409.058H179.013V413.863H223.495V409.058Z" fill="#455A64"/>
<path d="M214.502 416.272H179.013V419.175H214.502V416.272Z" fill="#DBDBDB"/>
<path d="M158.049 459.422H196.578V429.824H158.049V459.422Z" fill="#0061FF"/>
<path opacity="0.2" d="M162.2 436.766C162.058 437.489 162.152 438.238 162.469 438.903C162.785 439.569 163.307 440.114 163.958 440.46C164.608 440.806 165.353 440.933 166.081 440.823C166.81 440.713 167.484 440.372 168.003 439.85C168.523 439.328 168.861 438.653 168.967 437.924C169.074 437.195 168.943 436.451 168.595 435.802C168.246 435.153 167.698 434.634 167.031 434.32C166.365 434.006 165.615 433.916 164.893 434.061C164.226 434.195 163.615 434.523 163.136 435.005C162.656 435.486 162.331 436.099 162.2 436.766V436.766Z" fill="black"/>
<path opacity="0.2" d="M168.735 453.171H196.578L182.657 437.57L168.735 453.171Z" fill="black"/>
<path d="M158.049 453.184H181.038L169.55 443.017L158.049 453.184Z" fill="#0061FF"/>
<path opacity="0.3" d="M158.049 453.184H181.038L169.55 443.017L158.049 453.184Z" fill="black"/>
<path d="M196.59 453.17H158.062V459.42H196.59V453.17Z" fill="#0061FF"/>
<path opacity="0.3" d="M196.59 453.17H158.062V459.42H196.59V453.17Z" fill="black"/>
<path d="M293.461 228.608C281.61 235.927 267.955 239.803 254.025 239.803C240.095 239.803 226.441 235.927 214.589 228.608C200.711 220.028 190.01 207.157 184.109 191.946C178.208 176.736 177.427 160.015 181.887 144.321C186.347 128.627 195.803 114.816 208.821 104.981C221.839 95.1468 237.71 89.8262 254.025 89.8262C270.34 89.8262 286.211 95.1468 299.229 104.981C312.247 114.816 321.703 128.627 326.163 144.321C330.623 160.015 329.843 176.736 323.941 191.946C318.04 207.157 307.339 220.028 293.461 228.608V228.608Z" fill="#A6A6A6"/>
<path d="M250.993 147.499C278.811 163.866 315.227 174.49 324.27 168.771C333.312 163.051 347.74 116.815 346.604 105.833C346.134 101.089 313.906 98.5571 310.694 102.498C307.482 106.438 304.048 134.479 302.306 137.086C301.071 138.963 272.598 134.43 254.785 132.639C243.42 131.477 236.318 138.864 250.993 147.499Z" fill="#AD6359"/>
<path d="M346.246 112.096C347.345 107.352 351.187 82.8194 350.644 76.4577C350.1 70.096 347.321 51.9003 342.417 51.7521C337.512 51.6038 337.895 57.0391 337.895 57.0391C337.895 57.0391 335.499 49.5409 330.545 49.8992C325.592 50.2574 326.481 58.5461 326.481 58.5461C326.481 58.5461 323.455 51.0356 318.539 51.7274C313.622 52.4191 315.932 60.6955 315.932 60.6955C315.932 60.6955 313.462 53.6915 309.682 55.9767C305.099 58.7191 311.065 71.1213 311.115 78.2118C311.115 79.8177 308.977 110.737 308.977 110.737L346.246 112.096Z" fill="#AD6359"/>
<path d="M315.808 60.1029C320.181 69.2316 320.514 73.9751 319.353 83.8697C319.353 84.0674 319.612 84.1415 319.649 83.9438C321.675 74.3581 322.12 68.3422 316.24 59.8682C315.894 59.4482 315.536 59.6582 315.808 60.1029Z" fill="#263238"/>
<path d="M326.122 57.9775C329.828 67.8598 330.236 73.0109 329.828 83.4614C329.828 83.4974 329.842 83.532 329.868 83.5575C329.893 83.583 329.928 83.5973 329.964 83.5973C330 83.5973 330.035 83.583 330.06 83.5575C330.086 83.532 330.1 83.4974 330.1 83.4614C331.397 73.2456 331.706 67.2298 326.703 57.8417C326.419 57.4093 325.949 57.4958 326.122 57.9775Z" fill="#263238"/>
<path d="M337.858 57.62C340.761 67.5022 341.453 73.0733 339.699 83.1656C339.687 83.2147 339.696 83.2664 339.722 83.3093C339.749 83.3521 339.792 83.3826 339.841 83.3941C339.89 83.4056 339.942 83.3971 339.984 83.3704C340.027 83.3438 340.058 83.3012 340.069 83.2521C342.849 73.1351 342.046 66.1063 338.167 57.5706C337.908 56.9776 337.673 57.0023 337.858 57.62Z" fill="#263238"/>
<path d="M308.124 117.135C308.124 117.135 300.626 106.907 298.329 101.682C296.031 96.4564 294.623 73.8508 299.477 73.2702C305.765 72.5167 309.15 85.4007 309.977 91.9353C309.977 91.9353 324.517 90.1812 328.951 98.9146C333.386 107.648 308.124 117.135 308.124 117.135Z" fill="#AD6359"/>
<path d="M301.268 73.629C307.445 77.0754 308.038 85.7224 309.322 91.9976C309.339 92.0901 309.376 92.1773 309.433 92.2523C309.489 92.3272 309.563 92.3877 309.647 92.4287C309.732 92.4697 309.825 92.49 309.919 92.4881C310.012 92.4862 310.104 92.4621 310.187 92.4176C316.363 92.0841 325.085 93.4059 329.074 98.594C329.098 98.6222 329.13 98.6409 329.166 98.6465C329.202 98.6521 329.239 98.6442 329.27 98.6243C329.301 98.6044 329.323 98.574 329.332 98.5388C329.342 98.5035 329.338 98.466 329.322 98.4334C325.789 92.3559 317.29 90.3547 310.595 91.1453C309.359 84.6848 308.445 76.0378 301.305 73.629C301.256 73.5549 301.231 73.6043 301.268 73.629Z" fill="#263238"/>
<path d="M294.068 172.179L301.665 135.121C301.665 135.121 272.734 130.34 254.983 130.624C237.232 130.908 231.365 137.752 253.649 151.068C266.682 158.918 280.179 165.968 294.068 172.179Z" fill="#455A64"/>
<path d="M294.488 135.689C292.989 140.787 291.622 145.926 290.386 151.106C289.781 153.65 289.151 156.195 288.571 158.764C287.99 161.334 287.595 164.101 287.002 166.744C287.002 166.93 287.249 167.016 287.298 166.831C287.953 164.299 288.781 161.803 289.46 159.271C290.139 156.739 290.695 154.021 291.375 151.402C292.618 146.214 293.734 140.997 294.722 135.751C294.724 135.723 294.716 135.694 294.699 135.671C294.683 135.647 294.658 135.631 294.63 135.623C294.603 135.616 294.573 135.619 294.547 135.631C294.521 135.643 294.5 135.663 294.488 135.689Z" fill="#263238"/>
<path d="M287.619 231.782C282.876 234.184 277.884 236.06 272.734 237.377L271.671 237.649C271.004 237.822 270.312 237.97 269.645 238.119C259.205 240.386 248.4 240.386 237.96 238.119C236.947 237.896 235.935 237.649 234.934 237.377C228.927 235.813 223.141 233.497 217.714 230.485C217.282 230.262 216.862 230.028 216.479 229.768C215.812 229.385 215.145 228.978 214.465 228.533C211.692 226.815 209.035 224.917 206.51 222.851C206.201 222.628 205.905 222.381 205.608 222.122C203.075 219.988 200.686 217.69 198.456 215.241L197.789 214.512C196.529 213.088 195.323 211.618 194.17 210.102C194.367 209.287 194.577 208.472 194.775 207.632C194.849 207.397 194.898 207.15 194.96 206.915C195.541 204.667 196.196 202.382 196.813 200.023C196.875 199.776 196.961 199.541 197.023 199.281C197.666 197.046 198.345 194.736 199.098 192.426C199.156 192.179 199.23 191.931 199.321 191.684C200.05 189.424 200.816 187.114 201.631 184.792C201.705 184.569 201.804 184.322 201.89 184.075C202.705 181.802 203.545 179.505 204.447 177.195C204.534 176.972 204.62 176.738 204.719 176.503C205.621 174.205 206.584 171.932 207.585 169.635C207.684 169.375 207.795 169.141 207.906 168.893C208.931 166.584 210.006 164.298 211.13 162.013C211.229 161.791 211.34 161.556 211.451 161.346C212.604 159.024 213.811 156.73 215.071 154.465C215.121 154.355 215.179 154.247 215.244 154.144L215.491 153.712C216.8 151.39 218.171 149.092 219.616 146.856C219.765 146.609 219.925 146.362 220.086 146.115C221.605 143.768 223.211 141.47 224.879 139.247C224.996 139.063 225.124 138.885 225.262 138.716L225.422 138.518C226.892 136.566 228.436 134.651 230.03 132.823C230.413 132.384 230.825 131.971 231.265 131.588L231.45 131.44C231.673 131.267 231.883 131.106 232.13 130.946C232.17 130.91 232.216 130.881 232.266 130.859C239.826 125.819 254.229 127.845 256.07 130.526C256.152 130.631 256.227 130.742 256.292 130.859L256.539 131.217C258.063 133.555 259.449 135.981 260.69 138.481C261.925 140.828 263.037 143.422 264.173 146.078C265.198 148.487 266.187 151.019 267.162 153.65C267.162 153.786 267.261 153.91 267.298 154.033C267.356 154.152 267.402 154.276 267.434 154.404C268.348 156.874 269.238 159.345 270.115 161.988C270.856 164.249 271.609 166.546 272.314 168.869C272.388 169.128 272.474 169.351 272.548 169.61C273.289 171.994 274.018 174.415 274.71 176.836C274.736 176.962 274.769 177.085 274.809 177.207C275.488 179.505 276.118 181.802 276.748 184.087C276.748 184.297 276.835 184.483 276.896 184.68C277.539 187.04 278.132 189.387 278.737 191.697L278.935 192.438C279.528 194.748 280.096 197.046 280.639 199.294C280.639 199.368 280.639 199.43 280.639 199.491C280.639 199.553 280.726 199.85 280.763 200.035C281.331 202.382 281.875 204.68 282.394 206.928C282.986 209.547 283.555 212.091 284.073 214.525C284.135 214.784 284.185 215.019 284.234 215.254C284.765 217.724 285.272 220.096 285.729 222.344C285.729 222.517 285.729 222.69 285.828 222.863C286.359 225.494 286.828 227.928 287.236 230.114C287.236 230.238 287.236 230.349 287.298 230.46L287.619 231.782Z" fill="#0061FF"/>
<path opacity="0.1" d="M234.934 237.378C235.935 237.65 236.948 237.897 237.961 238.119H269.646C270.313 237.971 271.005 237.823 271.672 237.65L272.734 237.378H234.934ZM287.397 230.139C287.397 230.016 287.335 229.892 287.31 229.769H216.43C216.862 230.028 217.282 230.263 217.665 230.485H287.397C287.397 230.374 287.397 230.263 287.397 230.139ZM285.89 222.369C285.865 222.3 285.845 222.23 285.828 222.159H205.559C205.856 222.419 206.152 222.666 206.461 222.888H285.927C285.89 222.715 285.853 222.542 285.828 222.369H285.89ZM284.234 214.55H197.765L198.432 215.279H284.358C284.284 215.044 284.235 214.859 284.173 214.55H284.234ZM193.132 214.55C193.121 214.676 193.096 214.8 193.058 214.92C193.058 214.797 193.058 214.673 193.145 214.55H193.132ZM282.456 206.953H194.899C194.899 207.188 194.788 207.435 194.726 207.669H282.641L282.456 206.953ZM280.702 199.541C280.702 199.479 280.702 199.418 280.702 199.344H196.974C196.912 199.603 196.826 199.838 196.764 200.085H280.875C280.825 199.887 280.788 199.714 280.739 199.516L280.702 199.541ZM278.75 191.722H199.284C199.191 191.964 199.113 192.211 199.049 192.463H278.985L278.75 191.722ZM276.909 184.705C276.848 184.508 276.81 184.323 276.761 184.113H201.854C201.767 184.36 201.668 184.607 201.582 184.829H276.934C276.932 184.787 276.936 184.746 276.946 184.705H276.909ZM274.723 176.861L274.612 176.503H204.707C204.608 176.738 204.522 176.973 204.423 177.195H274.834C274.803 177.085 274.779 176.974 274.76 176.861H274.723ZM272.326 168.894H207.894C207.783 169.141 207.672 169.376 207.573 169.635H272.573C272.573 169.376 272.438 169.153 272.363 168.894H272.326ZM269.856 161.297H211.464C211.353 161.507 211.242 161.742 211.143 161.964H270.189C270.082 161.747 269.987 161.525 269.905 161.297H269.856ZM267.299 154.046C267.299 153.922 267.212 153.799 267.163 153.663H215.503L215.269 154.095C215.204 154.198 215.146 154.305 215.096 154.416H267.484C267.452 154.288 267.406 154.164 267.348 154.046H267.299ZM264.174 146.091H220.086C219.938 146.338 219.777 146.585 219.642 146.832H264.507C264.421 146.572 264.309 146.325 264.223 146.091H264.174ZM260.678 138.469H225.447L225.287 138.667C225.149 138.836 225.022 139.014 224.904 139.198H261.073C260.949 138.951 260.838 138.704 260.727 138.469H260.678ZM256.527 131.205L256.28 130.847H232.291C232.241 130.869 232.195 130.898 232.155 130.934C231.908 131.094 231.698 131.255 231.476 131.428L231.29 131.576H256.811C256.723 131.459 256.645 131.335 256.577 131.205H256.527Z" fill="black"/>
<path d="M254.674 150.341C248.844 151.391 239.431 142.065 235.898 134.727C235.663 134.233 236.688 129.119 237.627 122.844C238.195 119.039 238.727 114.777 238.937 110.861L263.185 118.137C261.522 122.959 260.456 127.966 260.011 133.047C259.995 133.588 260.024 134.129 260.097 134.665C260.104 134.752 260.104 134.838 260.097 134.925C260.455 138.013 260.307 149.316 254.674 150.341Z" fill="#AD6359"/>
<path d="M260.134 134.925C260.134 135.098 260.134 135.283 260.134 135.493C245.397 132.38 240.851 124.919 238.245 118.051C238.541 115.642 238.788 113.196 238.9 110.861L263.148 118.125C261.486 122.95 260.424 127.962 259.986 133.047C259.958 133.588 259.987 134.13 260.072 134.665C260.082 134.754 260.103 134.841 260.134 134.925V134.925Z" fill="#263238"/>
<path d="M233.378 82.8066C230.673 91.5153 235.169 116.74 241.358 122.336C250.314 130.513 265.038 131.353 272.005 120.581C278.762 110.131 272.314 77.3466 265.409 72.2326C255.279 64.7097 237.368 69.9349 233.378 82.8066Z" fill="#AD6359"/>
<path d="M254.044 98.7412C254.044 98.7412 253.92 98.8524 253.932 98.9141C254.278 100.606 254.402 102.62 252.957 103.435C252.957 103.435 252.957 103.546 252.957 103.522C254.871 102.879 254.686 100.224 254.044 98.7412Z" fill="#263238"/>
<path d="M252.266 97.1735C249.486 97.433 250.228 102.955 252.797 102.708C255.366 102.461 254.588 96.9512 252.266 97.1735Z" fill="#263238"/>
<path d="M264.667 97.1126C264.667 97.0385 264.816 97.1126 264.828 97.2361C265.001 98.9532 265.483 100.942 267.113 101.263C267.113 101.263 267.113 101.362 267.113 101.35C265.161 101.337 264.556 98.7431 264.667 97.1126Z" fill="#263238"/>
<path d="M265.964 95.1233C268.682 94.5427 269.67 100.064 267.113 100.559C264.556 101.053 263.679 95.605 265.964 95.1233Z" fill="#263238"/>
<path d="M249.746 94.9388C250.443 94.6302 251.124 94.2838 251.784 93.9012C252.553 93.6347 253.213 93.1224 253.661 92.4435C253.751 92.203 253.764 91.9405 253.697 91.6926C253.631 91.4447 253.489 91.2236 253.291 91.06C252.835 90.8066 252.318 90.6808 251.797 90.6961C251.275 90.7113 250.767 90.8669 250.326 91.1465C249.352 91.5714 248.569 92.3412 248.127 93.3083C248.028 93.5352 247.999 93.7867 248.045 94.0301C248.09 94.2736 248.208 94.4977 248.382 94.6735C248.557 94.8493 248.78 94.9686 249.023 95.0159C249.266 95.0632 249.518 95.0364 249.746 94.9388V94.9388Z" fill="#263238"/>
<path d="M267.731 92.0474C266.969 92.0009 266.21 91.9102 265.458 91.7756C264.643 91.7978 263.846 91.5406 263.198 91.0468C263.03 90.8507 262.928 90.6071 262.906 90.3501C262.884 90.0932 262.942 89.8357 263.074 89.6138C263.416 89.2227 263.856 88.9304 264.349 88.7674C264.843 88.6044 265.371 88.5768 265.878 88.6874C266.937 88.7377 267.94 89.1777 268.694 89.9227C268.88 90.0995 269.006 90.3297 269.055 90.5814C269.104 90.8331 269.073 91.0938 268.968 91.3273C268.862 91.5608 268.686 91.7556 268.464 91.8846C268.243 92.0136 267.986 92.0705 267.731 92.0474Z" fill="#263238"/>
<path d="M256.959 108.97C257.483 109.588 258.128 110.092 258.855 110.449C259.582 110.806 260.375 111.009 261.184 111.046C261.893 111.089 262.605 111.026 263.296 110.86C263.431 110.84 263.564 110.807 263.692 110.761L264.05 110.65C264.138 110.621 264.214 110.565 264.267 110.489C264.321 110.413 264.348 110.323 264.346 110.23V110.23C264.355 110.173 264.355 110.115 264.346 110.057V109.909C264.198 108.587 263.803 106.611 263.803 106.611C264.322 106.784 266.916 107.562 266.792 106.883C265.693 101.225 264.47 94.9498 262.185 89.5887C262.171 89.5498 262.144 89.5174 262.107 89.4983C262.071 89.4791 262.029 89.4746 261.989 89.4857C261.95 89.4968 261.916 89.5226 261.895 89.5578C261.874 89.5931 261.867 89.6351 261.876 89.6752C262.716 95.1474 264.519 100.434 265.446 105.919C264.521 105.63 263.561 105.472 262.592 105.45C262.407 105.524 263.42 109.279 263.432 109.872C263.44 109.892 263.44 109.914 263.432 109.934C261.258 110.514 259.504 110.07 257.157 108.871C256.947 108.711 256.836 108.847 256.959 108.97Z" fill="#263238"/>
<path d="M262.259 110.366C261.698 111.318 260.903 112.109 259.949 112.664C259.419 112.946 258.814 113.054 258.219 112.973C256.91 112.8 256.737 111.651 256.848 110.626C256.919 110.087 257.048 109.557 257.231 109.045C258.721 110.015 260.484 110.478 262.259 110.366V110.366Z" fill="#263238"/>
<path d="M259.949 112.663C259.419 112.945 258.814 113.053 258.219 112.972C256.91 112.799 256.737 111.65 256.848 110.625C257.518 110.568 258.189 110.738 258.751 111.107C259.313 111.477 259.735 112.025 259.949 112.663V112.663Z" fill="#FF9CBD"/>
<path opacity="0.2" d="M233.427 100.102C235.008 99.1628 237.688 93.53 238.874 91.22C240.06 88.91 239.134 78.1754 238.763 75.0007C236.247 77.0651 234.377 79.8094 233.377 82.9065C232.216 86.5259 232.377 93.2829 233.427 100.102Z" fill="#263238"/>
<path d="M260.307 81.2749C259.534 82.4636 258.47 83.435 257.216 84.0966C255.962 84.7582 254.559 85.0881 253.142 85.0549C251.699 85.0215 250.288 84.6206 249.043 83.89C247.798 83.1594 246.76 82.1233 246.027 80.8796C246.027 80.8055 245.866 80.8796 245.903 80.8796C246.559 82.2561 247.576 83.4283 248.847 84.2704C250.118 85.1126 251.594 85.593 253.117 85.6602C254.625 85.6542 256.105 85.2501 257.406 84.4887C258.708 83.7274 259.785 82.6358 260.529 81.3243C260.541 81.2749 260.381 81.1637 260.307 81.2749Z" fill="#263238"/>
<path d="M249.103 62.0538C244.335 62.7826 240.295 65.9943 238.974 69.4655C238.235 71.4517 238.196 73.6304 238.863 75.6419C238.863 75.7284 239.06 75.6419 239.035 75.6419C238.701 73.8386 238.859 71.9787 239.491 70.2572C240.124 68.5358 241.208 67.0164 242.63 65.8585C244.174 64.5162 246.009 63.5518 247.99 63.0415C249.971 62.5313 252.044 62.4891 254.044 62.9185C255.993 63.2986 257.744 64.3579 258.985 65.9079C259.096 66.0684 259.442 65.9079 259.343 65.7473C257.639 62.9185 253.439 61.3991 249.103 62.0538Z" fill="#263238"/>
<path d="M278.206 68.7985C277.114 66.5451 275.264 64.7477 272.98 63.7215C269.818 62.2886 266.545 62.9927 263.296 63.7215C263.283 63.7273 263.271 63.7368 263.263 63.7488C263.256 63.7609 263.251 63.775 263.251 63.7895C263.251 63.8039 263.256 63.818 263.263 63.8301C263.271 63.8421 263.283 63.8516 263.296 63.8574C266.051 63.2274 268.892 62.7333 271.634 63.7215C273.904 64.5188 275.829 66.0769 277.082 68.1315C278.299 70.2531 278.71 72.7425 278.241 75.1431C277.771 77.5436 276.452 79.6943 274.525 81.2007C273.395 82.0409 272.105 82.6409 270.735 82.9638C269.365 83.2867 267.943 83.3257 266.557 83.0784C266.446 83.0784 266.396 83.2142 266.557 83.239C269.058 83.7603 271.664 83.3517 273.886 82.0896C276.107 80.8276 277.793 78.7987 278.626 76.3831C279.424 73.8894 279.275 71.1888 278.206 68.7985V68.7985Z" fill="#263238"/>
<path d="M232.55 87.9085C232.55 87.9085 226.942 79.9286 230.08 74.5057C231.883 71.4422 239.06 70.9111 239.06 70.9111C240.605 67.8393 243.306 65.5066 246.571 64.4258C252.376 62.3135 259.899 64.9076 259.899 64.9076C259.899 64.9076 265.162 60.9547 270.844 63.3264C278.774 66.6246 279.268 78.0139 272.277 82.5721C267.336 85.7715 259.677 82.041 259.677 82.041C259.01 82.2139 252.537 87.3033 246.472 81.7321C246.472 81.7321 242.655 86.0927 238.455 83.8939C237.995 85.0839 237.184 86.1056 236.129 86.8229C235.074 87.5401 233.826 87.9188 232.55 87.9085V87.9085Z" fill="#263238"/>
<path d="M238.677 103.363C238.677 103.363 232.846 95.3087 229.178 97.3963C225.509 99.4839 229.993 111.231 234.353 112.776C234.9 113.013 235.489 113.138 236.085 113.142C236.681 113.146 237.272 113.029 237.822 112.798C238.371 112.567 238.868 112.227 239.283 111.798C239.697 111.37 240.021 110.862 240.233 110.305L238.677 103.363Z" fill="#AD6359"/>
<path d="M230.573 100.731C230.557 100.731 230.541 100.738 230.53 100.749C230.518 100.761 230.512 100.777 230.512 100.793C230.512 100.809 230.518 100.825 230.53 100.837C230.541 100.848 230.557 100.855 230.573 100.855C233.637 102.09 235.292 104.832 236.453 107.735C236.268 107.43 236.019 107.169 235.723 106.969C235.428 106.77 235.092 106.637 234.74 106.579C234.388 106.522 234.027 106.541 233.683 106.636C233.339 106.731 233.02 106.9 232.748 107.13C232.735 107.145 232.728 107.164 232.726 107.183C232.724 107.202 232.728 107.222 232.737 107.239C232.747 107.256 232.761 107.27 232.778 107.279C232.795 107.289 232.815 107.292 232.834 107.291C233.366 107.111 233.941 107.101 234.479 107.262C235.017 107.424 235.491 107.749 235.836 108.192C236.407 108.938 236.9 109.741 237.306 110.589C237.454 110.861 237.936 110.7 237.837 110.391C237.832 110.367 237.832 110.341 237.837 110.317C237.825 106.438 234.724 101.052 230.573 100.731Z" fill="#263238"/>
<path d="M220.024 137.604C193.626 162.149 159.495 214.698 164.955 225.889C171.033 238.353 207.795 203.926 207.745 201.826C207.745 200.233 221.519 171.253 231.932 147.832C242.346 124.411 226.546 131.539 220.024 137.604Z" fill="#AD6359"/>
<path d="M164.955 225.889C170.292 234.277 185.72 236.5 224.039 245.728C229.338 246.963 248.436 212.017 242.84 210.362C235.799 208.274 208.005 201.715 205.917 201.48C188.265 199.59 161.324 220.195 164.955 225.889Z" fill="#AD6359"/>
<path d="M230.117 208.98C230.117 208.98 245.669 208.794 253.871 211.24C264.853 214.501 272.994 221.839 276.218 225.112C282.95 231.968 294.5 253.178 288.966 257.563C284.025 261.541 273.265 239.256 273.265 239.256C273.265 239.256 287.916 260.182 281.01 263.851C274.105 267.52 263.148 240.961 263.148 240.961C263.148 240.961 277.737 262.788 270.016 265.457C264.174 267.47 252.895 243.963 252.895 243.963C252.895 243.963 265.31 262.813 259.393 265.135C252.858 267.717 241.086 246.668 241.086 246.668C225.028 250.065 216.047 245.124 210.044 240.85C208.598 239.812 230.117 208.98 230.117 208.98Z" fill="#AD6359"/>
<path d="M268.658 231.709C270.461 234.093 272.364 236.514 273.908 239.121C275.452 241.727 276.996 244.272 278.355 246.952C280.175 250.43 281.601 254.101 282.604 257.897C280.343 251.288 274.785 242.085 273.191 239.528C271.598 236.971 270.14 234.365 268.559 231.82C268.509 231.697 268.608 231.647 268.658 231.709Z" fill="#263238"/>
<path d="M259.344 237.278C261.53 240.44 263.815 243.454 265.854 246.753C267.892 250.051 269.559 253.238 271.326 256.635C271.474 256.894 271.326 256.882 271.128 256.635C269.201 253.337 267.151 250.458 265.174 247.16C263.198 243.862 261.357 240.539 259.269 237.352C259.232 237.278 259.319 237.241 259.344 237.278Z" fill="#263238"/>
<path d="M250.498 240.639C253.961 245.403 256.925 250.511 259.343 255.882C259.467 256.142 259.232 256.104 259.084 255.882C256.243 250.682 254.044 246.679 250.338 240.799C250.338 240.676 250.424 240.54 250.498 240.639Z" fill="#263238"/>
<path d="M184.127 206.792C191.053 202.253 199.406 200.415 207.598 201.629C207.696 201.629 207.696 201.814 207.598 201.802C199.111 201.197 187.462 205.15 184.127 206.941C184.102 206.99 184.041 206.854 184.127 206.792Z" fill="#263238"/>
<path d="M182.139 172.08L214.948 190.832C214.948 190.832 228.536 164.829 233.761 147.869C238.986 130.908 234.342 123.163 214.75 140.247C203.244 150.187 192.353 160.817 182.139 172.08V172.08Z" fill="#455A64"/>
<path d="M216.69 183.866C212.309 180.852 207.853 177.969 203.324 175.219C201.088 173.848 198.865 172.439 196.604 171.105C194.343 169.771 191.848 168.511 189.513 167.14C189.353 167.041 189.18 167.276 189.341 167.387C191.539 168.795 193.652 170.364 195.85 171.785C198.049 173.205 200.433 174.638 202.731 176.059C207.277 178.867 211.884 181.556 216.554 184.125C216.69 184.137 216.826 183.977 216.69 183.866Z" fill="#263238"/>
<path d="M213.564 190.041C214.058 190.264 214.54 190.474 215.022 190.708L214.812 190.77C215.738 188.374 216.788 186.051 217.801 183.704C218.814 181.357 219.95 179.084 221.087 176.799C222.223 174.514 223.372 172.241 224.62 170.005C225.867 167.769 227.09 165.533 228.461 163.359C227.584 165.768 226.584 168.115 225.546 170.45C224.509 172.784 223.434 175.094 222.322 177.404C221.21 179.714 220.049 181.962 218.851 184.223C217.653 186.484 216.38 188.719 215.145 190.906L215.059 191.042L214.935 190.968C214.429 190.671 213.996 190.35 213.564 190.041Z" fill="#263238"/>
<path d="M229.103 167.918C227.727 170.148 225.832 172.012 223.582 173.353C224.265 172.231 225.096 171.205 226.052 170.302C226.962 169.379 227.988 168.578 229.103 167.918Z" fill="#263238"/>
<path d="M417.768 219.985C416.039 234.117 404.365 246.247 404.365 246.247C404.365 246.247 387.664 244.098 377.473 234.166C368.974 225.877 368.307 213.932 375.311 208.793C385.354 201.382 395.076 219.998 395.076 219.998C395.076 219.998 391.16 199.418 403.575 198.8C412.246 198.467 419.213 208.201 417.768 219.985Z" fill="#0061FF"/>
<path d="M425.847 161.975C419.547 170.35 407.651 173.797 407.651 173.797C407.651 173.797 397.769 166.286 394.94 156.206C392.568 147.806 396.534 139.938 402.883 139.234C411.987 138.245 411.406 153.662 411.406 153.662C411.406 153.662 416.409 139.061 424.562 143.285C430.232 146.225 431.097 154.983 425.847 161.975Z" fill="#0061FF"/>
<path d="M110.59 150.623C104.488 159.134 92.666 162.852 92.666 162.852C92.666 162.852 82.6355 155.577 79.5597 145.558C76.9903 137.208 80.795 129.253 87.1196 128.413C96.1989 127.177 95.9642 142.643 95.9642 142.643C95.9642 142.643 100.634 127.931 108.873 131.958C114.617 134.812 115.692 143.557 110.59 150.623Z" fill="#0061FF"/>
</svg>
